<?xml version="1.0" encoding="utf-8" standalone="yes"?>
<!DOCTYPE svg PUBLIC "-//W3C//DTD SVG 1.1//EN" "http://www.w3.org/Graphics/SVG/1.1/DTD/svg11.dtd">
<svg version="1.1" xmlns="http://www.w3.org/2000/svg" xmlns:xlink="http://www.w3.org/1999/xlink" width="710" height="528" viewBox="0 0 710 528" style="fill:none; stroke:none; fill-rule:evenodd; clip-rule:evenodd; stroke-linecap:round; stroke-linejoin:round; stroke-miterlimit:1.5;">
<style class="text-font-style fontImports" data-font-family="Roboto">
@import url(https://fonts.googleapis.com/css2?family=Roboto:wght@400;700&amp;display=block);
</style>
<style class="text-font-style">
@import url(https://app.napkin.ai/fonts/font-face.web.napkin-fallback.css);
@import url(https://app.napkin.ai/fonts/font-face.web.shantell-sans.css);
@import url(https://app.napkin.ai/fonts/font-face.web.roboto.css);
</style>
<g id="items" style="isolation:isolate;">
<g id="blend" style="mix-blend-mode:normal;">
<g id="g-root-sy_5_cu_4lolbc14uyhac-fill" data-item-order="-232122" transform="translate(544.0, 110.0)">
<g id="sy_5_cu_4lolbc14uyhac-fill-merged" stroke="none" fill="url(#gradient-ffeb37-9997561)" fill-opacity="1.0">
<g>
<path d="M10 10 V190 H118L34 178 V107.584C32.234 106.812 31 105.05 31 103C31 100.95 32.234 99.188 34 98.416 V22L118 10 H10 M50 36.625 V94 H106 V29L50 36.625"></path>
</g>
</g>
</g>
<g id="g-root-sy_4_cu_1qbc4x414uyhhl-fill" data-item-order="-232118" transform="translate(568.0, 110.0)">
<g id="sy_4_cu_1qbc4x414uyhhl-fill-merged" stroke="none" fill="url(#gradient-fe8884-345532732)" fill-opacity="1.0">
<g>
<path d="M10 22 V98.416C10.613 98.148 11.289 98 12 98C14.761 98 17 100.239 17 103C17 105.761 14.761 108 12 108C11.289 108 10.613 107.852 10 107.584 V178L94 190 V10L10 22 M26 94 V36.625L82 29 V94 H26"></path>
</g>
</g>
</g>
<g id="g-root-sy_3_cu_1ur5n1k14uyhou-fill" data-item-order="-232114" transform="translate(533.0, 98.0)">
<g id="sy_3_cu_1ur5n1k14uyhou-fill-merged" stroke="none" fill="url(#gradient-cbcbcb-48637562)" fill-opacity="1.0">
<g>
<path d="M10 202 V10 H140 V202 H129 V22 H21 V202 H10"></path>
</g>
</g>
</g>
<g id="g-root-sy_2_cu_mcylt414uyia2-fill" data-item-order="-232110" transform="translate(340.0, 290.0)">
<g id="sy_2_cu_mcylt414uyia2-fill-merged" stroke="none" fill="url(#gradient-cbcbcb-48637562)" fill-opacity="1.0">
<g>
<path d="M346 190 H10 V166L46 154 V130L82 118 V94L118 82 V58L154 46 V22L190 10 H346 V190"></path>
</g>
</g>
</g>
<g id="g-root-sy_1_cu_1hgblrc14uyfbj-fill" data-item-order="-232106" transform="translate(565.0, 198.0)">
<defs>
<linearGradient id="gradient-ffeb37-9997561" x2="0" y2="1">
<stop offset="0" stop-color="#ffef63"></stop>
<stop offset="1" stop-color="#ffe60a"></stop>
</linearGradient>
<linearGradient id="gradient-fe8884-345532732" x2="0" y2="1">
<stop offset="0" stop-color="#ffa6a3"></stop>
<stop offset="1" stop-color="#fd6a65"></stop>
</linearGradient>
<linearGradient id="gradient-cbcbcb-48637562" x2="0" y2="1">
<stop offset="0" stop-color="#d9d9d9"></stop>
<stop offset="1" stop-color="#bcbcbc"></stop>
</linearGradient>
<linearGradient id="gradient-b6b6b6-242349474" x2="0" y2="1">
<stop offset="0" stop-color="#c8c8c8"></stop>
<stop offset="1" stop-color="#a3a3a3"></stop>
</linearGradient>
</defs>
<g id="sy_1_cu_1hgblrc14uyfbj-fill-merged" stroke="none" fill="url(#gradient-b6b6b6-242349474)" fill-opacity="1.0">
<g>
<path d="M20 15C20 17.761 17.761 20 15 20C12.239 20 10 17.761 10 15C10 12.239 12.239 10 15 10C17.761 10 20 12.239 20 15"></path>
</g>
</g>
</g>
<g id="g-root-tx_initials_hxrkrs14uyfpq-fill" data-item-order="0" transform="translate(105.0, 362.0)">
<g id="tx_initials_hxrkrs14uyfpq-fill-merged" stroke="none" fill="#484848" fill-opacity="1.0">
<g>
<text transform="translate(110.0, 22.0)" style="font-size:20px; font-family:'Roboto', napkin-fallback, sans-serif; white-space:pre;">
<tspan x="-95.55" y="12" dominant-baseline="ideographic">Initial showcase of AI </tspan>
<tspan x="-48.77" y="36" dominant-baseline="ideographic">capabilities</tspan>
</text>
</g>
</g>
</g>
<g id="g-root-tx_seamless_1lw53vs14uyfwn-fill" data-item-order="0" transform="translate(81.0, 182.0)">
<g id="tx_seamless_1lw53vs14uyfwn-fill-merged" stroke="none" fill="#484848" fill-opacity="1.0">
<g>
<text transform="translate(134.0, 22.0)" style="font-size:20px; font-family:'Roboto', napkin-fallback, sans-serif; white-space:pre;">
<tspan x="-117.6" y="12" dominant-baseline="ideographic">Seamlessly integrated and </tspan>
<tspan x="-91.2" y="36" dominant-baseline="ideographic">accessible AI service</tspan>
</text>
</g>
</g>
</g>
<g id="g-root-tx_aiapplic_qtel0o14uygao-fill" data-item-order="0" transform="translate(81.0, 326.0)">
<g id="tx_aiapplic_qtel0o14uygao-fill-merged" stroke="none" fill="#484848" fill-opacity="1.0">
<g>
<text transform="translate(134.0, 10.0)" style="font-weight:bold; font-size:20px; font-family:'Roboto', napkin-fallback, sans-serif; white-space:pre;">
<tspan x="-119.19" y="24" dominant-baseline="ideographic">AI application presentation</tspan>
</text>
</g>
</g>
</g>
<g id="g-root-tx_deployed_qtel0o14uyghy-fill" data-item-order="0" transform="translate(105.0, 146.0)">
<g id="tx_deployed_qtel0o14uyghy-fill-merged" stroke="none" fill="#484848" fill-opacity="1.0">
<g>
<text transform="translate(110.0, 10.0)" style="font-weight:bold; font-size:20px; font-family:'Roboto', napkin-fallback, sans-serif; white-space:pre;">
<tspan x="-96.3" y="24" dominant-baseline="ideographic">Deployed NLP service</tspan>
</text>
</g>
</g>
</g>
<g id="g-root-tx_empoweru_qtel0o14uygp6-fill" data-item-order="0" transform="translate(51.0, 38.0)">
<g id="tx_empoweru_qtel0o14uygp6-fill-merged" stroke="none" fill="#484848" fill-opacity="1.0">
<g>
<text transform="translate(314.0, 13.0)" style="font-weight:bold; font-size:25px; font-family:'Roboto', napkin-fallback, sans-serif; white-space:pre;">
<tspan x="-299.97" y="30" dominant-baseline="ideographic">Empower users through AI-driven language solutions.</tspan>
</text>
</g>
</g>
</g>
<g id="g-root-sy_5_cu_4lolbc14uyhac-stroke" data-item-order="-232122" transform="translate(544.0, 110.0)">
<g id="sy_5_cu_4lolbc14uyhac-stroke" fill="none" stroke-linecap="round" stroke-linejoin="round" stroke-miterlimit="4" stroke="#484848" stroke-width="2" stroke-opacity="1.0">
<g>
<path d="M 10 10L 10 190L 118 190L 34 178L 34 107.584C 32.2341 106.8124 31 105.0503 31 103C 31 100.9497 32.2341 99.1876 34 98.416L 34 22L 118 10L 10 10ZM 50 94L 50 36.625L 106 29L 106 94L 50 94Z"></path>
</g>
</g>
</g>
<g id="g-root-sy_4_cu_1qbc4x414uyhhl-stroke" data-item-order="-232118" transform="translate(568.0, 110.0)">
<g id="sy_4_cu_1qbc4x414uyhhl-stroke" fill="none" stroke-linecap="round" stroke-linejoin="round" stroke-miterlimit="4" stroke="#484848" stroke-width="2" stroke-opacity="1.0">
<g>
<path d="M 10 22L 10 98.416C 10.6125 98.1485 11.2889 98 12 98C 14.7614 98 17 100.2386 17 103C 17 105.7614 14.7614 108 12 108C 11.2889 108 10.6125 107.8515 10 107.584L 10 178L 94 190L 94 10L 10 22ZM 26 94L 26 36.625L 82 29L 82 94L 26 94ZM 82 60L 54 61.8125L 54 33M 26 63.625L 50 62.0714L 50 33M 82 64L 54 65.8125C 54 76.0165 54 82.8264 54 94M 26 67.625L 50 66.0714L 50 94M 22 94L 22 33.625L 82 25L 82 29L 26 36.625L 26 94L 22 94ZM 82 94L 26 94L 26 36.625L 82 29L 82 94Z"></path>
</g>
</g>
</g>
<g id="g-root-sy_3_cu_1ur5n1k14uyhou-stroke" data-item-order="-232114" transform="translate(533.0, 98.0)">
<g id="sy_3_cu_1ur5n1k14uyhou-stroke" fill="none" stroke-linecap="round" stroke-linejoin="round" stroke-miterlimit="4" stroke="#484848" stroke-width="2" stroke-opacity="1.0">
<g>
<path d="M 10 202L 10 10L 140 10L 140 202L 129 202L 129 22L 21 22L 21 202L 10 202Z"></path>
</g>
</g>
</g>
<g id="g-root-sy_2_cu_mcylt414uyia2-stroke" data-item-order="-232110" transform="translate(340.0, 290.0)">
<g id="sy_2_cu_mcylt414uyia2-stroke" fill="none" stroke-linecap="round" stroke-linejoin="round" stroke-miterlimit="4" stroke="#484848" stroke-width="2" stroke-opacity="1.0">
<g>
<path d="M 46 130L 46 154L 346 154L 346 130L 46 130ZM 346 130L 346 118L 82 118L 46 130L 346 130ZM 10 166L 10 190L 346 190L 346 166L 10 166ZM 346 166L 346 154L 46 154L 10 166L 346 166ZM 82 94L 82 118L 346 118L 346 94L 82 94ZM 346 94L 346 82L 118 82L 82 94L 346 94ZM 118 58L 118 82L 346 82L 346 58L 118 58ZM 346 58L 346 46L 154 46L 118 58L 346 58ZM 154 46L 154 22L 346 22L 346 46L 154 46ZM 346 22L 346 10L 190 10L 154 22L 346 22Z"></path>
</g>
</g>
</g>
<g id="g-root-sy_1_cu_1hgblrc14uyfbj-stroke" data-item-order="-232106" transform="translate(565.0, 198.0)">
<g id="sy_1_cu_1hgblrc14uyfbj-stroke" fill="none" stroke-linecap="round" stroke-linejoin="round" stroke-miterlimit="4" stroke="#484848" stroke-width="2" stroke-opacity="1.0">
<g>
<path d="M 20 15C 20 17.7614 17.7614 20 15 20C 12.2386 20 10 17.7614 10 15C 10 12.2386 12.2386 10 15 10C 17.7614 10 20 12.2386 20 15Z"></path>
</g>
</g>
</g>
<g id="g-root-tx_initials_hxrkrs14uyfpq-stroke" data-item-order="0" transform="translate(105.0, 362.0)"></g>
<g id="g-root-tx_seamless_1lw53vs14uyfwn-stroke" data-item-order="0" transform="translate(81.0, 182.0)"></g>
<g id="g-root-tx_aiapplic_qtel0o14uygao-stroke" data-item-order="0" transform="translate(81.0, 326.0)"></g>
<g id="g-root-tx_deployed_qtel0o14uyghy-stroke" data-item-order="0" transform="translate(105.0, 146.0)"></g>
<g id="g-root-tx_empoweru_qtel0o14uygp6-stroke" data-item-order="0" transform="translate(51.0, 38.0)"></g>
</g>
</g>
<path id="w8tew14v5ixb" d="M65.283 12.757a.35.35 0 0 0 .584.157l5.203-5.141-6.183 3.523.396 1.461zm-2.216-11.7a.35.35 0 0 0-.522.305v3.111l3.276-1.868-2.754-1.548zm3.728 2.105l-4.25 2.421v2.445l6.391-3.644-2.141-1.222zm4.708 3.303a.35.35 0 0 0 0-.609l-1.592-.9-7.365 4.199v1.782a.35.35 0 0 0 .523.305l8.435-4.777z M44.542 2.513c0-.433.355-.783.792-.783s.792.35.792.783-.355.783-.792.783-.792-.35-.792-.783zm59.171 0c0-.433.355-.783.792-.783s.792.35.792.783-.355.783-.792.783-.792-.35-.792-.783zm-85.951 7.636h-1.27v-.487c-.276.201-.864.609-1.881.609-1.202 0-2.274-.794-2.137-2.078.118-1.106 1.153-1.584 1.848-1.727l2.17-.345c0-.539-.29-.956-1.064-1.006s-1.21.305-1.571 1.017l-1.124-.605c1.218-2.631 5.029-1.764 5.029.414v4.207zm-1.27-2.86c.006.396-.062 1.112-.819 1.59-.587.37-1.841.299-1.903-.395-.049-.555.461-.791.906-.898l1.816-.297zm72.662 2.86h-1.27v-.487c-.276.201-.864.609-1.881.609-1.202 0-2.274-.794-2.137-2.078.118-1.106 1.153-1.584 1.848-1.727l2.17-.345c0-.539-.29-.956-1.064-1.006s-1.21.305-1.571 1.017l-1.124-.605c1.218-2.631 5.029-1.764 5.029.414v4.207zm-1.27-2.86c.006.396-.062 1.112-.82 1.59-.587.37-1.841.299-1.903-.395-.049-.555.461-.791.906-.898l1.816-.297zM99.096 10.149H97.85v-8.45h1.246v4.895l2.68-2.559h1.738l-2.633 2.535 2.715 3.578h-1.556l-2.077-2.707-.867.844v1.863zm6.053-6.114h-1.255v6.113h1.255V4.035zm-59.2 0h-1.255v6.113h1.255V4.035zm5.584 6.113V1.697h1.255v2.695c.361-.346 1-.485 1.47-.485 1.452 0 2.477 1.082 2.457 2.448v3.792h-1.27v-3.68c0-.408-.214-1.339-1.315-1.339-.968 0-1.342.756-1.342 1.339v3.681h-1.255zm-4.76-4.894V4.039h.621a.45.45 0 0 0 .45-.45v-.855h1.251v1.305h1.309v1.215h-1.309v3.109c0 .293.105.664.648.664.365 0 .531-.035.736-.07v1.137s-.361.113-.857.113c-1.398 0-1.777-1.051-1.777-1.788V5.254h-1.071zM36.528 4.039h-1.394l2.191 6.106h1.125l1.234-3.918 1.238 3.918h1.129l2.188-6.106h-1.383l-1.359 3.93-1.256-3.93h-1.124l-1.242 3.957-1.348-3.957zM26.212 7.141c-.02 1.566 1.187 3.129 3.223 3.129 1.566 0 2.383-.918 2.734-1.719L31.172 8c-.315.399-.801 1.094-1.738 1.094-1.145 0-1.825-.781-1.891-1.52h4.625c.074-.284.148-.995-.03-1.559-.336-1.064-1.221-2.102-2.839-2.102s-3.088 1.152-3.088 3.227zm1.363-.75h3.348c-.055-.43-.566-1.301-1.623-1.301a1.79 1.79 0 0 0-1.725 1.301zm-8.758.75c.038 1.758 1.277 3.133 3.145 3.133 1.074 0 1.723-.477 1.961-.672v.547h1.242V1.703h-1.258v2.888c-.414-.36-1.062-.68-1.93-.68-1.91 0-3.198 1.473-3.16 3.23zm1.309-.08c0 1.119.723 1.978 1.836 1.978a1.88 1.88 0 0 0 1.94-1.904c0-1.371-1.011-1.99-1.972-1.99s-1.805.798-1.805 1.916zm76.683-.028C96.771 5.275 95.532 3.9 93.664 3.9c-1.074 0-1.723.477-1.961.672v-.547h-1.242v8.22h1.258V9.583c.414.36 1.063.68 1.93.68 1.91 0 3.198-1.473 3.16-3.23zm-1.309.08c0-1.119-.723-1.978-1.836-1.978a1.88 1.88 0 0 0-1.94 1.904c0 1.371 1.011 1.99 1.972 1.99S95.5 8.231 95.5 7.113zM106.441 10.173V4.036h1.254v.382c.361-.346 1-.485 1.47-.485 1.452 0 2.477 1.082 2.457 2.448v3.792h-1.27V6.492c0-.408-.214-1.339-1.315-1.339-.969 0-1.342.756-1.342 1.339v3.681h-1.254zm-30.383-.021V1.824h1.084l4.215 5.777V1.824h1.32v8.328h-1.094l-4.207-5.796v5.796h-1.319zM5.24 10.149H4V2.377h1.014l2.664 3.597 2.654-3.592h1.03v7.766h-1.256V4.762L7.678 8.068 5.24 4.742v5.407z" transform="translate(20.0, 494.0)" fill="#80808088" stroke="none"></path>
</svg>