<?xml version="1.0" encoding="utf-8" standalone="yes"?>
<!DOCTYPE svg PUBLIC "-//W3C//DTD SVG 1.1//EN" "http://www.w3.org/Graphics/SVG/1.1/DTD/svg11.dtd">
<svg version="1.1" xmlns="http://www.w3.org/2000/svg" xmlns:xlink="http://www.w3.org/1999/xlink" width="744" height="456" viewBox="0 0 744 456" style="fill:none; stroke:none; fill-rule:evenodd; clip-rule:evenodd; stroke-linecap:round; stroke-linejoin:round; stroke-miterlimit:1.5;">
<style class="text-font-style fontImports" data-font-family="Roboto">
@import url(https://fonts.googleapis.com/css2?family=Roboto:wght@400;700&amp;display=block);
</style>
<style class="text-font-style">
@import url(https://app.napkin.ai/fonts/font-face.web.napkin-fallback.css);
@import url(https://app.napkin.ai/fonts/font-face.web.shantell-sans.css);
@import url(https://app.napkin.ai/fonts/font-face.web.roboto.css);
</style>
<g id="items" style="isolation:isolate;">
<g id="blend" style="mix-blend-mode:normal;">
<g id="g-root-cp_4_g-4_1lpwcw8ck9gjz-fill" data-item-order="-250550" transform="translate(567.0, 138.5)">
<g id="cp_4_g-4_1lpwcw8ck9gjz-fill-merged" stroke="none" fill="url(#gradient-fcaa5f-284141256)" fill-opacity="1.0">
<g>
<path d="M87.684 10C90.684 10 94.684 10 97.684 11.5C100.084 12.7 99.684 16.667 99.184 18.5C98.841 20.5 99.684 20 99.684 23C99.684 26 98.217 32.578 94.684 42C90.184 54 82.684 61.5 81.184 63.5C79.984 65.1 80.018 66.166 80.184 66.5L81.684 69L84.184 66C85.184 65 86.184 65.2 86.184 66C86.184 66.8 84.684 71 83.684 72.5C83.352 72.998 89.079 67.384 90.184 66.5C92.684 64.5 94.684 65 95.184 65.5C95.538 65.854 95.684 67 94.184 67.5C91.251 68.478 84.879 76.11 85.184 76C89.684 74.333 95.406 71 100.184 71C101.684 71 103.016 71.671 102.684 73C102.184 75 100.184 74.5 96.184 75C92.984 75.4 86.186 78 86.684 78.5L93.184 79C94.184 79 95.507 79.235 96.684 81C97.684 82.5 100.184 82 100.684 83C101.184 84 100.85 85.209 99.684 85.5C97.684 86 95.184 83.5 94.184 83C93.289 82.552 90.184 80 86.184 82C82.184 84 82.184 84 79.684 84C76.184 84 75.184 81 74.184 80C73.184 79 68.975 78.791 68.184 78C67.684 77.5 68.184 76.875 69.684 76.5C71.275 76.102 74.15 76.495 74.184 76.5C74.184 76.5 74.184 75 73.684 74C72.969 72.569 72.351 71.667 71.684 71C66.884 75 59.684 76.667 56.684 77C58.684 79.5 62.851 83.833 64.184 86C67.184 86.5 69.884 85 70.684 85C71.684 85 70.949 87.118 69.184 88C68.184 88.5 66.184 89 64.684 89C64.851 90 64.684 91.5 66.184 92.5C67.361 93.285 73.184 94 74.684 94C75.884 94 75.684 95.5 75.184 96C74.684 96.5 72.684 96.5 71.184 96.5C68.635 96.5 64.245 95.354 63.184 95C61.684 94.5 59.684 95 60.184 96.5C60.351 97 62.184 97 64.684 98C66.684 98.8 69.184 99.5 69.184 100.5C69.184 101.5 68.884 102 67.684 102C66.184 102 64.684 101 63.184 100C61.684 99 60.684 100 57.684 100C54.684 100 49.184 99.5 41.184 97C33.184 94.5 27.684 89 22.184 84.5C16.684 80 16.184 78.5 16.184 76.5C16.184 74.509 19.654 73.013 19.684 73C19.682 72.988 19.184 70.499 19.184 70C19.184 69.5 18.019 70.9 15.358 72.5C12.032 74.5 10.684 73 10.184 72C9.434 70.5 11.184 68.5 11.684 65C12.184 61.5 12.684 55 14.684 53C16.452 51.232 19.184 51.5 20.684 51C23.367 50.106 26.684 49.5 29.184 46.5C31.208 44.071 33.684 39 36.684 37.5C39.684 36 44.184 34.5 50.684 32C57.184 29.5 59.684 27.5 62.184 26C64.684 24.5 68.684 20 70.684 18.5C72.017 17.5 73.684 15.5 74.684 13.5C75.888 11.092 77.684 10 81.684 10 H87.684"></path>
</g>
</g>
<g id="cp_4_g-4_1lpwcw8ck9gjz-fill-merged" stroke="none" fill="url(#gradient-fcaa5f-284141256)" fill-opacity="1.0">
<g>
<path d="M86.492 23.41C87.341 25.35 89.681 26.069 91.72 25.014C93.76 23.959 94.725 21.531 93.877 19.59C93.028 17.65 90.687 16.931 88.648 17.986C86.609 19.041 85.644 21.469 86.492 23.41"></path>
</g>
</g>
</g>
<g id="g-root-cp_3_g-3_1cu9cncck9hc5-fill" data-item-order="-250542" transform="translate(393.0, 145.0)">
<g id="cp_3_g-3_1cu9cncck9hc5-fill-merged" stroke="none" fill="url(#gradient-ffeb37-9997561)" fill-opacity="1.0">
<g>
<path d="M90.065 17.083C89.265 19.883 91.574 21.996 92.741 22.663C92.741 22.663 91.479 23.559 90.638 24.116C89.797 24.673 88.413 25.523 88.413 25.523C86.413 24.523 84.406 19.386 85.535 16C86.535 13 89.643 10 93.035 10C94.343 10 95.035 11.5 93.565 12.583C92.095 13.666 90.865 14.283 90.065 17.083 M94.035 58.5C93.635 54.5 97.31 49.486 98.81 47.32C98.81 47.32 96.655 47.194 95.535 47.042C94.344 46.88 93.035 46.88 93.035 46.88C92.035 49.714 90.235 55.1 89.035 57.5C87.035 61.5 90.535 61.5 93.535 66C95.361 68.739 97.467 66.366 96.535 64.5C95.535 62.5 94.304 61.189 94.035 58.5 M116.035 25.542C113.035 19.5 101.035 19.042 95.535 21.042C92.035 22.542 88.035 27.042 83.535 27.042C79.035 27.042 77.035 29.042 75.035 32.042C73.035 35.042 65.035 38.685 65.035 38.685C65.035 38.685 50.535 45.542 37.535 53.042C27.135 59.042 18.258 65 12.535 71.042C9.535 74.208 6.735 78.642 19.535 71.042C35.535 61.542 48.535 57.042 58.035 53.042C67.535 49.042 70.535 47.042 79.035 48.542C87.535 50.042 86.535 46.042 95.535 47.042C104.535 48.042 104.035 46.542 107.035 44.042C110.035 41.542 119.736 32.995 116.035 25.542 M77.035 64.542 V48.241C77.035 48.241 75.466 48.09 73.75 48.045C72.035 48 70.535 48.357 70.535 48.357C70.535 51.69 71.035 59.5 69.535 60.542C68.35 61.364 63.035 58.333 60.035 56.5C59.368 61.333 57.534 69.958 59.535 75.5C61.206 80.132 64.535 79.5 64.035 76.542C63.014 70.5 63.035 66.5 64.035 63.542C64.035 63.542 66.135 64.742 70.535 67.542C74.935 70.342 77.035 67 77.035 64.542 M70.535 27.542C71.035 29.208 70.535 35.748 70.535 35.748L56.837 42.709C49.994 41.009 43.035 38.685 38.535 33.5C35.912 30.477 38.035 28.5 41.035 30.042L58.535 38.542C60.035 35.875 63.635 29.742 66.035 26.542C68.435 23.342 70.035 25.875 70.535 27.542"></path>
</g>
</g>
<g id="cp_3_g-3_1cu9cncck9hc5-fill-merged" stroke="none" fill="url(#gradient-ffeb37-9997561)" fill-opacity="1.0">
<g>
<path d="M115.535 34C115.535 35.105 114.415 36 113.035 36C111.654 36 110.535 35.105 110.535 34C110.535 32.895 111.654 32 113.035 32C114.415 32 115.535 32.895 115.535 34"></path>
</g>
</g>
<g id="cp_3_g-3_1cu9cncck9hc5-fill-merged" stroke="none" fill="url(#gradient-ffeb37-9997561)" fill-opacity="1.0">
<g>
<path d="M110.389 22.356C110.573 23.105 109.71 23.961 108.462 24.268C107.213 24.575 106.052 24.217 105.868 23.468C105.684 22.719 106.547 21.863 107.795 21.556C109.043 21.249 110.205 21.607 110.389 22.356"></path>
</g>
</g>
</g>
<g id="g-root-cp_2_g-2_zisua0ck9hxm-fill" data-item-order="-250534" transform="translate(244.0, 168.0)">
<g id="cp_2_g-2_zisua0ck9hxm-fill-merged" stroke="none" fill="url(#gradient-64edab-300750244)" fill-opacity="1.0">
<g>
<path d="M43.792 19.698C42.978 19.237 41.997 18.746 41.506 18.501C38.506 17.001 31.966 16.398 27.005 17.5C22.505 18.5 17.985 20.659 15.505 25C13.505 28.5 13.505 32.5 13.505 32.5C20.005 23 27.005 21.5 33.005 22C39.686 22.557 44.678 25.085 46.9 27.389C47.036 27.543 47.176 27.694 47.322 27.843C47.351 27.899 47.38 27.953 47.408 28.006C44.659 26.401 35.505 23.5 28.005 26C20.505 28.5 15.005 34.5 11.862 43.464C11.862 43.464 9.834 36.764 10.011 30.442C10.151 25.444 12.68 18.564 21.005 15C25.629 13.092 35 12.167 40 15.5C42 16.833 43.215 18.533 43.792 19.698"></path>
</g>
</g>
<g id="cp_2_g-2_zisua0ck9hxm-fill-merged" stroke="none" fill="url(#gradient-64edab-300750244)" fill-opacity="1.0">
<g>
<path d="M61.505 33C70.894 33 78.505 27.851 78.505 21.5C78.505 15.149 70.894 10 61.505 10C52.768 10 45.57 14.459 44.613 20.196C43.795 19.645 42.183 18.839 41.506 18.5C38.506 17 31.966 16.398 27.005 17.5C22.505 18.5 17.986 20.659 15.505 25C13.505 28.5 13.505 32.5 13.505 32.5C20.005 23 27.005 21.5 33.005 22C39.686 22.557 44.678 25.085 46.9 27.389C49.867 30.75 55.298 33 61.505 33"></path>
</g>
</g>
<g id="cp_2_g-2_zisua0ck9hxm-fill-merged" stroke="none" fill="url(#gradient-64edab-300750244)" fill-opacity="1.0">
<g>
<path d="M73 18C73 19.105 72.105 20 71 20C69.895 20 69 19.105 69 18C69 16.895 69.895 16 71 16C72.105 16 73 16.895 73 18"></path>
</g>
</g>
</g>
<g id="g-root-cp_1_g-1_m7cbwock9iq0-fill" data-item-order="-250526" transform="translate(80.0, 150.0)">
<defs>
<linearGradient id="gradient-fcaa5f-284141256" x2="0" y2="1">
<stop offset="0" stop-color="#ffbf84"></stop>
<stop offset="1" stop-color="#f99539"></stop>
</linearGradient>
<linearGradient id="gradient-ffeb37-9997561" x2="0" y2="1">
<stop offset="0" stop-color="#ffef63"></stop>
<stop offset="1" stop-color="#ffe60a"></stop>
</linearGradient>
<linearGradient id="gradient-64edab-300750244" x2="0" y2="1">
<stop offset="0" stop-color="#83fac1"></stop>
<stop offset="1" stop-color="#44e095"></stop>
</linearGradient>
<linearGradient id="gradient-76aaff-336274919" x2="0" y2="1">
<stop offset="0" stop-color="#9cc2ff"></stop>
<stop offset="1" stop-color="#4f92ff"></stop>
</linearGradient>
</defs>
<g id="cp_1_g-1_m7cbwock9iq0-fill-merged" stroke="none" fill="url(#gradient-76aaff-336274919)" fill-opacity="1.0">
<g>
<path d="M22.955 48.961C22.64 48.987 22.322 49 22 49C18.837 49 15.96 47.725 13.816 45.642C11.508 47.271 10 49.96 10 53C10 57.971 14.029 62 19 62C21.305 62 23.408 61.133 25 59.708C23.159 58.06 22 55.666 22 53C22 51.548 22.344 50.176 22.955 48.961 M53 45.5C53 52.404 47.627 58 41 58C34.373 58 29 52.404 29 45.5C29 38.596 34.373 33 41 33C47.627 33 53 38.596 53 45.5 M57 44C61.971 44 66 39.971 66 35C66 30.029 61.971 26 57 26C52.029 26 48 30.029 48 35C48 35.118 48.002 35.235 48.007 35.351C50.395 37.143 52.124 39.826 52.747 42.934C54.013 43.614 55.462 44 57 44 M51.5 27.876C51.012 27.957 50.511 28 50 28C49.826 28 49.654 27.995 49.483 27.985C48.298 24.652 45.204 22.224 41.517 22.015C41.182 21.072 41 20.057 41 19C41 14.029 45.029 10 50 10C54.971 10 59 14.029 59 19C59 21.899 57.629 24.478 55.5 26.124C54.011 26.374 52.646 26.99 51.5 27.876 M62.63 42.022C61.089 43.259 59.131 44 57 44C56.788 44 56.578 43.993 56.37 43.978C54.315 45.628 53 48.16 53 51C53 55.971 57.029 60 62 60C66.971 60 71 55.971 71 51C71 46.241 67.307 42.345 62.63 42.022 M33.953 35.382C30.951 37.654 29 41.34 29 45.5C29 45.877 29.016 46.25 29.047 46.618C27.069 48.116 24.633 49 22 49C15.373 49 10 43.404 10 36.5C10 29.596 15.373 24 22 24C28.266 24 33.41 29.002 33.953 35.382 M48.007 35.351C46.035 33.871 43.615 33 41 33C38.367 33 35.931 33.883 33.953 35.382C33.776 33.311 33.115 31.386 32.089 29.729C32.706 25.361 36.461 22 41 22C45.459 22 49.161 25.243 49.875 29.5C48.7 31.021 48 32.929 48 35C48 35.118 48.002 35.235 48.007 35.351 M32.089 29.729C32.563 26.378 34.882 23.62 37.985 22.517C37.995 22.346 38 22.174 38 22C38 17.029 33.971 13 29 13C24.029 13 20 17.029 20 22C20 22.734 20.088 23.448 20.254 24.131C20.824 24.045 21.407 24 22 24C26.232 24 29.952 26.282 32.089 29.729 M38.641 57.758C33.143 56.617 29 51.562 29 45.5C29 45.064 29.021 44.633 29.063 44.209C25.024 45.095 22 48.694 22 53C22 57.971 26.029 62 31 62C34.223 62 37.051 60.306 38.641 57.758 M38.604 57.751C38.214 58.759 38 59.854 38 61C38 65.971 42.029 70 47 70C51.971 70 56 65.971 56 61C56 57.362 53.842 54.229 50.736 52.81C48.556 55.954 45.007 58 41 58C40.18 58 39.379 57.914 38.604 57.751"></path>
</g>
</g>
<g id="cp_1_g-1_m7cbwock9iq0-fill-merged" stroke="none" fill="url(#gradient-76aaff-336274919)" fill-opacity="1.0">
<g>
<path d="M17.634 41.863C16.321 42.29 14.771 41.148 14.172 39.31C13.573 37.472 14.151 35.635 15.464 35.207C16.777 34.779 18.327 35.922 18.926 37.76C19.525 39.598 18.946 41.435 17.634 41.863 M17.34 57.696C16.427 58.22 15.088 57.662 14.348 56.449C13.608 55.237 13.748 53.829 14.66 53.305C15.572 52.781 16.912 53.339 17.652 54.551C18.392 55.764 18.252 57.171 17.34 57.696 M28.751 58.092C27.866 58.6 26.568 58.059 25.851 56.884C25.134 55.709 25.27 54.345 26.154 53.837C27.038 53.329 28.336 53.87 29.053 55.045C29.77 56.22 29.635 57.584 28.751 58.092 M43.377 51.43C44.69 51.858 46.239 50.715 46.838 48.877C47.437 47.039 46.859 45.203 45.546 44.775C44.233 44.347 42.684 45.49 42.085 47.328C41.485 49.166 42.064 51.002 43.377 51.43 M60.32 34.333C61.083 33.666 60.945 32.259 60.011 31.19C59.077 30.121 57.701 29.796 56.938 30.463C56.175 31.13 56.313 32.537 57.247 33.606C58.181 34.675 59.557 35 60.32 34.333 M53.022 17.077C53.408 16.139 52.655 14.942 51.342 14.402C50.03 13.863 48.653 14.187 48.268 15.124C47.883 16.062 48.635 17.259 49.948 17.799C51.261 18.338 52.637 18.014 53.022 17.077 M30.488 17.049C30.069 16.125 28.682 15.852 27.389 16.437C26.097 17.023 25.388 18.246 25.806 19.17C26.224 20.093 27.612 20.367 28.904 19.781C30.197 19.196 30.906 17.972 30.488 17.049 M43.432 27.384C43.429 26.462 42.38 25.719 41.09 25.723C39.8 25.728 38.757 26.479 38.76 27.4C38.763 28.322 39.812 29.065 41.102 29.061C42.392 29.056 43.436 28.305 43.432 27.384 M48.894 64.434C49.005 63.519 48.057 62.651 46.776 62.495C45.495 62.339 44.367 62.955 44.256 63.869C44.144 64.784 45.092 65.652 46.373 65.808C47.654 65.964 48.782 65.348 48.894 64.434 M63.098 55.072C63.942 55.635 65.264 55.134 66.052 53.953C66.84 52.773 66.795 51.359 65.952 50.797C65.108 50.234 63.786 50.735 62.998 51.915C62.21 53.096 62.255 54.509 63.098 55.072"></path>
</g>
</g>
</g>
<g id="g-root-cp_-1_line_1q5pv0ock9j41-fill" data-item-order="-250517" transform="translate(174.0, 175.5)"></g>
<g id="g-root-cp_-1_line_2_1uljd54ck9jbh-fill" data-item-order="-250511" transform="translate(349.0, 175.5)"></g>
<g id="g-root-cp_-1_line_4_4gosi0ck9gjw-fill" data-item-order="-250505" transform="translate(514.0, 175.5)"></g>
<g id="g-root-tx_datatoin_18f2bm0ck9h4y-fill" data-item-order="0" transform="translate(266.0, 38.0)">
<g id="tx_datatoin_18f2bm0ck9h4y-fill-merged" stroke="none" fill="#484848" fill-opacity="1.0">
<g>
<text transform="translate(104.0, 13.0)" style="font-weight:bold; font-size:25px; font-family:'Roboto', napkin-fallback, sans-serif; white-space:pre;">
<tspan x="-86.26" y="30" dominant-baseline="ideographic">Data to Insights</tspan>
</text>
</g>
</g>
</g>
<g id="g-root-tx_rawdata_1hapbuwck9hjf-fill" data-item-order="0" transform="translate(62.0, 278.0)">
<g id="tx_rawdata_1hapbuwck9hjf-fill-merged" stroke="none" fill="#4e88e7" fill-opacity="1.0">
<g>
<text transform="translate(56.0, 10.0)" style="font-weight:bold; font-size:20px; font-family:'Roboto', napkin-fallback, sans-serif; white-space:pre;">
<tspan x="-40.19" y="24" dominant-baseline="ideographic">Raw Data</tspan>
</text>
</g>
</g>
</g>
<g id="g-root-tx_unproces_vadkck9hxj-fill" data-item-order="0" transform="translate(62.0, 314.0)">
<g id="tx_unproces_vadkck9hxj-fill-merged" stroke="none" fill="#484848" fill-opacity="1.0">
<g>
<text transform="translate(56.0, 19.0)" style="font-size:15px; font-family:'Roboto', napkin-fallback, sans-serif; white-space:pre;">
<tspan x="-43.67" y="9" dominant-baseline="ideographic">Unprocessed </tspan>
<tspan x="-36.73" y="27" dominant-baseline="ideographic">information</tspan>
</text>
</g>
</g>
</g>
<g id="g-root-tx_centralp_qnsb48ck9i4r-fill" data-item-order="0" transform="translate(224.0, 278.0)">
<g id="tx_centralp_qnsb48ck9i4r-fill-merged" stroke="none" fill="#3cc583" fill-opacity="1.0">
<g>
<text transform="translate(62.0, 22.0)" style="font-weight:bold; font-size:20px; font-family:'Roboto', napkin-fallback, sans-serif; white-space:pre;">
<tspan x="-32.94" y="12" dominant-baseline="ideographic">Central </tspan>
<tspan x="-48.45" y="36" dominant-baseline="ideographic">Processing</tspan>
</text>
</g>
</g>
</g>
<g id="g-root-tx_dataente_13z8thkck9ibk-fill" data-item-order="0" transform="translate(206.0, 338.0)">
<g id="tx_dataente_13z8thkck9ibk-fill-merged" stroke="none" fill="#484848" fill-opacity="1.0">
<g>
<text transform="translate(80.0, 13.0)" style="font-size:15px; font-family:'Roboto', napkin-fallback, sans-serif; white-space:pre;">
<tspan x="-65.11" y="18" dominant-baseline="ideographic">Data enters the CPU</tspan>
</text>
</g>
</g>
</g>
<g id="g-root-tx_transfor_1q6cc3sck9iiz-fill" data-item-order="0" transform="translate(374.0, 278.0)">
<g id="tx_transfor_1q6cc3sck9iiz-fill-merged" stroke="none" fill="#e0cb15" fill-opacity="1.0">
<g>
<text transform="translate(80.0, 10.0)" style="font-weight:bold; font-size:20px; font-family:'Roboto', napkin-fallback, sans-serif; white-space:pre;">
<tspan x="-67.66" y="24" dominant-baseline="ideographic">Transformation</tspan>
</text>
</g>
</g>
</g>
<g id="g-root-tx_wordsand_1um5u88ck9iq0-fill" data-item-order="0" transform="translate(374.0, 314.0)">
<g id="tx_wordsand_1um5u88ck9iq0-fill-merged" stroke="none" fill="#484848" fill-opacity="1.0">
<g>
<text transform="translate(80.0, 19.0)" style="font-size:15px; font-family:'Roboto', napkin-fallback, sans-serif; white-space:pre;">
<tspan x="-65.57" y="9" dominant-baseline="ideographic">Words and symbols </tspan>
<tspan x="-45.19" y="27" dominant-baseline="ideographic">are processed</tspan>
</text>
</g>
</g>
</g>
<g id="g-root-tx_intellig_v3lt8ock9j49-fill" data-item-order="0" transform="translate(560.0, 278.0)">
<g id="tx_intellig_v3lt8ock9j49-fill-merged" stroke="none" fill="#de8431" fill-opacity="1.0">
<g>
<text transform="translate(62.0, 22.0)" style="font-weight:bold; font-size:20px; font-family:'Roboto', napkin-fallback, sans-serif; white-space:pre;">
<tspan x="-45.84" y="12" dominant-baseline="ideographic">Intelligent </tspan>
<tspan x="-34.13" y="36" dominant-baseline="ideographic">Insights</tspan>
</text>
</g>
</g>
</g>
<g id="g-root-tx_meaningf_18f2bm0ck9jb4-fill" data-item-order="0" transform="translate(554.0, 338.0)">
<g id="tx_meaningf_18f2bm0ck9jb4-fill-merged" stroke="none" fill="#484848" fill-opacity="1.0">
<g>
<text transform="translate(68.0, 31.0)" style="font-size:15px; font-family:'Roboto', napkin-fallback, sans-serif; white-space:pre;">
<tspan x="-51.63" y="0" dominant-baseline="ideographic">Meaningful and </tspan>
<tspan x="-34.65" y="18" dominant-baseline="ideographic">actionable </tspan>
<tspan x="-36.73" y="36" dominant-baseline="ideographic">information</tspan>
</text>
</g>
</g>
</g>
<g id="g-root-cp_4_g-4_1lpwcw8ck9gjz-stroke" data-item-order="-250550" transform="translate(567.0, 138.5)">
<g id="cp_4_g-4_1lpwcw8ck9gjz-stroke" fill="none" stroke-linecap="round" stroke-linejoin="round" stroke-miterlimit="4" stroke="#484848" stroke-width="2" stroke-opacity="1.0">
<g>
<path d="M 97.684331 11.5C 100.084331 12.7 99.684331 16.6667 99.184331 18.5C 98.841531 20.5 99.684231 20 99.684231 23C 99.684231 26 98.217431 32.5784 94.684331 42C 90.184331 54 82.684331 61.5 81.184331 63.5C 79.984331 65.1 80.017631 66.1667 80.184331 66.5L 81.684331 69L 84.184331 66C 85.184331 65 86.184231 65.2 86.184231 66C 86.184231 66.8 84.684331 71 83.684331 72.5C 83.351031 73 89.080031 67.3835 90.184331 66.5C 92.684331 64.5 94.684431 65 95.184331 65.5C 95.537931 65.8536 95.684331 67 94.184231 67.5C 91.250731 68.4778 84.875231 76.1145 85.184331 76C 89.684331 74.3333 95.406631 71 100.184331 71C 101.684431 71 103.016431 71.6712 102.684331 73C 102.184431 75 100.184331 74.5 96.184331 75C 92.984331 75.4 86.184231 78 86.684331 78.5L 93.184331 79C 94.184231 79 95.507631 79.235 96.684331 81C 97.684331 82.5 100.184331 82 100.684231 83C 101.184131 84 100.850231 85.2085 99.684231 85.5C 97.684331 86 95.184331 83.5 94.184231 83C 93.289831 82.5528 90.184231 80 86.184231 82C 82.184231 84 82.184331 84 79.684231 84C 76.184231 84 75.184231 81 74.184231 80C 73.184231 79 68.974731 78.7906 68.184231 78C 67.684331 77.5 68.184231 76.875 69.684231 76.5C 71.284231 76.1 74.184331 76.5 74.184331 76.5C 74.184331 76.5 74.184331 75 73.684331 74C 72.968731 72.5689 72.350931 71.6667 71.684231 71C 66.884231 75 59.684231 76.6667 56.684231 77C 58.684331 79.5 62.850931 83.8333 64.184231 86C 67.184331 86.5 69.884331 85 70.684331 85C 71.684331 85 70.948831 87.1177 69.184231 88C 68.184331 88.5 66.184231 89 64.684331 89C 64.850931 90 64.684331 91.5 66.184231 92.5C 67.360931 93.2845 73.184231 94 74.684231 94C 75.884231 94 75.684331 95.5 75.184231 96C 74.684131 96.5 72.684331 96.5 71.184331 96.5C 68.634831 96.5 64.244931 95.3536 63.184331 95C 61.684331 94.5 59.684331 95 60.184331 96.5C 60.350931 97 62.184331 97 64.684331 98C 66.684331 98.8 69.184131 99.5 69.184231 100.5C 69.184331 101.5 68.884231 102 67.684231 102C 66.184231 102 64.684231 101 63.184231 100C 61.684231 99 60.684231 100 57.684231 100C 54.684231 100 49.184231 99.5 41.184231 97C 33.184231 94.5 27.684231 89 22.184231 84.5C 16.684231 80 16.184231 78.5 16.184231 76.5C 16.184231 74.5 19.684231 73 19.684231 73C 19.684231 73 19.184131 70.5 19.184231 70C 19.184331 69.5 18.019031 70.9 15.358131 72.5C 12.031931 74.5 10.684231 73 10.184231 72C 9.434231 70.5 11.184231 68.5 11.684231 65C 12.184231 61.5 12.684331 55 14.684231 53C 16.451931 51.2322 19.184231 51.5 20.684231 51C 23.367531 50.1056 26.684331 49.5 29.184231 46.5C 31.208631 44.0706 33.684231 39 36.684231 37.5C 39.684231 36 44.184231 34.5 50.684231 32C 57.184231 29.5 59.684231 27.5 62.184231 26C 64.684231 24.5 68.684231 20 70.684231 18.5C 72.017531 17.5 73.684331 15.5 74.684231 13.5C 75.888331 11.0916 77.684331 10 81.684231 10L 87.684231 10C 90.684231 10 94.684331 10 97.684331 11.5ZM 99.184331 18.5C 98.184331 21.8333 94.792731 26.6529 93.684431 28.5C 90.684331 33.5 91.184231 33.5 90.184331 36.5C 89.647731 38.11 87.184431 40.3333 85.684431 41M 20.684231 51C 20.684231 51 18.684431 53 18.684431 59.5C 18.684431 66 15.043731 71.0365 13.377031 73.3699M 64.184231 86C 64.850931 88.1667 64.084331 92.5 57.684331 92.5C 49.684331 92.5 44.684431 89.5 39.184431 86C 33.684431 82.5 30.684431 81 26.684431 80C 23.484431 79.2 21.017831 79 20.184431 79M 56.684231 77C 54.684231 74.3333 49.084431 68.3 44.684431 67.5C 39.184431 66.5 34.684331 67 30.184431 68.5C 23.476231 70.7362 20.684231 72.8333 19.684231 73C 24.517531 73 36.084431 73.2 41.684431 74C 47.284431 74.8 51.351131 79 52.684431 81M 71.684231 71C 69.684231 68.6667 67.017231 62.9477 68.184431 57.5C 69.684331 50.5 72.184431 48 76.184431 47C 80.184431 46 81.970231 49.5 80.684431 54C 79.684431 57.5 79.184431 59.5 79.184431 62.5C 79.184431 64.9 79.850931 66 80.184331 66.5M 22.684331 64.5C 27.184331 60 27.784431 54.5 30.184431 50.5C 33.184431 45.5 36.184331 41 43.184331 38.5C 48.784331 36.5 54.158131 30.8333 56.324831 29.5"></path>
</g>
</g>
<g id="cp_4_g-4_1lpwcw8ck9gjz-stroke" fill="none" stroke-linecap="round" stroke-linejoin="round" stroke-miterlimit="4" stroke="#484848" stroke-width="2" stroke-opacity="1.0">
<g>
<path d="M 86.492157 23.4095C 87.340557 25.3502 89.681357 26.0685 91.720457 25.0139C 93.759557 23.9594 94.724857 21.5312 93.876557 19.5905C 93.028157 17.6498 90.687357 16.9315 88.648257 17.9861C 86.609157 19.0406 85.643857 21.4688 86.492157 23.4095Z"></path>
</g>
</g>
</g>
<g id="g-root-cp_3_g-3_1cu9cncck9hc5-stroke" data-item-order="-250542" transform="translate(393.0, 145.0)">
<g id="cp_3_g-3_1cu9cncck9hc5-stroke" fill="none" stroke-linecap="round" stroke-linejoin="round" stroke-miterlimit="4" stroke="#484848" stroke-width="2" stroke-opacity="1.0">
<g>
<path d="M 90.064889 17.083008C 89.264889 19.883008 91.573889 21.996208 92.740589 22.662908C 92.740589 22.662908 91.478789 23.559208 90.637989 24.115908C 89.797289 24.672508 88.413389 25.523408 88.413389 25.523408C 86.413489 24.523408 84.405989 19.385708 85.534689 15.999908C 86.534689 13.000008 89.642689 10.000008 93.034689 10.000008C 94.343089 10.000008 95.034689 11.500008 93.564989 12.583008C 92.095289 13.666108 90.864889 14.283008 90.064889 17.083008ZM 94.034689 58.500008C 93.634689 54.500008 97.309889 49.486308 98.809889 47.319708C 98.809889 47.319708 96.655389 47.193708 95.534689 47.041708C 94.343789 46.880208 93.034689 46.880208 93.034689 46.880208C 92.034689 49.713508 90.234689 55.100008 89.034689 57.500008C 87.034689 61.500008 90.534689 61.500008 93.534689 66.000008C 95.360689 68.739108 97.467489 66.365608 96.534689 64.500008C 95.534689 62.500008 94.303589 61.189208 94.034689 58.500008ZM 116.034689 25.541608C 113.034689 19.500008 101.034689 19.041608 95.534689 21.041608C 92.034689 22.541608 88.034689 27.041708 83.534689 27.041708C 79.034689 27.041708 77.034689 29.041708 75.034689 32.041708C 73.034689 35.041708 65.034689 38.685208 65.034689 38.685208C 65.034689 38.685208 50.534689 45.541708 37.534689 53.041708C 27.134689 59.041708 18.258489 64.999908 12.534689 71.041708C 9.534689 74.208308 6.734689 78.641708 19.534689 71.041708C 35.534689 61.541708 48.534689 57.041708 58.034689 53.041708C 67.534689 49.041708 70.534689 47.041708 79.034689 48.541708C 87.534689 50.041708 86.534689 46.041708 95.534689 47.041708C 104.534689 48.041708 104.034689 46.541708 107.034689 44.041708C 110.034689 41.541708 119.735689 32.995008 116.034689 25.541608ZM 77.034789 64.541608L 77.034789 48.240808C 77.034789 48.240808 75.465689 48.090208 73.750189 48.045108C 72.034689 47.999908 70.534689 48.356808 70.534689 48.356808C 70.534689 51.690108 71.034689 59.499908 69.534689 60.541608C 68.350089 61.364308 63.034589 58.333208 60.034689 56.499908C 59.367989 61.333208 57.534489 69.958108 59.534689 75.499908C 61.206389 80.131808 64.534689 79.499908 64.034789 76.541608C 63.013889 70.499908 63.034689 66.499908 64.034789 63.541608C 64.034789 63.541608 66.134789 64.741608 70.534789 67.541608C 74.934789 70.341608 77.034789 66.999908 77.034789 64.541608ZM 70.534789 27.541708C 71.034789 29.208408 70.534689 35.747908 70.534689 35.747908L 56.837289 42.709408C 49.993589 41.008808 43.034689 38.685208 38.534689 33.499908C 35.911689 30.477408 38.034689 28.499908 41.034789 30.041608L 58.534789 38.541608C 60.034789 35.875008 63.634789 29.741708 66.034789 26.541708C 68.434789 23.341708 70.034789 25.875108 70.534789 27.541708Z"></path>
</g>
</g>
<g id="cp_3_g-3_1cu9cncck9hc5-stroke" fill="none" stroke-linecap="round" stroke-linejoin="round" stroke-miterlimit="4" stroke="#484848" stroke-width="2" stroke-opacity="1.0">
<g>
<path d="M 115.534657 34.000008C 115.534657 35.104608 114.415357 36.000008 113.034657 36.000008C 111.653957 36.000008 110.534657 35.104608 110.534657 34.000008C 110.534657 32.895408 111.653957 32.000008 113.034657 32.000008C 114.415357 32.000008 115.534657 32.895408 115.534657 34.000008Z"></path>
</g>
</g>
<g id="cp_3_g-3_1cu9cncck9hc5-stroke" fill="none" stroke-linecap="round" stroke-linejoin="round" stroke-miterlimit="4" stroke="#484848" stroke-width="2" stroke-opacity="1.0">
<g>
<path d="M 110.388666 22.356336C 110.572766 23.105336 109.710066 23.961236 108.461666 24.268136C 107.213366 24.574936 106.052166 24.216536 105.868066 23.467536C 105.683866 22.718536 106.546666 21.862536 107.794966 21.555736C 109.043266 21.248836 110.204566 21.607336 110.388666 22.356336Z"></path>
</g>
</g>
</g>
<g id="g-root-cp_2_g-2_zisua0ck9hxm-stroke" data-item-order="-250534" transform="translate(244.0, 168.0)">
<g id="cp_2_g-2_zisua0ck9hxm-stroke" fill="none" stroke-linecap="round" stroke-linejoin="round" stroke-miterlimit="4" stroke="#484848" stroke-width="2" stroke-opacity="1.0">
<g>
<path d="M 43.7925 19.697959C 42.978 19.236759 41.9967 18.746159 41.5056 18.500559C 38.5056 17.000559 31.9657 16.397659 27.0047 17.500059C 22.5047 18.500059 17.9854 20.658959 15.5047 25.000159C 13.5047 28.500159 13.5047 32.500159 13.5047 32.500159C 20.0048 23.000159 27.0047 21.500059 33.0047 22.000059C 39.6856 22.556759 44.678 25.084959 46.8998 27.389159C 47.0356 27.542959 47.1765 27.694459 47.3225 27.843459C 47.3511 27.898559 47.3797 27.952859 47.4083 28.006459C 44.6587 26.400559 35.5047 23.500059 28.0047 26.000059C 20.5047 28.500059 15.0047 34.500059 11.8616 43.463759C 11.8616 43.463759 9.8343 36.763559 10.0109 30.441559C 10.1506 25.443559 12.68 18.563659 21.0047 15.000059C 25.6286 13.091959 35 12.166659 40 15.499859C 42 16.833159 43.2145 18.532959 43.7925 19.697959Z"></path>
</g>
</g>
<g id="cp_2_g-2_zisua0ck9hxm-stroke" fill="none" stroke-linecap="round" stroke-linejoin="round" stroke-miterlimit="4" stroke="#484848" stroke-width="2" stroke-opacity="1.0">
<g>
<path d="M 61.504683 33C 70.893583 33 78.504683 27.8513 78.504683 21.5C 78.504683 15.1487 70.893583 10 61.504683 10C 52.767683 10 45.570183 14.4586 44.612783 20.1958C 43.794583 19.6449 42.183483 18.8394 41.505683 18.5005C 38.505683 17.0005 31.965783 16.3976 27.004883 17.5C 22.504883 18.5 17.985583 20.6589 15.504883 25.0001C 13.504883 28.5001 13.504883 32.5001 13.504883 32.5001C 20.004883 23.0001 27.004883 21.5 33.004883 22C 39.685683 22.5567 44.678183 25.0849 46.899883 27.3891C 49.867383 30.7496 55.297583 33 61.504683 33Z"></path>
</g>
</g>
<g id="cp_2_g-2_zisua0ck9hxm-stroke" fill="none" stroke-linecap="round" stroke-linejoin="round" stroke-miterlimit="4" stroke="#484848" stroke-width="2" stroke-opacity="1.0">
<g>
<path d="M 73 18C 73 19.1046 72.1046 20 71 20C 69.8954 20 69 19.1046 69 18C 69 16.8954 69.8954 16 71 16C 72.1046 16 73 16.8954 73 18Z"></path>
</g>
</g>
</g>
<g id="g-root-cp_1_g-1_m7cbwock9iq0-stroke" data-item-order="-250526" transform="translate(80.0, 150.0)">
<g id="cp_1_g-1_m7cbwock9iq0-stroke" fill="none" stroke-linecap="round" stroke-linejoin="round" stroke-miterlimit="4" stroke="#484848" stroke-width="2" stroke-opacity="1.0">
<g>
<path d="M 22.955 48.9611C 22.6399 48.9869 22.3215 49.0001 22 49.0001C 18.837 49.0001 15.9598 47.7253 13.816 45.6421C 11.5076 47.2714 10 49.9597 10 53.0001C 10 57.9706 14.0294 62.0001 19 62.0001C 21.3051 62.0001 23.4077 61.1335 25 59.7084C 23.1588 58.0604 22 55.6656 22 53.0001C 22 51.5477 22.344 50.1757 22.955 48.9611ZM 53 45.5C 53 52.4036 47.6274 58 41 58C 34.3726 58 29 52.4036 29 45.5C 29 38.5964 34.3726 33 41 33C 47.6274 33 53 38.5964 53 45.5ZM 57 44C 61.9706 44 66 39.9706 66 35C 66 30.0294 61.9706 26 57 26C 52.0294 26 48 30.0294 48 35C 48 35.1175 48.0023 35.2345 48.0067 35.351C 50.3945 37.1428 52.1244 39.8265 52.7468 42.9336C 54.0134 43.614 55.4616 44 57 44ZM 51.5 27.8756C 51.0122 27.9574 50.5111 28 50 28C 49.8263 28 49.6538 27.9951 49.4826 27.9854C 48.298 24.6522 45.2045 22.2236 41.5173 22.0146C 41.1823 21.0722 41 20.0574 41 19C 41 14.0294 45.0294 10 50 10C 54.9706 10 59 14.0294 59 19C 59 21.8993 57.629 24.4784 55.5 26.1244C 54.0108 26.3743 52.6456 26.9898 51.5 27.8756ZM 62.6304 42.0217C 61.0887 43.2595 59.1309 44 57 44C 56.7881 44 56.5779 43.9927 56.3696 43.9783C 54.3152 45.6277 53 48.1603 53 51C 53 55.9706 57.0294 60 62 60C 66.9706 60 71 55.9706 71 51C 71 46.2413 67.3068 42.3453 62.6304 42.0217ZM 33.9526 35.3816C 30.9513 37.6538 29 41.3395 29 45.5C 29 45.8769 29.016 46.25 29.0474 46.6184C 27.0686 48.1164 24.6333 49.0001 22 49.0001C 15.3726 49.0001 10 43.4036 10 36.5C 10 29.5964 15.3726 24 22 24C 28.2656 24 33.4096 29.002 33.9526 35.3816ZM 48.0067 35.351C 46.0353 33.8715 43.6153 33 41 33C 38.3666 33 35.9314 33.8835 33.9526 35.3816C 33.7764 33.3111 33.1154 31.3858 32.0889 29.7294C 32.7062 25.3605 36.4606 22 40.9999 22C 45.4594 22 49.1614 25.2435 49.8755 29.5001C 48.6996 31.021 48 32.9288 48 35C 48 35.1175 48.0023 35.2345 48.0067 35.351ZM 32.0889 29.7294C 32.5625 26.3782 34.8818 23.6202 37.9854 22.5173C 37.9951 22.3461 38 22.1736 38 22C 38 17.0294 33.9706 13 29 13C 24.0294 13 20 17.0294 20 22C 20 22.7343 20.0879 23.4481 20.2539 24.1314C 20.8239 24.0448 21.4069 24 22 24C 26.232 24 29.9524 26.2822 32.0889 29.7294ZM 38.6406 57.7585C 33.143 56.6168 29 51.5623 29 45.5C 29 45.0641 29.0214 44.6334 29.0632 44.209C 25.0235 45.0949 22 48.6944 22 53.0001C 22 57.9706 26.0294 62.0001 31 62.0001C 34.2234 62.0001 37.0511 60.3055 38.6406 57.7585ZM 38.6044 57.751C 38.2141 58.7588 38 59.8545 38 61.0001C 38 65.9707 42.0294 70.0001 47 70.0001C 51.9706 70.0001 56 65.9707 56 61.0001C 56 57.3622 53.8416 54.2285 50.7356 52.8096C 48.5562 55.9538 45.0075 58 41 58C 40.1796 58 39.3785 57.9143 38.6044 57.751Z"></path>
</g>
</g>
<g id="cp_1_g-1_m7cbwock9iq0-stroke" fill="none" stroke-linecap="round" stroke-linejoin="round" stroke-miterlimit="4" stroke="#484848" stroke-width="2" stroke-opacity="1.0">
<g>
<path d="M 17.633574 41.862524C 16.320874 42.290424 14.771074 41.147524 14.171974 39.309624C 13.572974 37.471824 14.151474 35.635124 15.464174 35.207224C 16.776974 34.779324 18.326774 35.922224 18.925774 37.760124C 19.524874 39.597924 18.946374 41.434624 17.633574 41.862524ZM 17.339774 57.695524C 16.427374 58.219624 15.087774 57.661524 14.347774 56.449024C 13.607774 55.236624 13.747574 53.828824 14.660074 53.304724C 15.572474 52.780624 16.912074 53.338624 17.652074 54.551124C 18.392074 55.763624 18.252274 57.171424 17.339774 57.695524ZM 28.750674 58.091824C 27.866474 58.599724 26.568474 58.059024 25.851374 56.884124C 25.134374 55.709224 25.269774 54.345024 26.153974 53.837224C 27.038174 53.329324 28.336174 53.870124 29.053274 55.045024C 29.770274 56.219824 29.634774 57.584024 28.750674 58.091824ZM 43.376774 51.430224C 44.689574 51.858124 46.239374 50.715124 46.838374 48.877324C 47.437474 47.039424 46.858974 45.202724 45.546174 44.774824C 44.233474 44.346924 42.683674 45.489924 42.084574 47.327724C 41.485474 49.165524 42.064074 51.002324 43.376774 51.430224ZM 60.320174 34.333024C 61.083474 33.665824 60.945174 32.258724 60.011274 31.190024C 59.077374 30.121224 57.701374 29.795724 56.937974 30.462824C 56.174674 31.129924 56.312874 32.537024 57.246874 33.605824C 58.180774 34.674524 59.556774 35.000124 60.320174 34.333024ZM 53.022474 17.076624C 53.407574 16.138824 52.655374 14.941624 51.342474 14.402424C 50.029574 13.863324 48.653074 14.186524 48.267974 15.124324C 47.882874 16.062124 48.634974 17.259424 49.947874 17.798524C 51.260874 18.337624 52.637374 18.014424 53.022474 17.076624ZM 30.487674 17.048624C 30.069274 16.125224 28.682074 15.851524 27.389374 16.437224C 26.096574 17.023024 25.387674 18.246424 25.806074 19.169824C 26.224474 20.093224 27.611674 20.367024 28.904474 19.781224C 30.197274 19.195524 30.906074 17.972124 30.487674 17.048624ZM 43.432174 27.383524C 43.428874 26.462024 42.380274 25.718724 41.090074 25.723324C 39.799874 25.728024 38.756674 26.478824 38.760074 27.400424C 38.763374 28.322024 39.811974 29.065324 41.102174 29.060624C 42.392374 29.055924 43.435574 28.305124 43.432174 27.383524ZM 48.893674 64.433524C 49.004874 63.518724 48.056874 62.650824 46.776074 62.495124C 45.495374 62.339324 44.366874 62.954624 44.255574 63.869424C 44.144374 64.784324 45.092374 65.652224 46.373174 65.807924C 47.653874 65.963724 48.782374 65.348424 48.893674 64.433524ZM 63.098374 55.071724C 63.941574 55.634524 65.263874 55.133724 66.051774 53.953224C 66.839674 52.772724 66.794874 51.359424 65.951574 50.796624C 65.108374 50.233924 63.786074 50.734624 62.998174 51.915124C 62.210274 53.095724 62.255174 54.508924 63.098374 55.071724Z"></path>
</g>
</g>
</g>
<g id="g-root-cp_-1_line_1q5pv0ock9j41-stroke" data-item-order="-250517" transform="translate(174.0, 175.5)">
<g id="cp_-1_line_1q5pv0ock9j41-stroke" fill="none" stroke-linecap="round" stroke-linejoin="round" stroke-miterlimit="4" stroke="#484848" stroke-width="2" stroke-opacity="1.0">
<g>
<path d="M 10 16.5L 45 16.5M 38.499999 10.000002L 45 16.500001L 38.5 23.000001"></path>
</g>
</g>
</g>
<g id="g-root-cp_-1_line_2_1uljd54ck9jbh-stroke" data-item-order="-250511" transform="translate(349.0, 175.5)">
<g id="cp_-1_line_2_1uljd54ck9jbh-stroke" fill="none" stroke-linecap="round" stroke-linejoin="round" stroke-miterlimit="4" stroke="#484848" stroke-width="2" stroke-opacity="1.0">
<g>
<path d="M 10 16.5L 45 16.5M 38.499999 10.000002L 45 16.500001L 38.5 23.000001"></path>
</g>
</g>
</g>
<g id="g-root-cp_-1_line_4_4gosi0ck9gjw-stroke" data-item-order="-250505" transform="translate(514.0, 175.5)">
<g id="cp_-1_line_4_4gosi0ck9gjw-stroke" fill="none" stroke-linecap="round" stroke-linejoin="round" stroke-miterlimit="4" stroke="#484848" stroke-width="2" stroke-opacity="1.0">
<g>
<path d="M 10 16.5L 45 16.5M 38.499999 10.000002L 45 16.500001L 38.5 23.000001"></path>
</g>
</g>
</g>
<g id="g-root-tx_datatoin_18f2bm0ck9h4y-stroke" data-item-order="0" transform="translate(266.0, 38.0)"></g>
<g id="g-root-tx_rawdata_1hapbuwck9hjf-stroke" data-item-order="0" transform="translate(62.0, 278.0)"></g>
<g id="g-root-tx_unproces_vadkck9hxj-stroke" data-item-order="0" transform="translate(62.0, 314.0)"></g>
<g id="g-root-tx_centralp_qnsb48ck9i4r-stroke" data-item-order="0" transform="translate(224.0, 278.0)"></g>
<g id="g-root-tx_dataente_13z8thkck9ibk-stroke" data-item-order="0" transform="translate(206.0, 338.0)"></g>
<g id="g-root-tx_transfor_1q6cc3sck9iiz-stroke" data-item-order="0" transform="translate(374.0, 278.0)"></g>
<g id="g-root-tx_wordsand_1um5u88ck9iq0-stroke" data-item-order="0" transform="translate(374.0, 314.0)"></g>
<g id="g-root-tx_intellig_v3lt8ock9j49-stroke" data-item-order="0" transform="translate(560.0, 278.0)"></g>
<g id="g-root-tx_meaningf_18f2bm0ck9jb4-stroke" data-item-order="0" transform="translate(554.0, 338.0)"></g>
</g>
</g>
<path id="wdg2n9kckf3t7" d="M65.283 12.757a.35.35 0 0 0 .584.157l5.203-5.141-6.183 3.523.396 1.461zm-2.216-11.7a.35.35 0 0 0-.522.305v3.111l3.276-1.868-2.754-1.548zm3.728 2.105l-4.25 2.421v2.445l6.391-3.644-2.141-1.222zm4.708 3.303a.35.35 0 0 0 0-.609l-1.592-.9-7.365 4.199v1.782a.35.35 0 0 0 .523.305l8.435-4.777z M44.542 2.513c0-.433.355-.783.792-.783s.792.35.792.783-.355.783-.792.783-.792-.35-.792-.783zm59.171 0c0-.433.355-.783.792-.783s.792.35.792.783-.355.783-.792.783-.792-.35-.792-.783zm-85.951 7.636h-1.27v-.487c-.276.201-.864.609-1.881.609-1.202 0-2.274-.794-2.137-2.078.118-1.106 1.153-1.584 1.848-1.727l2.17-.345c0-.539-.29-.956-1.064-1.006s-1.21.305-1.571 1.017l-1.124-.605c1.218-2.631 5.029-1.764 5.029.414v4.207zm-1.27-2.86c.006.396-.062 1.112-.819 1.59-.587.37-1.841.299-1.903-.395-.049-.555.461-.791.906-.898l1.816-.297zm72.662 2.86h-1.27v-.487c-.276.201-.864.609-1.881.609-1.202 0-2.274-.794-2.137-2.078.118-1.106 1.153-1.584 1.848-1.727l2.17-.345c0-.539-.29-.956-1.064-1.006s-1.21.305-1.571 1.017l-1.124-.605c1.218-2.631 5.029-1.764 5.029.414v4.207zm-1.27-2.86c.006.396-.062 1.112-.82 1.59-.587.37-1.841.299-1.903-.395-.049-.555.461-.791.906-.898l1.816-.297zM99.096 10.149H97.85v-8.45h1.246v4.895l2.68-2.559h1.738l-2.633 2.535 2.715 3.578h-1.556l-2.077-2.707-.867.844v1.863zm6.053-6.114h-1.255v6.113h1.255V4.035zm-59.2 0h-1.255v6.113h1.255V4.035zm5.584 6.113V1.697h1.255v2.695c.361-.346 1-.485 1.47-.485 1.452 0 2.477 1.082 2.457 2.448v3.792h-1.27v-3.68c0-.408-.214-1.339-1.315-1.339-.968 0-1.342.756-1.342 1.339v3.681h-1.255zm-4.76-4.894V4.039h.621a.45.45 0 0 0 .45-.45v-.855h1.251v1.305h1.309v1.215h-1.309v3.109c0 .293.105.664.648.664.365 0 .531-.035.736-.07v1.137s-.361.113-.857.113c-1.398 0-1.777-1.051-1.777-1.788V5.254h-1.071zM36.528 4.039h-1.394l2.191 6.106h1.125l1.234-3.918 1.238 3.918h1.129l2.188-6.106h-1.383l-1.359 3.93-1.256-3.93h-1.124l-1.242 3.957-1.348-3.957zM26.212 7.141c-.02 1.566 1.187 3.129 3.223 3.129 1.566 0 2.383-.918 2.734-1.719L31.172 8c-.315.399-.801 1.094-1.738 1.094-1.145 0-1.825-.781-1.891-1.52h4.625c.074-.284.148-.995-.03-1.559-.336-1.064-1.221-2.102-2.839-2.102s-3.088 1.152-3.088 3.227zm1.363-.75h3.348c-.055-.43-.566-1.301-1.623-1.301a1.79 1.79 0 0 0-1.725 1.301zm-8.758.75c.038 1.758 1.277 3.133 3.145 3.133 1.074 0 1.723-.477 1.961-.672v.547h1.242V1.703h-1.258v2.888c-.414-.36-1.062-.68-1.93-.68-1.91 0-3.198 1.473-3.16 3.23zm1.309-.08c0 1.119.723 1.978 1.836 1.978a1.88 1.88 0 0 0 1.94-1.904c0-1.371-1.011-1.99-1.972-1.99s-1.805.798-1.805 1.916zm76.683-.028C96.771 5.275 95.532 3.9 93.664 3.9c-1.074 0-1.723.477-1.961.672v-.547h-1.242v8.22h1.258V9.583c.414.36 1.063.68 1.93.68 1.91 0 3.198-1.473 3.16-3.23zm-1.309.08c0-1.119-.723-1.978-1.836-1.978a1.88 1.88 0 0 0-1.94 1.904c0 1.371 1.011 1.99 1.972 1.99S95.5 8.231 95.5 7.113zM106.441 10.173V4.036h1.254v.382c.361-.346 1-.485 1.47-.485 1.452 0 2.477 1.082 2.457 2.448v3.792h-1.27V6.492c0-.408-.214-1.339-1.315-1.339-.969 0-1.342.756-1.342 1.339v3.681h-1.254zm-30.383-.021V1.824h1.084l4.215 5.777V1.824h1.32v8.328h-1.094l-4.207-5.796v5.796h-1.319zM5.24 10.149H4V2.377h1.014l2.664 3.597 2.654-3.592h1.03v7.766h-1.256V4.762L7.678 8.068 5.24 4.742v5.407z" transform="translate(20.0, 422.0)" fill="#80808088" stroke="none"></path>
</svg>