<?xml version="1.0" encoding="utf-8" standalone="yes"?>
<!DOCTYPE svg PUBLIC "-//W3C//DTD SVG 1.1//EN" "http://www.w3.org/Graphics/SVG/1.1/DTD/svg11.dtd">
<svg version="1.1" xmlns="http://www.w3.org/2000/svg" xmlns:xlink="http://www.w3.org/1999/xlink" width="912" height="624" viewBox="0 0 912 624" style="fill:none; stroke:none; fill-rule:evenodd; clip-rule:evenodd; stroke-linecap:round; stroke-linejoin:round; stroke-miterlimit:1.5;">
<style class="text-font-style fontImports" data-font-family="Roboto">
@import url(https://fonts.googleapis.com/css2?family=Roboto:wght@400;700&amp;display=block);
</style>
<style class="text-font-style">
@import url(https://app.napkin.ai/fonts/font-face.web.napkin-fallback.css);
@import url(https://app.napkin.ai/fonts/font-face.web.shantell-sans.css);
@import url(https://app.napkin.ai/fonts/font-face.web.roboto.css);
</style>
<g id="items" style="isolation:isolate;">
<g id="blend" style="mix-blend-mode:normal;">
<g id="g-root-cp_5_g-5_4hbyvccubwg1-fill" data-item-order="-456184" transform="translate(744.0, 182.4609375)">
<g id="cp_5_g-5_4hbyvccubwg1-fill-merged" stroke="none" fill="url(#gradient-d98afd-356709479)" fill-opacity="1.0">
<g>
<path d="M46.337 90.876C44.891 85.597 40.3 75.039 33.5 75.039C25 75.039 22 76.04 20 82.539C18 89.039 26.5 93.539 29 93.539C31.5 93.539 36.674 95.213 46.337 90.876 M46.337 90.876C45.716 94.539 45.226 98.48 44.843 102.539 M44.843 102.539C47.062 98.039 53 89.039 59 89.039C66.5 89.039 70.518 92.539 72 97.539C73.482 102.539 67.27 108.039 61.635 108.039C57.127 108.039 48.562 104.372 44.843 102.539 M13.5 151.038C15 149.538 19.4 146.538 25 146.538C32 146.538 37 145.038 41.5 143.538C43.279 142.946 45.838 142.665 48.5 142.574C52.572 142.434 56.883 142.736 59 143.038C60.815 143.298 63.167 144.095 65.5 144.802C67.666 145.459 69.815 146.038 71.5 146.038C75 146.038 83 147.538 83.5 151.038 H13.5 M99.5 77.039C100.667 78.539 103.7 81.439 106.5 81.039C108.1 80.639 106.5 75.539 105.5 73.039C107.833 73.705 113.3 74.639 116.5 73.039C117.5 71.039 111 67.539 106.5 67.039C108.333 65.872 111.9 62.639 111.5 59.039C111.5 58.039 106.5 57.539 103 61.539C103.5 58.205 104 50.939 102 48.539C99.5 48.539 96.5 52.539 96.5 58.039C95 56.539 91.4 53.639 89 54.039C87.8 54.839 89.167 59.372 90 61.539C86.5 61.039 79.4 60.539 79 62.539C78.5 65.039 85 68.539 88.5 68.539C86.667 70.539 83.3 74.939 84.5 76.539C85.7 78.139 90.333 76.206 92.5 75.039C92.167 78.372 92.1 85.339 94.5 86.539C96.9 87.739 98.833 80.705 99.5 77.039 M65.616 131.039C66.411 127.039 67.3 118.439 64.5 116.039C61 113.039 56.5 108.039 51.5 112.039C47.5 115.239 49.167 122.372 50.5 125.539C52.078 127.372 57.31 131.039 65.616 131.039 M73.482 114.539C74.488 118.039 78 125.839 84 129.039C90 132.239 96.167 128.705 98.5 126.539C99.667 123.539 100.5 116.739 94.5 113.539C88.5 110.339 77.988 112.872 73.482 114.539 M93.345 96.539C95.563 93.872 101.3 88.639 106.5 89.039C111.7 89.439 115.333 92.205 116.5 93.539C118 96.539 119.3 103.039 112.5 105.039C105.7 107.039 100.333 104.205 98.5 102.539L93.345 96.539 M82.5 105.297C79.488 103.13 72.667 96.639 73.482 89.039C74.296 81.439 79.833 80.539 82.5 81.039C85.333 81.872 90.8 84.839 90 90.039C89.2 95.239 85.667 101.539 84 104.039C83.67 104.311 83.336 104.588 83 104.872L82.5 105.297 M47.5 39.039C49.333 40.372 53.3 42.939 54.5 42.539C55.7 42.139 53.667 37.039 52.5 34.539C55.833 35.039 62.8 35.739 64 34.539C65.5 33.039 58 28.539 54.5 27.539C56.333 25.872 59.8 21.939 59 19.539C58.2 18.339 52.667 20.372 50 21.539C50.5 18.039 51.1 10.838 49.5 10.038C48 9.538 44 14.038 43 20.038C41.5 18.205 38 14.639 36 15.039C34 15.439 35.833 20.539 37 23.039C33.833 22.706 27.3 22.539 26.5 24.539C25.5 27.039 34 29.539 36 30.039C34.333 31.872 31.1 36.139 31.5 38.539C32.3 39.739 38.167 36.706 41 35.039C40.5 38.539 39.9 46.039 41.5 48.039C43.1 50.039 46.167 42.872 47.5 39.039 M49.388 73.539C51.092 69.206 56.3 60.439 63.5 60.039C72.5 59.539 75.5 62.539 76.5 65.539C77.5 68.539 75 77.039 67.5 77.539C61.5 77.939 52.925 75.039 49.388 73.539 M49.921 61.039C47.78 57.039 41.8 49.039 35 49.039C28.2 49.039 24.5 54.706 23.5 57.539C23 60.851 24.1 67.687 32.5 68.539C40.9 69.392 47.62 64.894 49.93 62.539C49.93 62.035 49.927 61.535 49.921 61.039"></path>
</g>
</g>
<g id="cp_5_g-5_4hbyvccubwg1-fill-merged" stroke="none" fill="url(#gradient-d98afd-356709479)" fill-opacity="1.0">
<g>
<path d="M18 213.539C17.833 216.372 18.2 222.739 21 225.539 H75C78 223.039 78 217.139 78 213.539 H75L79 185.789L79.613 181.539L83 158.039 H85L86 151.039 H10L11 158.039 H13L16.387 181.539L17 185.789L21 213.539 H18"></path>
</g>
</g>
</g>
<g id="g-root-cp_4_g-4_8x5gzscubx8g-fill" data-item-order="-456174" transform="translate(576.0, 198.9609375)">
<g id="cp_4_g-4_8x5gzscubx8g-fill-merged" stroke="none" fill="url(#gradient-fb85cc-419033426)" fill-opacity="1.0">
<g>
<path d="M13.5 134.538C15 133.038 19.4 130.038 25 130.038C32 130.038 37 128.538 41.5 127.038C43.279 126.446 45.838 126.165 48.5 126.074C52.572 125.934 56.883 126.236 59 126.538C60.815 126.798 63.167 127.595 65.5 128.302C67.666 128.959 69.815 129.538 71.5 129.538C75 129.538 83 131.038 83.5 134.538 H13.5 M52.5 39.039C54.333 40.372 58.3 42.939 59.5 42.539C60.7 42.139 58.667 37.039 57.5 34.539C60.833 35.039 67.8 35.739 69 34.539C70.5 33.039 63 28.539 59.5 27.539C61.333 25.872 64.8 21.939 64 19.539C63.2 18.339 57.667 20.372 55 21.539C55.5 18.039 56.1 10.838 54.5 10.038C53 9.538 49 14.038 48 20.038C46.5 18.205 43 14.639 41 15.039C39 15.439 40.833 20.539 42 23.039C38.833 22.706 32.3 22.539 31.5 24.539C30.5 27.039 39 29.539 41 30.039C39.333 31.872 36.1 36.139 36.5 38.539C37.3 39.739 43.167 36.706 46 35.039C45.5 38.539 44.9 46.039 46.5 48.039C48.1 50.039 51.167 42.872 52.5 39.039 M54.388 73.539C56.092 69.206 61.3 60.439 68.5 60.039C77.5 59.539 80.5 62.539 81.5 65.539C82.5 68.539 80 77.039 72.5 77.539C66.5 77.939 57.925 75.039 54.388 73.539 M54.921 61.039C52.78 57.039 46.8 49.039 40 49.039C33.2 49.039 29.5 54.706 28.5 57.539C28 60.851 29.1 67.687 37.5 68.539C45.9 69.392 52.62 64.894 54.93 62.539C54.93 62.035 54.927 61.535 54.921 61.039 M51.337 90.876C49.891 85.597 45.3 75.039 38.5 75.039C30 75.039 27 76.04 25 82.539C23 89.039 31.5 93.539 34 93.539C36.5 93.539 41.674 95.213 51.337 90.876 M49.843 102.539C52.062 98.039 58 89.039 64 89.039C71.5 89.039 75.518 92.539 77 97.539C78.482 102.539 72.27 108.039 66.635 108.039C62.127 108.039 53.562 104.372 49.843 102.539"></path>
</g>
</g>
<g id="cp_4_g-4_8x5gzscubx8g-fill-merged" stroke="none" fill="url(#gradient-fb85cc-419033426)" fill-opacity="1.0">
<g>
<path d="M18 197.039C17.833 199.872 18.2 206.239 21 209.039 H75C78 206.539 78 200.639 78 197.039 H75L79 169.289L79.613 165.039L83 141.539 H85L86 134.539 H10L11 141.539 H13L16.387 165.039L17 169.289L21 197.039 H18"></path>
</g>
</g>
</g>
<g id="g-root-cp_3_g-3_dcyz48cubxu3-fill" data-item-order="-456164" transform="translate(408.0, 246.65606689453125)">
<g id="cp_3_g-3_dcyz48cubxu3-fill-merged" stroke="none" fill="url(#gradient-fe8884-345532732)" fill-opacity="1.0">
<g>
<path d="M13.5 86.841C15 85.341 20.6 82.241 31 81.841C44 81.341 41.5 77.841 45.5 77.841C46.684 77.841 48.043 77.841 49.5 77.893C52.964 78.016 56.98 78.433 60.5 79.841C65.5 81.841 70.5 81.341 75.5 81.841C79.5 82.241 82.833 85.341 84 86.841 H13.5 M48.5 36.841C51.167 35.508 57.3 31.641 60.5 26.841C64.5 20.841 62.5 11.841 56 10.341C49.5 8.841 44.212 12.491 43 17.342C41.5 23.343 41 32.341 48.5 36.841 M62.5 50.341C61.667 48.008 61.2 42.041 66 36.841C70.8 31.641 77 32.008 79.5 32.841C82 34.508 86.3 39.141 83.5 44.341C80 50.841 75.5 51.841 71.5 51.841C68.3 51.841 64.167 50.841 62.5 50.341 M37 52.476C34.167 51.931 27.3 50.841 22.5 50.841C16.5 50.841 12.5 45.341 12 40.841C11.5 36.341 12 31.341 19.5 28.841C27 26.341 33.5 33.841 36 39.341C37.849 43.409 37.561 49.008 37.112 51.841C37.075 52.072 37.038 52.284 37 52.476"></path>
</g>
</g>
<g id="cp_3_g-3_dcyz48cubxu3-fill-merged" stroke="none" fill="url(#gradient-fe8884-345532732)" fill-opacity="1.0">
<g>
<path d="M18 149.344C17.833 152.177 18.2 158.544 21 161.344 H75C78 158.844 78 152.944 78 149.344 H75L79 121.594L79.613 117.344L83 93.844 H85L86 86.844 H10L11 93.844 H13L16.387 117.344L17 121.594L21 149.344 H18"></path>
</g>
</g>
</g>
<g id="g-root-cp_2_g-2_v4vgp4cubv2b-fill" data-item-order="-456154" transform="translate(240.0, 278.3590087890625)">
<g id="cp_2_g-2_v4vgp4cubv2b-fill-merged" stroke="none" fill="url(#gradient-fcaa5f-284141256)" fill-opacity="1.0">
<g>
<path d="M13.5 55.14C14.667 53.64 19.4 50.64 29 50.64C41 50.64 39.5 47.64 42.5 47.14C44.415 46.82 48.573 46.297 52.5 46.221C54.723 46.178 56.873 46.278 58.5 46.64C63 47.64 67 50.64 72 50.64C76 50.64 81 53.306 83 54.64L13.5 55.14 M54 35.64C55.5 32.14 64.5 30.14 66 23.14C67.5 16.14 65 11.14 60 10.14C55 9.14 48.962 13.636 48.5 19.64C48 26.141 49.5 31.638 54 35.64"></path>
</g>
</g>
<g id="cp_2_g-2_v4vgp4cubv2b-fill-merged" stroke="none" fill="url(#gradient-fcaa5f-284141256)" fill-opacity="1.0">
<g>
<path d="M18 117.641C17.833 120.474 18.2 126.841 21 129.641 H75C78 127.141 78 121.241 78 117.641 H75L79 89.891L79.613 85.641L83 62.141 H85L86 55.141 H10L11 62.141 H13L16.387 85.641L17 89.891L21 117.641 H18"></path>
</g>
</g>
</g>
<g id="g-root-cp_1_g-1_1q7lzk8cubv9r-fill" data-item-order="-456144" transform="translate(27.0, 214.5)">
<g id="cp_1_g-1_1q7lzk8cubv9r-fill-merged" stroke="none" fill="url(#gradient-ffeb37-9997561)" fill-opacity="1.0">
<g>
<path d="M57.5 119C59 117.166 64.3 113.6 73.5 114C82.7 114.4 89.333 117.5 91.5 119C90.833 115 90.5 106.6 94.5 105C95.386 104.646 96.223 104.546 97 104.628C99.731 104.916 101.721 107.443 102.5 109C103.5 111 105.7 115.8 106.5 119C107.667 117 112 113.2 120 114C128 114.8 130.333 117.666 130.5 119 H57.5 M89.5 101C91.667 101 96.1 99.6 96.5 94C97 87 98.5 86 98.5 83.5C98.5 81.871 97.651 79.818 95.125 79C93.773 78.562 91.94 78.477 89.5 79C83.9 80.2 82.5 89.5 82.5 94C82.5 96 83.9 100.2 89.5 101 M10 38.5C17.5 39.333 41.5 44 51 51C60.5 58 71 56 80.5 56.5C81.075 56.569 81.751 56.655 82.5 56.757C86 65.013 87.5 67 90 69.5C92 71.5 94.25 71.333 95.125 71C95.583 72.167 97.5 74.5 101.5 74.5C104.592 74.5 105.892 71.511 106.322 69C106.449 68.263 106.5 67.567 106.5 67C106.5 62.5 106.5 51.9 106.5 45.5C106.5 39.1 103.167 34.833 101.5 33.5C97.5 29 88.3 19.2 83.5 16C77.5 12 73.5 15 54.5 17C39.3 18.6 18 13 10 10 V38.5"></path>
</g>
</g>
<g id="cp_1_g-1_1q7lzk8cubv9r-fill-merged" stroke="none" fill="url(#gradient-ffeb37-9997561)" fill-opacity="1.0">
<g>
<path d="M63 181.5C62.833 184.333 63.2 190.7 66 193.5 H120C123 191 123 185.1 123 181.5 H120L124 153.75L124.613 149.5L128 126 H130L131 119 H55L56 126 H58L61.387 149.5L62 153.75L66 181.5 H63"></path>
</g>
</g>
</g>
<g id="g-root-cp_0_g-0_m98gg8cubvnn-fill" data-item-order="-456134" transform="translate(258.0000305175781, 124.00001525878906)">
<defs>
<linearGradient id="gradient-d98afd-356709479" x2="0" y2="1">
<stop offset="0" stop-color="#e4a9ff"></stop>
<stop offset="1" stop-color="#cd6afb"></stop>
</linearGradient>
<linearGradient id="gradient-fb85cc-419033426" x2="0" y2="1">
<stop offset="0" stop-color="#ffa1da"></stop>
<stop offset="1" stop-color="#f669be"></stop>
</linearGradient>
<linearGradient id="gradient-fe8884-345532732" x2="0" y2="1">
<stop offset="0" stop-color="#ffa6a3"></stop>
<stop offset="1" stop-color="#fd6a65"></stop>
</linearGradient>
<linearGradient id="gradient-fcaa5f-284141256" x2="0" y2="1">
<stop offset="0" stop-color="#ffbf84"></stop>
<stop offset="1" stop-color="#f99539"></stop>
</linearGradient>
<linearGradient id="gradient-ffeb37-9997561" x2="0" y2="1">
<stop offset="0" stop-color="#ffef63"></stop>
<stop offset="1" stop-color="#ffe60a"></stop>
</linearGradient>
<linearGradient id="gradient-cbcbcb-48637562" x2="0" y2="1">
<stop offset="0" stop-color="#d9d9d9"></stop>
<stop offset="1" stop-color="#bcbcbc"></stop>
</linearGradient>
</defs>
<g id="cp_0_g-0_m98gg8cubvnn-fill-merged" stroke="none" fill="url(#gradient-cbcbcb-48637562)" fill-opacity="1.0">
<g>
<path d="M13.227 182.945C17.226 187.745 17.727 193.445 16.227 195.445C15.227 196.945 12.227 197.444 10.727 195.445C8.69 192.73 11.393 186.112 13.227 182.945 M13.227 155.945C17.226 160.745 17.727 166.445 16.227 168.445C15.227 169.945 12.227 170.444 10.727 168.445C8.69 165.73 11.393 159.112 13.227 155.945 M21.727 134.445C25.726 139.245 26.226 144.945 24.726 146.945C23.726 148.444 20.727 148.944 19.227 146.945C17.19 144.23 19.893 137.612 21.727 134.445 M56.227 51.945C60.227 43.145 64.56 42.612 66.227 43.445L69.947 44.42C69.965 44.447 69.982 44.475 70 44.502L131 60.502L134.727 61.425L146.227 64.445L123.727 126.445L117.727 123.945L20.727 125.945L22.727 119.945L85.227 108.945L40.227 88.445C35.727 85.945 35.727 76.445 42.727 71.945C49.727 67.445 51.227 62.945 56.227 51.945"></path>
</g>
</g>
</g>
<g id="g-root-cp_0_g-0_1_140igy0cubvur-fill" data-item-order="-456127" transform="translate(142.0, 278.0)"></g>
<g id="g-root-tx_nlpproje_qp1ykocubwn8-fill" data-item-order="0" transform="translate(320.0, 38.0)">
<g id="tx_nlpproje_qp1ykocubwn8-fill-merged" stroke="none" fill="#484848" fill-opacity="1.0">
<g>
<text transform="translate(134.0, 13.0)" style="font-weight:bold; font-size:25px; font-family:'Roboto', napkin-fallback, sans-serif; white-space:pre;">
<tspan x="-118.56" y="30" dominant-baseline="ideographic">NLP Project Lifecycle</tspan>
</text>
</g>
</g>
</g>
<g id="g-root-tx_rawtextd_1lrshfscubx8k-fill" data-item-order="0" transform="translate(38.0, 446.0)">
<g id="tx_rawtextd_1lrshfscubx8k-fill-merged" stroke="none" fill="#e0cb15" fill-opacity="1.0">
<g>
<text transform="translate(80.0, 10.0)" style="font-weight:bold; font-size:20px; font-family:'Roboto', napkin-fallback, sans-serif; white-space:pre;">
<tspan x="-62.02" y="24" dominant-baseline="ideographic">Raw Text Data</tspan>
</text>
</g>
</g>
</g>
<g id="g-root-tx_unproces_1unfhoocubxfn-fill" data-item-order="0" transform="translate(44.0, 482.0)">
<g id="tx_unproces_1unfhoocubxfn-fill-merged" stroke="none" fill="#484848" fill-opacity="1.0">
<g>
<text transform="translate(74.0, 19.0)" style="font-size:15px; font-family:'Roboto', napkin-fallback, sans-serif; white-space:pre;">
<tspan x="-58.13" y="9" dominant-baseline="ideographic">Unprocessed text </tspan>
<tspan x="-36.5" y="27" dominant-baseline="ideographic">for analysis</tspan>
</text>
</g>
</g>
</g>
<g id="g-root-tx_handsonc_hteybscubxty-fill" data-item-order="0" transform="translate(224.0, 446.0)">
<g id="tx_handsonc_hteybscubxty-fill-merged" stroke="none" fill="#de8431" fill-opacity="1.0">
<g>
<text transform="translate(62.0, 22.0)" style="font-weight:bold; font-size:20px; font-family:'Roboto', napkin-fallback, sans-serif; white-space:pre;">
<tspan x="-45.67" y="12" dominant-baseline="ideographic">Hands-On </tspan>
<tspan x="-29.8" y="36" dominant-baseline="ideographic">Coding</tspan>
</text>
</g>
</g>
</g>
<g id="g-root-tx_building_ddlg7ccuby12-fill" data-item-order="0" transform="translate(206.0, 506.0)">
<g id="tx_building_ddlg7ccuby12-fill-merged" stroke="none" fill="#484848" fill-opacity="1.0">
<g>
<text transform="translate(80.0, 19.0)" style="font-size:15px; font-family:'Roboto', napkin-fallback, sans-serif; white-space:pre;">
<tspan x="-67.92" y="9" dominant-baseline="ideographic">Building and training </tspan>
<tspan x="-38.72" y="27" dominant-baseline="ideographic">NLP models</tspan>
</text>
</g>
</g>
</g>
<g id="g-root-tx_datavisu_m9uxjccubv2k-fill" data-item-order="0" transform="translate(380.0, 446.0)">
<g id="tx_datavisu_m9uxjccubv2k-fill-merged" stroke="none" fill="#e55753" fill-opacity="1.0">
<g>
<text transform="translate(74.0, 22.0)" style="font-weight:bold; font-size:20px; font-family:'Roboto', napkin-fallback, sans-serif; white-space:pre;">
<tspan x="-21.09" y="12" dominant-baseline="ideographic">Data </tspan>
<tspan x="-56.31" y="36" dominant-baseline="ideographic">Visualization</tspan>
</text>
</g>
</g>
</g>
<g id="g-root-tx_visualiz_de7xagcubv9g-fill" data-item-order="0" transform="translate(374.0, 506.0)">
<g id="tx_visualiz_de7xagcubv9g-fill-merged" stroke="none" fill="#484848" fill-opacity="1.0">
<g>
<text transform="translate(80.0, 19.0)" style="font-size:15px; font-family:'Roboto', napkin-fallback, sans-serif; white-space:pre;">
<tspan x="-58.8" y="9" dominant-baseline="ideographic">Visualizing model </tspan>
<tspan x="-63.06" y="27" dominant-baseline="ideographic">results and insights</tspan>
</text>
</g>
</g>
</g>
<g id="g-root-tx_projectr_m9uxjccubvgi-fill" data-item-order="0" transform="translate(566.0, 446.0)">
<g id="tx_projectr_m9uxjccubvgi-fill-merged" stroke="none" fill="#de58a9" fill-opacity="1.0">
<g>
<text transform="translate(56.0, 22.0)" style="font-weight:bold; font-size:20px; font-family:'Roboto', napkin-fallback, sans-serif; white-space:pre;">
<tspan x="-32.69" y="12" dominant-baseline="ideographic">Project </tspan>
<tspan x="-42.31" y="36" dominant-baseline="ideographic">Reporting</tspan>
</text>
</g>
</g>
</g>
<g id="g-root-tx_document_4ikx1kcubvnu-fill" data-item-order="0" transform="translate(542.0, 506.0)">
<g id="tx_document_4ikx1kcubvnu-fill-merged" stroke="none" fill="#484848" fill-opacity="1.0">
<g>
<text transform="translate(80.0, 31.0)" style="font-size:15px; font-family:'Roboto', napkin-fallback, sans-serif; white-space:pre;">
<tspan x="-44.44" y="0" dominant-baseline="ideographic">Documenting </tspan>
<tspan x="-65.73" y="18" dominant-baseline="ideographic">project process and </tspan>
<tspan x="-24.56" y="36" dominant-baseline="ideographic">findings</tspan>
</text>
</g>
</g>
</g>
<g id="g-root-tx_portfoli_hu1fewcubvut-fill" data-item-order="0" transform="translate(722.0, 446.0)">
<g id="tx_portfoli_hu1fewcubvut-fill-merged" stroke="none" fill="#ba5de5" fill-opacity="1.0">
<g>
<text transform="translate(68.0, 22.0)" style="font-weight:bold; font-size:20px; font-family:'Roboto', napkin-fallback, sans-serif; white-space:pre;">
<tspan x="-40.01" y="12" dominant-baseline="ideographic">Portfolio </tspan>
<tspan x="-55.59" y="36" dominant-baseline="ideographic">Presentation</tspan>
</text>
</g>
</g>
</g>
<g id="g-root-tx_showcasi_2rex4cubw27-fill" data-item-order="0" transform="translate(710.0, 506.0)">
<g id="tx_showcasi_2rex4cubw27-fill-merged" stroke="none" fill="#484848" fill-opacity="1.0">
<g>
<text transform="translate(80.0, 19.0)" style="font-size:15px; font-family:'Roboto', napkin-fallback, sans-serif; white-space:pre;">
<tspan x="-65.38" y="9" dominant-baseline="ideographic">Showcasing project </tspan>
<tspan x="-44.46" y="27" dominant-baseline="ideographic">achievements</tspan>
</text>
</g>
</g>
</g>
<g id="g-root-cp_5_g-5_4hbyvccubwg1-stroke" data-item-order="-456184" transform="translate(744.0, 182.4609375)">
<g id="cp_5_g-5_4hbyvccubwg1-stroke" fill="none" stroke-linecap="round" stroke-linejoin="round" stroke-miterlimit="4" stroke="#484848" stroke-width="2" stroke-opacity="1.0">
<g>
<path d="M 65.5 144.802061C 63.1674 144.094661 60.8148 143.297661 59 143.038461C 56.8834 142.736061 52.5724 142.433661 48.5 142.573661M 65.5 144.802061C 67.666 145.458861 69.8148 146.038461 71.5 146.038461C 75 146.038461 83 147.538461 83.5 151.038461L 13.5 151.038461C 15 149.538461 19.4 146.538461 25 146.538461C 32 146.538461 37 145.038461 41.5 143.538461C 43.2786 142.945561 45.8384 142.665161 48.5 142.573661M 65.5 144.802061C 66.1682 140.414861 63.1986 138.251761 65.6164 131.038661M 99.5 77.038661C 99.3333 78.538661 100 83.038661 98 90.038661C 97.3064 92.466361 95.6504 94.473161 93.3451 96.538661M 99.5 77.038661C 100.6667 78.538661 103.7 81.438661 106.5 81.038661C 108.1 80.638661 106.5 75.538661 105.5 73.038661M 99.5 77.038661C 98.8333 80.705461 96.9 87.739161 94.5 86.539161C 92.1 85.339161 92.1667 78.372461 92.5 75.039161M 99.5 77.038661C 99.6667 75.205461 99.7 70.939161 98.5 68.539161M 65.6164 131.038661C 66.4109 127.038661 67.3 118.438661 64.5 116.038661C 61 113.038661 56.5 108.038661 51.5 112.038661C 47.5 115.238661 49.1667 122.371961 50.5 125.538661C 52.0776 127.371961 57.3095 131.038661 65.6164 131.038661ZM 65.6164 131.038661C 64.598 130.038261 63.0669 128.383961 61.6348 126.538661M 65.6164 131.038661C 67.6224 125.053761 70.2394 119.034661 73.4817 114.538661M 58 120.038661C 58.3006 121.391161 59.139 122.974261 60.1858 124.538661M 61.6348 126.538661C 62.2116 125.038661 63.1922 121.638661 62.5 120.038661M 61.6348 126.538661C 61.1306 125.888961 60.6387 125.215561 60.1858 124.538661M 60.1858 124.538661C 59.2905 124.871961 57.2 125.338661 56 124.538661M 73.4817 114.538661C 74.1295 113.640361 74.8022 112.802861 75.5 112.038661C 78.0664 109.227861 80.6029 106.894961 83 104.872061M 73.4817 114.538661C 74.4878 118.038661 78 125.838661 84 129.038661C 90 132.238661 96.1667 128.705261 98.5 126.538661C 99.6667 123.538661 100.5 116.738661 94.5 113.538661C 88.5 110.338661 77.9878 112.871961 73.4817 114.538661ZM 73.4817 114.538661C 75.0995 115.547461 78.1728 117.203461 81.5 118.442361M 88 120.038661C 86.1046 119.892861 84.0171 119.344061 82 118.624661M 81.5 118.442361C 82.8333 117.307761 85.8 115.038661 87 115.038661M 81.5 118.442361C 81.6661 118.504261 81.8328 118.565061 82 118.624661M 82 118.624661C 82.3333 120.262661 83.4 123.738661 85 124.538661M 93.3451 96.538661C 95.5634 93.871961 101.3 88.638661 106.5 89.038661C 111.7 89.438661 115.3333 92.205261 116.5 93.538661C 118 96.538661 119.3 103.038661 112.5 105.038661C 105.7 107.038661 100.3333 104.205261 98.5 102.538661L 93.3451 96.538661ZM 93.3451 96.538661C 95.0769 96.457361 97.8195 96.360261 100.5 96.328461M 93.3451 96.538661C 90.8559 98.768861 87.6096 101.067661 84 104.038861M 107.5 96.538661C 106.1503 96.345861 103.6381 96.300161 101 96.323261M 101 96.323261L 105 92.538661M 101 96.323261C 100.8337 96.324761 100.667 96.326461 100.5 96.328461M 100.5 96.328461C 100.8333 97.731861 102.2 100.738661 105 101.538661M 84 104.038861C 85.6667 101.538761 89.2 95.238661 90 90.038661C 90.8 84.838661 85.3333 81.871961 82.5 81.038661C 79.8333 80.538661 74.2963 81.438661 73.4817 89.038661C 72.6671 96.638661 79.4878 103.130261 82.5 105.296861L 83 104.872061M 84 104.038861C 83.6696 104.310861 83.3362 104.588361 83 104.872061M 83 104.872061C 82.6389 103.367261 82.1408 100.753861 81.8873 98.038661M 82 91.538661C 81.6599 93.238961 81.6692 95.401161 81.8435 97.538661M 81.8435 97.538661C 83.229 97.038661 86 95.538661 86 93.538661M 81.8435 97.538661C 81.8571 97.705561 81.8717 97.872261 81.8873 98.038661M 81.8873 98.038661C 80.2582 96.538661 77.1 93.438661 77.5 93.038661M 105.5 73.038661C 107.8333 73.705261 113.3 74.638661 116.5 73.038661C 117.5 71.038661 111 67.538661 106.5 67.038661M 105.5 73.038661C 103.6667 71.574961 99.7 68.625861 98.5 68.539161M 106.5 67.038661C 108.3333 65.871961 111.9 62.638661 111.5 59.038661C 111.5 58.038661 106.5 57.538661 103 61.538661M 106.5 67.038661C 104.5 67.038661 100.3333 68.038961 98.5 68.539161M 103 61.538661C 103.5 58.205461 104 50.939161 102 48.539161C 99.5 48.539161 96.5 52.539161 96.5 58.039161M 103 61.538661C 102.7692 63.538661 99.9038 67.038961 98.5 68.539161M 96.5 58.039161C 95 56.539161 91.4 53.639161 89 54.039161C 87.8 54.839161 89.1667 59.372161 90 61.538661M 96.5 58.039161C 96.3292 60.039161 97.7622 65.872461 98.5 68.539161M 90 61.538661C 86.5 61.038761 79.4 60.539161 79 62.539161C 78.5 65.039161 85 68.539161 88.5 68.539161M 90 61.538661C 91.2 62.338261 96.1667 66.538761 98.5 68.539161M 88.5 68.539161C 86.6667 70.539161 83.3 74.939161 84.5 76.539161C 85.7 78.139161 90.3333 76.205761 92.5 75.039161M 88.5 68.539161C 92.1 68.139161 96.6667 68.372461 98.5 68.539161M 92.5 75.039161C 94.5 71.439161 97.3333 69.205761 98.5 68.539161M 48.5 142.573661C 48.0157 133.121661 43.2601 119.323461 44.8432 102.538661M 47.5 39.039161C 49.3333 40.372461 53.3 42.939161 54.5 42.539161C 55.7 42.139161 53.6667 37.039161 52.5 34.539161M 47.5 39.039161C 46.1667 42.872461 43.1 50.039161 41.5 48.039161C 39.9 46.039161 40.5 38.539161 41 35.039161M 47.5 39.039161C 48.5346 43.271661 49.8029 51.389861 49.9206 61.039161M 47.5 39.039161C 47.5 35.839161 45.8333 31.039161 45 29.039161M 52.5 34.539161C 55.8333 35.039161 62.8 35.739161 64 34.539161C 65.5 33.039161 58 28.539161 54.5 27.539161M 52.5 34.539161C 51.968 33.339161 47.2783 30.372461 45 29.039161M 54.5 27.539161C 56.3333 25.872461 59.8 21.939161 59 19.539161C 58.2 18.339161 52.6667 20.372461 50 21.539161M 54.5 27.539161C 53.3116 28.739161 47.6715 29.039161 45 29.039161M 50 21.539161C 50.5 18.038761 51.1 10.837961 49.5 10.037961C 48 9.537961 44 14.037961 43 20.037961M 50 21.539161C 49.8028 23.139161 46.5845 27.205761 45 29.039161M 43 20.037961C 41.5 18.205061 38 14.639161 36 15.039161C 34 15.439161 35.8333 20.539161 37 23.039161M 43 20.037961C 43 21.237161 44.3333 26.538361 45 29.039161M 37 23.039161C 33.8333 22.705761 27.3 22.539161 26.5 24.539161C 25.5 27.039161 34 29.539161 36 30.039161M 37 23.039161C 38.6 23.039161 43 27.039161 45 29.039161M 36 30.039161C 34.3333 31.872461 31.1 36.139161 31.5 38.539161C 32.3 39.739161 38.1667 36.705761 41 35.039161M 36 30.039161C 38.4 28.839161 43 28.872461 45 29.039161M 41 35.039161C 42.1667 33.872461 44.6 31.039161 45 29.039161M 49.3877 73.539161C 49.0045 77.335861 48.3971 81.206161 47.5 85.039161C 47.0692 86.879761 46.6829 88.834661 46.337 90.875961M 49.3877 73.539161C 51.0918 69.205761 56.3 60.439161 63.5 60.039161C 72.5 59.539161 75.5 62.539061 76.5 65.539161C 77.5 68.539161 75 77.039161 67.5 77.539161C 61.5 77.939161 52.9251 75.039161 49.3877 73.539161ZM 49.3877 73.539161C 51.1941 72.517861 54.1316 70.948861 57 69.604661M 49.3877 73.539161C 49.7688 69.763261 49.9279 66.060161 49.9295 62.539161M 64 67.039161C 62.819 67.186761 61.0014 67.838261 59 68.702261M 57 69.604661C 58.5 70.582861 62 72.539161 64 72.539161M 57 69.604661C 57.6757 69.288061 58.3476 68.983861 59 68.702261M 59 68.702261C 59.8333 67.314561 61.6 64.439161 62 64.039161M 49.9206 61.039161C 47.7804 57.039161 41.8 49.039161 35 49.039161C 28.2 49.039161 24.5 54.705761 23.5 57.539161C 23 60.850561 24.1 67.686661 32.5 68.539161C 40.9 69.391561 47.6196 64.894361 49.9295 62.539161M 49.9206 61.039161C 49.9267 61.535161 49.9297 62.035261 49.9295 62.539161M 49.9295 62.539161C 48.309 61.770161 45.4215 60.557761 42.5 59.669161M 36.5 58.539161C 38.1932 58.539161 40.3557 59.016961 42.5 59.669161M 42.5 59.669161C 42.1667 58.125861 41 54.939161 39 54.539161M 42.5 59.669161C 42 60.959161 40.4 63.639161 38 64.039161M 46.337 90.875961C 44.8913 85.597061 40.3 75.039161 33.5 75.039161C 25 75.039161 22 76.039661 20 82.539161C 18 89.038661 26.5 93.538661 29 93.538661C 31.5 93.538661 36.674 95.212861 46.337 90.875961ZM 46.337 90.875961C 44.5787 89.913661 41.3434 88.305561 38 86.995361M 46.337 90.875961C 45.7164 94.538661 45.226 98.479761 44.8432 102.538661M 31.5 85.039161C 33.4349 85.361661 35.7421 86.110561 38 86.995361M 38 86.995361C 38 85.176261 37.4 81.438261 35 81.038661M 38 86.995361C 37.1667 88.288961 35.1 90.875961 33.5 90.875961M 44.8432 102.538661C 47.0621 98.038661 53 89.038661 59 89.038661C 66.5 89.038661 70.5183 92.538661 72 97.538661C 73.4817 102.538661 67.2696 108.039161 61.6348 108.039161C 57.127 108.039161 48.5621 104.372161 44.8432 102.538661ZM 44.8432 102.538661C 46.6976 101.895161 49.6246 100.917961 52.5 100.034061M 60.1858 98.038661C 58.8891 98.208661 56.6178 98.805961 54.1394 99.539161M 54.1394 99.539161C 54.4263 98.039261 55.3 94.839561 56.5 94.039161M 54.1394 99.539161C 53.6001 99.698661 53.051 99.864661 52.5 100.034061M 52.5 100.034061C 54.4572 101.368961 58.7344 104.038861 60.1858 104.038861"></path>
</g>
</g>
<g id="cp_5_g-5_4hbyvccubwg1-stroke" fill="none" stroke-linecap="round" stroke-linejoin="round" stroke-miterlimit="4" stroke="#484848" stroke-width="2" stroke-opacity="1.0">
<g>
<path d="M 21 213.539124L 18 213.539124C 17.8333 216.372424 18.2 222.739124 21 225.539124L 75 225.539124C 78 223.039124 78 217.139124 78 213.539124L 75 213.539124M 21 213.539124L 75 213.539124M 21 213.539124L 17 185.789124M 13 158.039124L 11 158.039124L 10 151.039124L 86 151.039124L 85 158.039124L 83 158.039124M 13 158.039124L 83 158.039124M 13 158.039124L 16.3874 181.539124M 75 213.539124L 79 185.789124M 83 158.039124L 79.6126 181.539124M 17 185.789124L 79 185.789124M 17 185.789124L 16.3874 181.539124M 79 185.789124L 79.6126 181.539124M 79.6126 181.539124L 16.3874 181.539124"></path>
</g>
</g>
</g>
<g id="g-root-cp_4_g-4_8x5gzscubx8g-stroke" data-item-order="-456174" transform="translate(576.0, 198.9609375)">
<g id="cp_4_g-4_8x5gzscubx8g-stroke" fill="none" stroke-linecap="round" stroke-linejoin="round" stroke-miterlimit="4" stroke="#484848" stroke-width="2" stroke-opacity="1.0">
<g>
<path d="M 48.5 126.073661C 45.8384 126.165161 43.2786 126.445561 41.5 127.038461C 37 128.538461 32 130.038461 25 130.038461C 19.4 130.038461 15 133.038461 13.5 134.538461L 83.5 134.538461C 83 131.038461 75 129.538461 71.5 129.538461C 69.8148 129.538461 67.666 128.958861 65.5 128.302061C 63.1674 127.594761 60.8148 126.797761 59 126.538461C 56.8834 126.236061 52.5724 125.933761 48.5 126.073661ZM 48.5 126.073661C 48.0157 116.621761 48.5 108.039161 49.8432 102.538661M 52.5 39.039161C 54.3333 40.372461 58.3 42.939161 59.5 42.539161C 60.7 42.139161 58.6667 37.039161 57.5 34.539161M 52.5 39.039161C 51.1667 42.872461 48.1 50.039161 46.5 48.039161C 44.9 46.039161 45.5 38.539161 46 35.039161M 52.5 39.039161C 53.5346 43.271661 54.8029 51.389861 54.9206 61.039161M 52.5 39.039161C 52.5 35.839161 50.8333 31.039161 50 29.039161M 57.5 34.539161C 60.8333 35.039161 67.8 35.739161 69 34.539161C 70.5 33.039161 63 28.539161 59.5 27.539161M 57.5 34.539161C 56.968 33.339161 52.2783 30.372461 50 29.039161M 59.5 27.539161C 61.3333 25.872461 64.8 21.939161 64 19.539161C 63.2 18.339161 57.6667 20.372461 55 21.539161M 59.5 27.539161C 58.3116 28.739161 52.6715 29.039161 50 29.039161M 55 21.539161C 55.5 18.038761 56.1 10.837961 54.5 10.037961C 53 9.537961 49 14.037961 48 20.037961M 55 21.539161C 54.8028 23.139161 51.5845 27.205761 50 29.039161M 48 20.037961C 46.5 18.205061 43 14.639161 41 15.039161C 39 15.439161 40.8333 20.539161 42 23.039161M 48 20.037961C 48 21.237161 49.3333 26.538361 50 29.039161M 42 23.039161C 38.8333 22.705761 32.3 22.539161 31.5 24.539161C 30.5 27.039161 39 29.539161 41 30.039161M 42 23.039161C 43.6 23.039161 48 27.039161 50 29.039161M 41 30.039161C 39.3333 31.872461 36.1 36.139161 36.5 38.539161C 37.3 39.739161 43.1667 36.705761 46 35.039161M 41 30.039161C 43.4 28.839161 48 28.872461 50 29.039161M 46 35.039161C 47.1667 33.872461 49.6 31.039161 50 29.039161M 54.3877 73.539161C 54.0045 77.335861 53.3971 81.206161 52.5 85.039161C 52.0692 86.879761 51.6829 88.834661 51.337 90.875961M 54.3877 73.539161C 56.0918 69.205761 61.3 60.439161 68.5 60.039161C 77.5 59.539161 80.5 62.539061 81.5 65.539161C 82.5 68.539161 80 77.039161 72.5 77.539161C 66.5 77.939161 57.9251 75.039161 54.3877 73.539161ZM 54.3877 73.539161C 56.1941 72.517861 59.1316 70.948861 62 69.604661M 54.3877 73.539161C 54.7688 69.763261 54.9279 66.060161 54.9295 62.539161M 69 67.039161C 67.819 67.186761 66.0014 67.838261 64 68.702261M 62 69.604661C 63.5 70.582861 67 72.539161 69 72.539161M 62 69.604661C 62.6757 69.288061 63.3476 68.983861 64 68.702261M 64 68.702261C 64.8333 67.314561 66.6 64.439161 67 64.039161M 54.9206 61.039161C 52.7804 57.039161 46.8 49.039161 40 49.039161C 33.2 49.039161 29.5 54.705761 28.5 57.539161C 28 60.850561 29.1 67.686661 37.5 68.539161C 45.9 69.391561 52.6196 64.894361 54.9295 62.539161M 54.9206 61.039161C 54.9267 61.535161 54.9297 62.035261 54.9295 62.539161M 54.9295 62.539161C 53.309 61.770161 50.4215 60.557761 47.5 59.669161M 41.5 58.539161C 43.1932 58.539161 45.3557 59.016961 47.5 59.669161M 47.5 59.669161C 47.1667 58.125861 46 54.939161 44 54.539161M 47.5 59.669161C 47 60.959161 45.4 63.639161 43 64.039161M 51.337 90.875961C 49.8913 85.597061 45.3 75.039161 38.5 75.039161C 30 75.039161 27 76.039661 25 82.539161C 23 89.038661 31.5 93.538661 34 93.538661C 36.5 93.538661 41.674 95.212861 51.337 90.875961ZM 51.337 90.875961C 49.5787 89.913661 46.3434 88.305561 43 86.995361M 51.337 90.875961C 50.7164 94.538661 50.226 98.479761 49.8432 102.538661M 36.5 85.039161C 38.4349 85.361661 40.7421 86.110561 43 86.995361M 43 86.995361C 43 85.176261 42.4 81.438261 40 81.038661M 43 86.995361C 42.1667 88.288961 40.1 90.875961 38.5 90.875961M 49.8432 102.538661C 52.0621 98.038661 58 89.038661 64 89.038661C 71.5 89.038661 75.5183 92.538661 77 97.538661C 78.4817 102.538661 72.2696 108.039161 66.6348 108.039161C 62.127 108.039161 53.5621 104.372161 49.8432 102.538661ZM 49.8432 102.538661C 51.6976 101.895161 54.6246 100.917961 57.5 100.034061M 65.1858 98.038661C 63.8891 98.208661 61.6178 98.805961 59.1394 99.539161M 59.1394 99.539161C 59.4263 98.039261 60.3 94.839561 61.5 94.039161M 59.1394 99.539161C 58.6001 99.698661 58.051 99.864661 57.5 100.034061M 57.5 100.034061C 59.4572 101.368961 63.7344 104.038861 65.1858 104.038861"></path>
</g>
</g>
<g id="cp_4_g-4_8x5gzscubx8g-stroke" fill="none" stroke-linecap="round" stroke-linejoin="round" stroke-miterlimit="4" stroke="#484848" stroke-width="2" stroke-opacity="1.0">
<g>
<path d="M 21 197.039124L 18 197.039124C 17.8333 199.872424 18.2 206.239124 21 209.039124L 75 209.039124C 78 206.539124 78 200.639124 78 197.039124L 75 197.039124M 21 197.039124L 75 197.039124M 21 197.039124L 17 169.289124M 13 141.539124L 11 141.539124L 10 134.539124L 86 134.539124L 85 141.539124L 83 141.539124M 13 141.539124L 83 141.539124M 13 141.539124L 16.3874 165.039124M 75 197.039124L 79 169.289124M 83 141.539124L 79.6126 165.039124M 17 169.289124L 79 169.289124M 17 169.289124L 16.3874 165.039124M 79 169.289124L 79.6126 165.039124M 79.6126 165.039124L 16.3874 165.039124"></path>
</g>
</g>
</g>
<g id="g-root-cp_3_g-3_dcyz48cubxu3-stroke" data-item-order="-456164" transform="translate(408.0, 246.65606689453125)">
<g id="cp_3_g-3_dcyz48cubxu3-stroke" fill="none" stroke-linecap="round" stroke-linejoin="round" stroke-miterlimit="4" stroke="#484848" stroke-width="2" stroke-opacity="1.0">
<g>
<path d="M 49.499984 77.892939C 48.043284 77.841039 46.683984 77.841039 45.499984 77.841039C 41.499984 77.841039 43.999984 81.341039 30.999984 81.841039C 20.599984 82.241039 14.999984 85.341039 13.499984 86.841039L 83.999984 86.841039C 82.833284 85.341039 79.499984 82.241039 75.499984 81.841039C 70.499984 81.341039 65.499984 81.841039 60.499984 79.841039C 56.979984 78.433039 52.964484 78.016339 49.499984 77.892939ZM 49.499984 77.892939C 49.412884 76.408039 49.303084 74.385039 49.188284 72.049539M 48.499984 36.841039C 48.499984 37.507739 48.499984 41.041039 48.499984 49.841039C 48.499984 56.342039 48.863784 65.445239 49.188284 72.049539M 48.499984 36.841039C 51.166684 35.507739 57.299984 31.641039 60.499984 26.841039C 64.499984 20.841039 62.499984 11.841039 55.999984 10.341039C 49.499984 8.841039 44.212484 12.490939 42.999984 17.341739C 41.499984 23.342539 40.999984 32.341139 48.499984 36.841039ZM 48.499984 36.841039C 48.406484 35.251439 48.512284 32.392439 49.188284 29.341039M 51.999984 22.341039C 50.841784 24.078339 50.041584 26.086339 49.499984 28.075939M 49.188284 29.341039C 51.458884 28.674339 55.999984 27.041039 55.999984 25.841039M 49.188284 29.341039C 49.281084 28.922039 49.384684 28.499439 49.499984 28.075939M 49.499984 28.075939C 48.666684 26.997639 46.999984 24.341039 46.999984 22.341039M 49.188284 72.049539C 49.292184 69.646639 50.599984 63.641039 54.999984 58.841039C 59.399984 54.041039 61.833284 51.174339 62.499984 50.341039M 49.188284 72.049539C 48.458884 69.646639 45.899984 63.441039 41.499984 57.841039C 39.099984 54.641039 37.499984 52.931039 36.999984 52.476139M 62.499984 50.341039C 61.666684 48.007739 61.199984 42.041139 65.999984 36.841039C 70.799984 31.641039 76.999984 32.007639 79.499984 32.841039C 81.999984 34.507639 86.299984 39.141039 83.499984 44.341039C 79.999984 50.841039 75.499984 51.841039 71.499984 51.841039C 68.299984 51.841039 64.166684 50.841039 62.499984 50.341039ZM 62.499984 50.341039C 63.171684 49.266239 64.244084 47.758339 65.494584 46.341039M 71.499984 42.341039C 70.237184 42.341039 68.829084 43.171539 67.484484 44.341039M 65.494584 46.341039C 66.662984 46.674339 69.499984 47.141039 71.499984 46.341039M 65.494584 46.341039C 66.122384 45.629439 66.795084 44.940639 67.484484 44.341039M 67.484484 44.341039C 67.156284 43.007639 66.799984 39.941039 67.999984 38.341039M 36.999984 52.476139C 34.166684 51.931039 27.299984 50.841039 22.499984 50.841039C 16.499984 50.841039 12.499984 45.341039 11.999984 40.841039C 11.499984 36.341039 11.999984 31.341039 19.499984 28.841039C 26.999984 26.341039 33.499984 33.841039 35.999984 39.341039C 37.849284 43.409439 37.561084 49.008339 37.111984 51.841039M 36.999984 52.476139C 37.037684 52.284339 37.075284 52.071839 37.111984 51.841039M 37.111984 51.841039C 36.044584 50.181939 34.143484 47.571339 31.999984 45.289039M 25.999984 40.841039C 27.269584 41.221839 28.647384 42.150039 30.001884 43.341039M 31.999984 45.289039C 31.166684 45.605039 28.799984 46.047439 25.999984 45.289039M 31.999984 45.289039C 31.350684 44.597639 30.679184 43.936439 30.001884 43.341039M 30.001884 43.341039C 30.334584 41.674339 30.599984 38.041139 28.999984 36.841039"></path>
</g>
</g>
<g id="cp_3_g-3_dcyz48cubxu3-stroke" fill="none" stroke-linecap="round" stroke-linejoin="round" stroke-miterlimit="4" stroke="#484848" stroke-width="2" stroke-opacity="1.0">
<g>
<path d="M 18 149.343689C 17.8333 152.176989 18.2 158.543689 21 161.343689L 75 161.343689C 78 158.843689 78 152.943689 78 149.343689L 75 149.343689L 79 121.593689L 79.6126 117.343689L 83 93.843689L 85 93.843689L 86 86.843689L 10 86.843689L 11 93.843689L 13 93.843689L 16.3874 117.343689L 17 121.593689L 21 149.343689L 18 149.343689ZM 21 149.343689L 18 149.343689C 17.8333 152.176989 18.2 158.543689 21 161.343689L 75 161.343689C 78 158.843689 78 152.943689 78 149.343689L 75 149.343689M 21 149.343689L 75 149.343689M 21 149.343689L 17 121.593689M 13 93.843689L 11 93.843689L 10 86.843689L 86 86.843689L 85 93.843689L 83 93.843689M 13 93.843689L 83 93.843689M 13 93.843689L 16.3874 117.343689M 75 149.343689L 79 121.593689M 83 93.843689L 79.6126 117.343689M 17 121.593689L 79 121.593689M 17 121.593689L 16.3874 117.343689M 79 121.593689L 79.6126 117.343689M 79.6126 117.343689L 16.3874 117.343689"></path>
</g>
</g>
</g>
<g id="g-root-cp_2_g-2_v4vgp4cubv2b-stroke" data-item-order="-456154" transform="translate(240.0, 278.3590087890625)">
<g id="cp_2_g-2_v4vgp4cubv2b-stroke" fill="none" stroke-linecap="round" stroke-linejoin="round" stroke-miterlimit="4" stroke="#484848" stroke-width="2" stroke-opacity="1.0">
<g>
<path d="M 52.5 46.221185C 48.573 46.297385 44.4154 46.820485 42.5 47.139785C 39.5 47.639785 41 50.639785 29 50.639785C 19.4 50.639785 14.6667 53.639785 13.5 55.139785L 83 54.639585C 81 53.306285 76 50.639785 72 50.639785C 67 50.639785 63 47.639785 58.5 46.639785C 56.8732 46.278185 54.7235 46.178085 52.5 46.221185ZM 52.5 46.221185C 52.5 43.860685 52.8 38.439585 54 35.639585M 54 35.639585C 55.5 32.139585 64.5 30.139585 66 23.139585C 67.5 16.139585 65 11.139585 60 10.139585C 55 9.139585 48.9617 13.636485 48.5 19.639585C 48 26.140585 49.5 31.638485 54 35.639585ZM 54 35.639585C 53.8149 33.973785 53.7429 31.074685 54.1949 28.140585M 56.5 21.640585C 55.7 22.783485 55.1258 24.171285 54.7215 25.640585M 54.1949 28.140585C 55.7966 27.640585 59 26.240585 59 24.640585M 54.1949 28.140585C 54.3243 27.300785 54.4966 26.458085 54.7215 25.640585M 54.7215 25.640585C 54.1477 24.974285 53 23.241385 53 21.640585"></path>
</g>
</g>
<g id="cp_2_g-2_v4vgp4cubv2b-stroke" fill="none" stroke-linecap="round" stroke-linejoin="round" stroke-miterlimit="4" stroke="#484848" stroke-width="2" stroke-opacity="1.0">
<g>
<path d="M 21 117.64061L 18 117.64061C 17.8333 120.47391 18.2 126.84061 21 129.64061L 75 129.64061C 78 127.14061 78 121.24061 78 117.64061L 75 117.64061M 21 117.64061L 75 117.64061M 21 117.64061L 17 89.89061M 13 62.14061L 11 62.14061L 10 55.14061L 86 55.14061L 85 62.14061L 83 62.14061M 13 62.14061L 83 62.14061M 13 62.14061L 16.3874 85.64061M 75 117.64061L 79 89.89061M 83 62.14061L 79.6126 85.64061M 17 89.89061L 79 89.89061M 17 89.89061L 16.3874 85.64061M 79 89.89061L 79.6126 85.64061M 79.6126 85.64061L 16.3874 85.64061"></path>
</g>
</g>
</g>
<g id="g-root-cp_1_g-1_1q7lzk8cubv9r-stroke" data-item-order="-456144" transform="translate(27.0, 214.5)">
<g id="cp_1_g-1_1q7lzk8cubv9r-stroke" fill="none" stroke-linecap="round" stroke-linejoin="round" stroke-miterlimit="4" stroke="#484848" stroke-width="2" stroke-opacity="1.0">
<g>
<path d="M 97 104.6283C 96.223 104.5464 95.386 104.6457 94.5 105.0001C 90.5 106.6001 90.8333 114.9999 91.5 118.9998C 89.3333 117.4998 82.7 114.3998 73.5 113.9998C 64.3 113.5998 59 117.1665 57.5 118.9998L 130.5 118.9998C 130.3333 117.6665 128 114.7998 120 113.9998C 112 113.1999 107.6667 116.9999 106.5 118.9998C 105.7 115.7999 103.5 111 102.5 109.0001C 101.7215 107.4431 99.7309 104.9164 97 104.6283ZM 97 104.6283C 96.6667 106.7522 96.5 111.5999 98.5 113.9998M 95.125 78.9998C 97.6514 79.8185 98.5 81.8713 98.5 83.4998C 98.5 85.9998 97 86.9998 96.5 93.9998C 96.1 99.5998 91.6667 100.9998 89.5 100.9998C 83.9 100.1996 82.5 95.9997 82.5 93.9998C 82.5 89.4998 83.9 80.1998 89.5 78.9998C 91.9403 78.4769 93.7729 78.5616 95.125 78.9998ZM 95.125 78.9998C 93.5833 79.9999 90.4 83.7 90 90.5M 75 31C 71 32.5 70.5 37.5 73.5 40.5C 76.5 43.5 77.5 42.5 82.5 45.5C 84.8515 46.9109 86.5394 47.8794 88.5 48.7176M 95.125 71C 95.5833 72.1667 97.5 74.5 101.5 74.5C 104.5925 74.5 105.8918 71.5114 106.3222 69M 95.125 71C 94.25 71.3333 92 71.5 90 69.5C 87.5 67 86 65.0135 82.5 56.7567M 95.125 71C 94.9167 70.5 94.4 69 94 67C 93.8502 66.4942 93.7508 65.9923 93.6928 65.5M 82.5 56.7567C 81.751 56.6552 81.0753 56.569 80.5 56.5C 71 56 60.5 58 51 51C 41.5 44 17.5 39.3333 10 38.5L 10 10C 18 13 39.3 18.6 54.5 17C 73.5 15 77.5 12 83.5 16C 88.3 19.2 97.5 29 101.5 33.5C 103.1667 34.8333 106.5 39.1 106.5 45.5C 106.5 51.9 106.5 62.5 106.5 67C 106.5 67.5672 106.4485 68.263 106.3222 69M 82.5 56.7567C 84.7502 57.0617 87.6619 57.5049 90.5 58.0364M 81 30L 92 39C 93.5 40.1667 96.5 43.4 96.5 47C 96.5 48.6 96.5 50.4981 96.5 51.2472M 96.5 51.2472C 96.8227 51.3297 97.1558 51.4139 97.5 51.5C 105.5 53.5 106.5 55.5 106.5 57.5C 106.5 58.7396 105.5397 60.1712 103.5 60.6045M 96.5 51.2472C 92.8497 50.313 90.5289 49.5851 88.5 48.7176M 80 38.5L 85.5 43C 86.3333 43.8118 88.1 46.0918 88.5 48.7176M 95.125 59.017C 96.4105 59.3313 97.5681 59.6611 98.5 60C 99.0274 60.1918 99.5273 60.3422 100 60.4556M 95.125 59.017C 93.6965 58.6678 92.1101 58.3379 90.5 58.0364M 95.125 59.017C 94.4381 60.0533 93.3521 62.6095 93.6928 65.5M 90.5 58.0364C 90.9619 59.8576 92.247 63.9 93.6928 65.5M 100 60.4556C 99.6667 61.4704 99.2 64.2 100 67M 100 60.4556C 101.4015 60.792 102.5643 60.8033 103.5 60.6045M 106.3222 69C 105.0482 67.2363 102.7 63.0881 103.5 60.6045"></path>
</g>
</g>
<g id="cp_1_g-1_1q7lzk8cubv9r-stroke" fill="none" stroke-linecap="round" stroke-linejoin="round" stroke-miterlimit="4" stroke="#484848" stroke-width="2" stroke-opacity="1.0">
<g>
<path d="M 66 181.5L 63 181.5C 62.8333 184.3333 63.2 190.7 66 193.5L 120 193.5C 123 191 123 185.1 123 181.5L 120 181.5M 66 181.5L 120 181.5M 66 181.5L 62 153.75M 58 126L 56 126L 55 119L 131 119L 130 126L 128 126M 58 126L 128 126M 58 126L 61.3874 149.5M 120 181.5L 124 153.75M 128 126L 124.6126 149.5M 62 153.75L 124 153.75M 62 153.75L 61.3874 149.5M 124 153.75L 124.6126 149.5M 124.6126 149.5L 61.3874 149.5"></path>
</g>
</g>
</g>
<g id="g-root-cp_0_g-0_m98gg8cubvnn-stroke" data-item-order="-456134" transform="translate(258.0000305175781, 124.00001525878906)">
<g id="cp_0_g-0_m98gg8cubvnn-stroke" fill="none" stroke-linecap="round" stroke-linejoin="round" stroke-miterlimit="4" stroke="#484848" stroke-width="2" stroke-opacity="1.0">
<g>
<path d="M 10.726369 168.441992C 8.689969 165.726592 11.392969 159.108592 13.226369 155.941992C 17.226369 160.741992 17.726269 166.441992 16.226269 168.441992C 15.226269 169.941992 12.226269 170.441992 10.726369 168.441992ZM 10.726369 195.441992C 8.689969 192.726592 11.392969 186.108592 13.226369 182.941992C 17.226369 187.741992 17.726269 193.441992 16.226269 195.441992C 15.226269 196.941992 12.226269 197.441992 10.726369 195.441992ZM 19.226269 146.941992C 17.189869 144.226592 19.892969 137.608592 21.726269 134.441992C 25.726269 139.241992 26.226269 144.941992 24.726269 146.941992C 23.726269 148.441992 20.726169 148.941992 19.226269 146.941992ZM 146.226469 64.441992L 123.726469 126.441992L 117.726469 123.942392L 20.726469 125.942392L 22.726469 119.942392L 85.226469 108.942392L 59.226469 97.097892L 55.226469 95.275692L 47.726469 91.859092L 40.226469 88.442392C 35.726469 85.942392 35.726469 76.442392 42.726469 71.942392C 49.726469 67.442392 51.226469 62.941992 56.226469 51.941992C 60.226469 43.141992 64.559769 42.608592 66.226469 43.441992L 70.226469 44.491992C 65.893169 39.142092 60.726469 22.700192 74.226469 13.442392C 78.893169 10.275692 90.826469 6.442392 101.226469 16.442392C 114.226469 28.942392 113.726469 38.443392 119.726469 46.442392C 125.726469 54.441392 127.226469 58.404492 134.726469 61.423192L 146.226469 64.441992ZM 66.226469 43.441992L 47.726469 91.859092M 85.226469 108.942392L 117.726469 123.942392M 59.226469 97.097892L 77.656569 46.442392M 77.656569 46.442392L 74.226469 45.541992M 77.656569 46.442392L 134.726469 61.423192M 74.226469 45.541992L 55.226469 95.275692M 74.226469 45.541992L 70.226469 44.491992M 84.226469 57.942392L 97.726469 60.942392"></path>
</g>
</g>
</g>
<g id="g-root-cp_0_g-0_1_140igy0cubvur-stroke" data-item-order="-456127" transform="translate(142.0, 278.0)">
<g id="cp_0_g-0_1_140igy0cubvur-stroke" fill="none" stroke-linecap="round" stroke-linejoin="round" stroke-miterlimit="4" stroke="#484848" stroke-width="2" stroke-dasharray="5.0, 7.0" stroke-opacity="1.0">
<g>
<path d="M 10 43.3351C 12.7138 36.7835 16.6914 30.8306 21.7057 25.8162C 26.7201 20.8019 32.673 16.8242 39.2246 14.1105C 45.7762 11.3967 52.7981 10 59.8895 10C 66.9809 10 74.0028 11.3968 80.5544 14.1105C 87.106 16.8243 93.0589 20.8019 98.0733 25.8163C 103.0876 30.8306 107.0653 36.7836 109.779 43.3351M 178 43.3351C 180.7138 36.7835 184.6914 30.8306 189.7057 25.8162C 194.7201 20.8019 200.673 16.8242 207.2246 14.1105C 213.7762 11.3967 220.7981 10 227.8895 10C 234.9809 10 242.0028 11.3968 248.5544 14.1105C 255.106 16.8243 261.0589 20.8019 266.0733 25.8163C 271.0876 30.8306 275.0653 36.7836 277.779 43.3351M 346 43.3351C 348.7138 36.7835 352.6914 30.8306 357.7057 25.8162C 362.7201 20.8019 368.673 16.8242 375.2246 14.1105C 381.7762 11.3967 388.7981 10 395.8895 10C 402.9809 10 410.0028 11.3968 416.5544 14.1105C 423.106 16.8243 429.0589 20.8019 434.0733 25.8163C 439.0876 30.8306 443.0653 36.7836 445.779 43.3351M 514 43.3351C 516.7138 36.7835 520.6914 30.8306 525.7057 25.8162C 530.7201 20.8019 536.673 16.8242 543.2246 14.1105C 549.7762 11.3967 556.7981 10 563.8895 10C 570.9809 10 578.0028 11.3968 584.5544 14.1105C 591.106 16.8243 597.0589 20.8019 602.0733 25.8163C 607.0876 30.8306 611.0653 36.7836 613.779 43.3351"></path>
</g>
</g>
</g>
<g id="g-root-tx_nlpproje_qp1ykocubwn8-stroke" data-item-order="0" transform="translate(320.0, 38.0)"></g>
<g id="g-root-tx_rawtextd_1lrshfscubx8k-stroke" data-item-order="0" transform="translate(38.0, 446.0)"></g>
<g id="g-root-tx_unproces_1unfhoocubxfn-stroke" data-item-order="0" transform="translate(44.0, 482.0)"></g>
<g id="g-root-tx_handsonc_hteybscubxty-stroke" data-item-order="0" transform="translate(224.0, 446.0)"></g>
<g id="g-root-tx_building_ddlg7ccuby12-stroke" data-item-order="0" transform="translate(206.0, 506.0)"></g>
<g id="g-root-tx_datavisu_m9uxjccubv2k-stroke" data-item-order="0" transform="translate(380.0, 446.0)"></g>
<g id="g-root-tx_visualiz_de7xagcubv9g-stroke" data-item-order="0" transform="translate(374.0, 506.0)"></g>
<g id="g-root-tx_projectr_m9uxjccubvgi-stroke" data-item-order="0" transform="translate(566.0, 446.0)"></g>
<g id="g-root-tx_document_4ikx1kcubvnu-stroke" data-item-order="0" transform="translate(542.0, 506.0)"></g>
<g id="g-root-tx_portfoli_hu1fewcubvut-stroke" data-item-order="0" transform="translate(722.0, 446.0)"></g>
<g id="g-root-tx_showcasi_2rex4cubw27-stroke" data-item-order="0" transform="translate(710.0, 506.0)"></g>
</g>
</g>
<path id="wqs6c08cuhhc1" d="M65.283 12.757a.35.35 0 0 0 .584.157l5.203-5.141-6.183 3.523.396 1.461zm-2.216-11.7a.35.35 0 0 0-.522.305v3.111l3.276-1.868-2.754-1.548zm3.728 2.105l-4.25 2.421v2.445l6.391-3.644-2.141-1.222zm4.708 3.303a.35.35 0 0 0 0-.609l-1.592-.9-7.365 4.199v1.782a.35.35 0 0 0 .523.305l8.435-4.777z M44.542 2.513c0-.433.355-.783.792-.783s.792.35.792.783-.355.783-.792.783-.792-.35-.792-.783zm59.171 0c0-.433.355-.783.792-.783s.792.35.792.783-.355.783-.792.783-.792-.35-.792-.783zm-85.951 7.636h-1.27v-.487c-.276.201-.864.609-1.881.609-1.202 0-2.274-.794-2.137-2.078.118-1.106 1.153-1.584 1.848-1.727l2.17-.345c0-.539-.29-.956-1.064-1.006s-1.21.305-1.571 1.017l-1.124-.605c1.218-2.631 5.029-1.764 5.029.414v4.207zm-1.27-2.86c.006.396-.062 1.112-.819 1.59-.587.37-1.841.299-1.903-.395-.049-.555.461-.791.906-.898l1.816-.297zm72.662 2.86h-1.27v-.487c-.276.201-.864.609-1.881.609-1.202 0-2.274-.794-2.137-2.078.118-1.106 1.153-1.584 1.848-1.727l2.17-.345c0-.539-.29-.956-1.064-1.006s-1.21.305-1.571 1.017l-1.124-.605c1.218-2.631 5.029-1.764 5.029.414v4.207zm-1.27-2.86c.006.396-.062 1.112-.82 1.59-.587.37-1.841.299-1.903-.395-.049-.555.461-.791.906-.898l1.816-.297zM99.096 10.149H97.85v-8.45h1.246v4.895l2.68-2.559h1.738l-2.633 2.535 2.715 3.578h-1.556l-2.077-2.707-.867.844v1.863zm6.053-6.114h-1.255v6.113h1.255V4.035zm-59.2 0h-1.255v6.113h1.255V4.035zm5.584 6.113V1.697h1.255v2.695c.361-.346 1-.485 1.47-.485 1.452 0 2.477 1.082 2.457 2.448v3.792h-1.27v-3.68c0-.408-.214-1.339-1.315-1.339-.968 0-1.342.756-1.342 1.339v3.681h-1.255zm-4.76-4.894V4.039h.621a.45.45 0 0 0 .45-.45v-.855h1.251v1.305h1.309v1.215h-1.309v3.109c0 .293.105.664.648.664.365 0 .531-.035.736-.07v1.137s-.361.113-.857.113c-1.398 0-1.777-1.051-1.777-1.788V5.254h-1.071zM36.528 4.039h-1.394l2.191 6.106h1.125l1.234-3.918 1.238 3.918h1.129l2.188-6.106h-1.383l-1.359 3.93-1.256-3.93h-1.124l-1.242 3.957-1.348-3.957zM26.212 7.141c-.02 1.566 1.187 3.129 3.223 3.129 1.566 0 2.383-.918 2.734-1.719L31.172 8c-.315.399-.801 1.094-1.738 1.094-1.145 0-1.825-.781-1.891-1.52h4.625c.074-.284.148-.995-.03-1.559-.336-1.064-1.221-2.102-2.839-2.102s-3.088 1.152-3.088 3.227zm1.363-.75h3.348c-.055-.43-.566-1.301-1.623-1.301a1.79 1.79 0 0 0-1.725 1.301zm-8.758.75c.038 1.758 1.277 3.133 3.145 3.133 1.074 0 1.723-.477 1.961-.672v.547h1.242V1.703h-1.258v2.888c-.414-.36-1.062-.68-1.93-.68-1.91 0-3.198 1.473-3.16 3.23zm1.309-.08c0 1.119.723 1.978 1.836 1.978a1.88 1.88 0 0 0 1.94-1.904c0-1.371-1.011-1.99-1.972-1.99s-1.805.798-1.805 1.916zm76.683-.028C96.771 5.275 95.532 3.9 93.664 3.9c-1.074 0-1.723.477-1.961.672v-.547h-1.242v8.22h1.258V9.583c.414.36 1.063.68 1.93.68 1.91 0 3.198-1.473 3.16-3.23zm-1.309.08c0-1.119-.723-1.978-1.836-1.978a1.88 1.88 0 0 0-1.94 1.904c0 1.371 1.011 1.99 1.972 1.99S95.5 8.231 95.5 7.113zM106.441 10.173V4.036h1.254v.382c.361-.346 1-.485 1.47-.485 1.452 0 2.477 1.082 2.457 2.448v3.792h-1.27V6.492c0-.408-.214-1.339-1.315-1.339-.969 0-1.342.756-1.342 1.339v3.681h-1.254zm-30.383-.021V1.824h1.084l4.215 5.777V1.824h1.32v8.328h-1.094l-4.207-5.796v5.796h-1.319zM5.24 10.149H4V2.377h1.014l2.664 3.597 2.654-3.592h1.03v7.766h-1.256V4.762L7.678 8.068 5.24 4.742v5.407z" transform="translate(20.0, 590.0)" fill="#80808088" stroke="none"></path>
</svg>