<?xml version="1.0" encoding="utf-8" standalone="yes"?>
<!DOCTYPE svg PUBLIC "-//W3C//DTD SVG 1.1//EN" "http://www.w3.org/Graphics/SVG/1.1/DTD/svg11.dtd">
<svg version="1.1" xmlns="http://www.w3.org/2000/svg" xmlns:xlink="http://www.w3.org/1999/xlink" width="912" height="708" viewBox="0 0 912 708" style="fill:none; stroke:none; fill-rule:evenodd; clip-rule:evenodd; stroke-linecap:round; stroke-linejoin:round; stroke-miterlimit:1.5;">
<style class="text-font-style fontImports" data-font-family="Roboto">
@import url(https://fonts.googleapis.com/css2?family=Roboto:wght@400;700&amp;display=block);
</style>
<style class="text-font-style">
@import url(https://app.napkin.ai/fonts/font-face.web.napkin-fallback.css);
@import url(https://app.napkin.ai/fonts/font-face.web.shantell-sans.css);
@import url(https://app.napkin.ai/fonts/font-face.web.roboto.css);
</style>
<g id="items" style="isolation:isolate;">
<g id="blend" style="mix-blend-mode:normal;">
<g id="g-root-cp_0d_g-0d_1ltnap414kuozr-fill" data-item-order="-528758" transform="translate(30.000030517578125, 442.2559814453125)">
<g id="cp_0d_g-0d_1ltnap414kuozr-fill-merged" stroke="none" fill="url(#gradient-cbcbcb-48637562)" fill-opacity="1.0">
<g>
<path d="M19.312 169.973 H42.464C43.597 169.973 44.634 169.335 45.143 168.322L112.528 34.51C106.811 29.803 101.341 24.655 96.164 19.097L19.312 169.973 M11.933 167.162L19.312 169.973L96.164 19.097C93.443 16.176 90.803 13.142 88.252 10L10.328 162.997C9.518 164.587 10.266 166.527 11.933 167.162 M98.138 206.901L105.312 208.714C105.312 208.714 107.4 209.14 108.374 209.223L142.927 54.199C138.742 52.146 134.628 49.88 130.598 47.411L95.944 203.342C95.592 204.926 96.564 206.503 98.138 206.901 M108.374 209.223C109.348 209.307 111.551 209.068 111.551 209.068L132.5 206.449C133.758 206.292 134.782 205.36 135.057 204.123L144.646 160.973L151.091 131.973L166.368 63.231C158.373 60.959 150.533 57.929 142.927 54.199L108.374 209.223 M287.784 142.229L280.141 123.503C279.647 122.294 278.428 121.543 277.126 121.646L271.615 122.082L151.091 131.973L144.646 160.973L281.792 146.677L285.286 146.35C287.29 146.162 288.545 144.093 287.784 142.229 M299.102 183.168L309.925 184.271L257.406 57.354L246.097 60.417L271.615 122.082L277.126 121.646C278.428 121.543 279.647 122.294 280.141 123.503L287.784 142.229C288.545 144.093 287.29 146.162 285.286 146.35L281.792 146.677L295.813 180.756C296.236 181.778 297.422 182.938 299.102 183.168 M309.925 184.271L328.403 181.961C330.37 181.715 331.562 179.664 330.802 177.834L278.161 51.018C274.074 52.611 269.871 53.992 265.557 55.147L257.406 57.354L309.925 184.271"></path>
</g>
</g>
</g>
<g id="g-root-cp_0c_g-0c_9098fc14kum8b-fill" data-item-order="-528752" transform="translate(119.39495849609375, 182.76402282714844)">
<g id="cp_0c_g-0c_9098fc14kum8b-fill-merged" stroke="none" fill="url(#gradient-cbcbcb-48637562)" fill-opacity="1.0">
<g>
<path d="M229.213 73.115C198.289 25.646 145.786 0.174 95.899 13.541C31.083 30.909 -4.775 107.262 15.809 184.081C36.392 260.9 105.623 309.096 170.439 291.728C199.297 283.995 222.415 264.57 237.367 238.616L218.864 226.424C206.341 246.97 187.52 262.305 164.228 268.546C110.081 283.054 52.281 242.921 35.128 178.905C17.975 114.889 47.965 51.232 102.112 36.724C143.046 25.755 186.067 46.016 212.037 84.215L229.213 73.115 M215.298 89.251L232.394 78.203C240.151 91.142 246.345 105.574 250.529 121.188C250.616 121.512 250.701 121.835 250.786 122.159L231.077 125.868C227.451 112.524 222.057 100.225 215.298 89.251 M194.043 95.844C173.162 66.725 139.7 51.498 107.838 60.035C64.628 71.614 40.723 122.516 54.445 173.729C68.168 224.941 114.321 257.071 157.532 245.493C175.336 240.723 189.862 229.276 199.83 213.883L181.235 201.631C173.922 211.588 163.873 218.948 151.803 222.182C119.528 230.83 85.021 206.704 74.73 168.294C64.438 129.885 82.258 91.737 114.533 83.089C137.227 77.008 161.024 87.132 176.731 107.031L194.043 95.844 M180.271 111.887L197.4 100.818C202.895 109.476 207.322 119.2 210.36 129.767L190.593 133.487C188.112 125.567 184.589 118.309 180.271 111.887 M159.073 118.442C148.702 107.705 134.428 102.605 120.745 106.271C99.139 112.061 87.187 137.512 94.048 163.118C100.909 188.724 123.986 204.789 145.591 199C152.054 197.269 157.652 193.778 162.142 189.051L141.172 175.234C140.591 175.459 139.993 175.654 139.38 175.818C128.444 178.748 116.797 170.745 113.367 157.942C109.936 145.138 116.021 132.384 126.957 129.454C131.354 128.275 135.867 128.865 139.914 130.824L159.073 118.442 M145.294 134.491L163.011 123.042C166.167 127.203 168.799 131.972 170.728 137.225L150.44 141.044C149.043 138.52 147.291 136.311 145.294 134.491 M152.795 146.706C152.855 146.913 152.914 147.121 152.97 147.33C153.916 150.863 154.139 154.393 153.734 157.713L173.949 162.127C174.577 155.987 174.147 149.504 172.507 142.996L152.795 146.706 M192.193 139.291C194.407 148.56 194.997 157.78 194.157 166.539L214.325 170.942C215.401 159.565 214.663 147.611 211.872 135.588L192.193 139.291 M232.533 131.699C235.926 146.615 236.79 161.437 235.417 175.547L255.623 179.959C257.212 163.231 256.185 145.672 252.207 127.997L232.533 131.699 M254.938 185.951L234.695 181.531C232.632 195.828 228.244 209.277 221.849 221.206L240.252 233.331C247.639 219.035 252.657 202.981 254.938 185.951 M202.915 208.73C208.179 199.203 211.823 188.416 213.585 176.922L193.352 172.505C191.819 181.286 188.815 189.478 184.549 196.629L202.915 208.73 M165.949 184.374C169.248 179.638 171.65 174.085 172.991 168.059L152.304 163.542C151.082 166.752 149.206 169.575 146.797 171.755L165.949 184.374"></path>
</g>
</g>
</g>
<g id="g-root-cp_0b_g-0b_dg2qjs14kumtq-fill" data-item-order="-528748" transform="translate(65.36700439453125, 159.00596618652344)">
<g id="cp_0b_g-0b_dg2qjs14kumtq-fill-merged" stroke="none" fill="url(#gradient-cbcbcb-48637562)" fill-opacity="1.0">
<g>
<path d="M197.409 347.28C121.657 367.577 40.78 311.379 16.766 221.756C-7.248 132.134 34.693 43.026 110.446 22.729L143.227 13.852C136.599 15.628 130.23 17.935 124.144 20.726C60.921 49.722 28.125 130.998 50.03 212.75C71.935 294.501 140.973 348.489 210.222 341.991C216.889 341.366 223.558 340.18 230.186 338.404L197.409 347.28"></path>
</g>
</g>
<g id="cp_0b_g-0b_dg2qjs14kumtq-fill-merged" stroke="none" fill="url(#gradient-cbcbcb-48637562)" fill-opacity="1.0">
<g>
<path d="M309.852 274.535C292.503 305.91 265.101 329.445 230.679 338.669C155.193 358.895 74.533 302.638 50.519 213.016C26.504 123.394 68.23 34.344 143.716 14.117C202.551 -1.647 264.529 29.051 300.38 85.797L283.24 96.873C252.316 49.404 199.814 23.932 149.927 37.299C85.11 54.666 49.253 131.02 69.837 207.839C90.42 284.658 159.65 332.853 224.466 315.486C253.325 307.753 276.443 288.327 291.394 262.374L309.852 274.535 M312.666 269.204C321.048 252.545 326.699 233.888 329.2 214.126L308.966 209.709C306.685 226.739 301.667 242.793 294.279 257.089L312.666 269.204 M288.722 205.289C286.659 219.586 282.272 233.035 275.876 244.964L256.942 232.488C262.207 222.961 265.85 212.174 267.613 200.68L288.722 205.289 M289.444 199.305L268.353 194.7C269.429 183.323 268.691 171.369 265.9 159.345L286.56 155.457C289.954 170.373 290.818 185.195 289.444 199.305 M309.651 203.717L329.859 208.129C331.663 188.784 330.473 168.488 325.909 148.052L306.234 151.755C310.213 169.43 311.239 186.989 309.651 203.717 M304.814 145.917L324.513 142.209C324.306 141.396 324.094 140.583 323.876 139.77C319.135 122.076 312.186 105.683 303.504 90.921L286.421 101.961C294.179 114.9 300.373 129.332 304.557 144.946C304.643 145.269 304.729 145.593 304.814 145.917 M285.105 149.626L264.388 153.525C261.35 142.957 256.923 133.233 251.428 124.575L269.325 113.009C276.084 123.983 281.479 136.281 285.105 149.626 M266.065 107.972C240.095 69.773 197.073 49.513 156.139 60.481C101.993 74.99 72.003 138.647 89.156 202.662C106.309 266.678 164.109 306.812 218.256 292.303C241.547 286.063 260.369 270.728 272.891 250.182L253.857 237.641C243.89 253.034 229.363 264.48 211.559 269.251C168.349 280.829 122.195 248.699 108.473 197.486C94.75 146.273 118.655 95.371 161.866 83.793C193.728 75.256 227.19 90.482 248.07 119.601L266.065 107.972 M230.759 130.788C215.052 110.889 191.255 100.766 168.561 106.847C136.286 115.495 118.465 153.642 128.757 192.052C139.049 230.462 173.556 254.588 205.831 245.94C217.901 242.706 227.95 235.346 235.262 225.389L216.169 212.809C211.679 217.536 206.081 221.026 199.619 222.758C178.014 228.547 154.937 212.482 148.076 186.876C141.215 161.269 153.167 135.818 174.773 130.029C188.456 126.362 202.73 131.462 213.101 142.2L230.759 130.788 M193.941 154.581L183.092 161.593C181.701 162.492 181.301 164.349 182.2 165.741C183.099 167.132 184.956 167.532 186.348 166.632L199.322 158.248C201.318 160.068 203.071 162.278 204.468 164.801L198.538 165.917C196.909 166.224 195.838 167.792 196.145 169.421C196.451 171.049 198.02 172.12 199.648 171.814L206.823 170.464C206.883 170.67 206.941 170.878 206.997 171.088C207.944 174.621 208.166 178.151 207.762 181.471L197.378 179.204C195.759 178.851 194.16 179.877 193.807 181.495C193.454 183.114 194.48 184.713 196.098 185.066L206.332 187.3C205.11 190.51 203.233 193.333 200.824 195.513L183.688 184.222C182.304 183.311 180.443 183.694 179.532 185.077C178.621 186.461 179.004 188.321 180.387 189.233L195.199 198.992C194.618 199.216 194.02 199.411 193.408 199.576C182.472 202.506 170.825 194.502 167.394 181.699C163.964 168.896 170.048 156.142 180.984 153.211C185.382 152.033 189.895 152.623 193.941 154.581 M219.976 208.132L238.577 220.387C242.842 213.236 245.847 205.044 247.38 196.263L227.018 191.817C225.677 197.843 223.276 203.396 219.976 208.132 M227.976 185.885L248.185 190.297C249.025 181.538 248.434 172.318 246.221 163.049L226.535 166.754C228.174 173.261 228.605 179.745 227.976 185.885 M224.756 160.983C222.827 155.73 220.195 150.96 217.038 146.799L234.299 135.645C238.617 142.067 242.14 149.325 244.621 157.245L224.756 160.983"></path>
</g>
</g>
</g>
<g id="g-root-cp_0a_g-0a_1qa39wo14kun0q-fill" data-item-order="-528744" transform="translate(234.40603637695312, 180.1699981689453)">
<g id="cp_0a_g-0a_1qa39wo14kun0q-fill-merged" stroke="none" fill="url(#gradient-cbcbcb-48637562)" fill-opacity="1.0">
<g>
<path d="M10.495 163.907C11.406 162.523 13.267 162.141 14.65 163.052L218.454 297.335C219.838 298.246 220.221 300.107 219.31 301.491C218.398 302.874 216.538 303.257 215.154 302.346L11.35 168.063C9.966 167.151 9.584 165.291 10.495 163.907 M24.77 160.325C25.123 158.707 26.722 157.681 28.341 158.034L242.59 204.812C244.209 205.165 245.235 206.764 244.882 208.382C244.528 210.001 242.93 211.027 241.311 210.674L27.061 163.896C25.442 163.543 24.417 161.944 24.77 160.325 M219.277 11.372C220.176 12.764 219.777 14.621 218.385 15.52L17.311 145.462C15.919 146.361 14.062 145.962 13.163 144.57C12.264 143.179 12.663 141.322 14.055 140.423L215.129 10.48C216.521 9.581 218.378 9.981 219.277 11.372 M244.719 107.296C245.026 108.925 243.954 110.493 242.326 110.8L30.611 150.644C28.982 150.95 27.414 149.879 27.107 148.251C26.801 146.622 27.872 145.054 29.5 144.747L241.216 104.903C242.844 104.597 244.413 105.668 244.719 107.296"></path>
</g>
</g>
</g>
<g id="g-root-cp_3_g-3_1upws1414kun7v-fill" data-item-order="-528740" transform="translate(428.49200439453125, 355.25604248046875)">
<g id="cp_3_g-3_1upws1414kun7v-fill-merged" stroke="none" fill="url(#gradient-76aaff-336274919)" fill-opacity="1.0">
<g>
<path d="M23.958 11.34L11.278 21.622L40.588 28.014L52.277 18.537C53.579 17.48 53.082 15.386 51.443 15.029L29.015 10.138C27.235 9.75 25.374 10.192 23.958 11.34 M17.248 42.111L10 27.483L39.311 33.875L45.992 47.359C46.736 48.861 45.412 50.558 43.773 50.201L21.346 45.31C19.565 44.921 18.057 43.744 17.248 42.111"></path>
</g>
</g>
</g>
<g id="g-root-cp_4_g-4_1qa39wo14kuner-fill" data-item-order="-528736" transform="translate(408.2460021972656, 441.5059509277344)">
<g id="cp_4_g-4_1qa39wo14kuner-fill-merged" stroke="none" fill="url(#gradient-ffeb37-9997561)" fill-opacity="1.0">
<g>
<path d="M28.823 10.294L13.296 15.338L38.357 31.827L52.669 27.178C54.264 26.66 54.551 24.527 53.151 23.605L33.974 10.988C32.452 9.986 30.556 9.73 28.823 10.294 M11.512 36.605L10 20.35L35.061 36.84L36.455 51.824C36.611 53.493 34.765 54.601 33.364 53.68L14.188 41.062C12.666 40.06 11.681 38.42 11.512 36.605"></path>
</g>
</g>
</g>
<g id="g-root-cp_2_g-2_mcc7vs14kunep-fill" data-item-order="-528732" transform="translate(428.96099853515625, 260.1939697265625)">
<g id="cp_2_g-2_mcc7vs14kunep-fill-merged" stroke="none" fill="url(#gradient-64edab-300750244)" fill-opacity="1.0">
<g>
<path d="M17.659 17.373L10 31.79L39.48 26.23L46.539 12.94C47.326 11.459 46.05 9.726 44.402 10.037L21.845 14.291C20.054 14.629 18.514 15.763 17.659 17.373 M23.499 48.324L11.114 37.687L40.594 32.126L52.009 41.931C53.282 43.024 52.725 45.103 51.077 45.414L28.52 49.668C26.729 50.006 24.881 49.511 23.499 48.324"></path>
</g>
</g>
</g>
<g id="g-root-cp_1_g-1_1hf2qqw14kunls-fill" data-item-order="-528728" transform="translate(408.2229919433594, 167.427978515625)">
<defs>
<linearGradient id="gradient-cbcbcb-48637562" x2="0" y2="1">
<stop offset="0" stop-color="#d9d9d9"></stop>
<stop offset="1" stop-color="#bcbcbc"></stop>
</linearGradient>
<linearGradient id="gradient-76aaff-336274919" x2="0" y2="1">
<stop offset="0" stop-color="#9cc2ff"></stop>
<stop offset="1" stop-color="#4f92ff"></stop>
</linearGradient>
<linearGradient id="gradient-ffeb37-9997561" x2="0" y2="1">
<stop offset="0" stop-color="#ffef63"></stop>
<stop offset="1" stop-color="#ffe60a"></stop>
</linearGradient>
<linearGradient id="gradient-64edab-300750244" x2="0" y2="1">
<stop offset="0" stop-color="#83fac1"></stop>
<stop offset="1" stop-color="#44e095"></stop>
</linearGradient>
<linearGradient id="gradient-bceb57-510249182" x2="0" y2="1">
<stop offset="0" stop-color="#cff976"></stop>
<stop offset="1" stop-color="#a8dd38"></stop>
</linearGradient>
</defs>
<g id="cp_1_g-1_1hf2qqw14kunls-fill-merged" stroke="none" fill="url(#gradient-bceb57-510249182)" fill-opacity="1.0">
<g>
<path d="M11.638 27.23L10 43.473L35.188 27.177L36.698 12.205C36.866 10.537 35.03 9.414 33.622 10.325L14.349 22.794C12.818 23.784 11.821 25.416 11.638 27.23 M28.745 53.675L13.258 48.511L38.446 32.216L52.722 36.975C54.313 37.506 54.584 39.641 53.175 40.552L33.902 53.021C32.372 54.011 30.474 54.251 28.745 53.675"></path>
</g>
</g>
</g>
<g id="g-root-tx_neuralne_143m8dk14kuoec-fill" data-item-order="0" transform="translate(242.0, 38.0)">
<g id="tx_neuralne_143m8dk14kuoec-fill-merged" stroke="none" fill="#484848" fill-opacity="1.0">
<g>
<text transform="translate(212.0, 13.0)" style="font-weight:bold; font-size:25px; font-family:'Roboto', napkin-fallback, sans-serif; white-space:pre;">
<tspan x="-198.3" y="30" dominant-baseline="ideographic">Neural Network Learning Outcomes</tspan>
</text>
</g>
</g>
</g>
<g id="g-root-tx_neuralne_58p9k14kup6p-fill" data-item-order="0" transform="translate(566.4920043945312, 134.0)">
<g id="tx_neuralne_58p9k14kup6p-fill-merged" stroke="none" fill="#92bd39" fill-opacity="1.0">
<g>
<text transform="translate(10.0, 10.0)" style="font-weight:bold; font-size:20px; font-family:'Roboto', napkin-fallback, sans-serif; white-space:pre;">
<tspan x="2" y="24" dominant-baseline="ideographic">Neural Network Processing</tspan>
</text>
</g>
</g>
</g>
<g id="g-root-tx_coreunde_mcyoyw14kum89-fill" data-item-order="0" transform="translate(566.4920043945312, 170.0)">
<g id="tx_coreunde_mcyoyw14kum89-fill-merged" stroke="none" fill="#484848" fill-opacity="1.0">
<g>
<text transform="translate(10.0, 19.0)" style="font-size:15px; font-family:'Roboto', napkin-fallback, sans-serif; white-space:pre;">
<tspan x="2" y="9" dominant-baseline="ideographic">Core understanding of neural network </tspan>
<tspan x="2" y="27" dominant-baseline="ideographic">operations</tspan>
</text>
</g>
</g>
</g>
<g id="g-root-ic_chip_1ur5q7c14kumfc-fill" data-item-order="0" transform="translate(506.00018310546875, 146.07000732421875)"></g>
<g id="g-root-tx_wordembe_1ltnap414kw2yx-fill" data-item-order="0" transform="translate(566.4920043945312, 266.0)">
<g id="tx_wordembe_1ltnap414kw2yx-fill-merged" stroke="none" fill="#3cc583" fill-opacity="1.0">
<g>
<text transform="translate(10.0, 10.0)" style="font-weight:bold; font-size:20px; font-family:'Roboto', napkin-fallback, sans-serif; white-space:pre;">
<tspan x="2" y="24" dominant-baseline="ideographic">Word Embeddings Visualization</tspan>
</text>
</g>
</g>
</g>
<g id="g-root-tx_abilityt_zmjs2w14kw3d7-fill" data-item-order="0" transform="translate(566.4920043945312, 302.0)">
<g id="tx_abilityt_zmjs2w14kw3d7-fill-merged" stroke="none" fill="#484848" fill-opacity="1.0">
<g>
<text transform="translate(10.0, 13.0)" style="font-size:15px; font-family:'Roboto', napkin-fallback, sans-serif; white-space:pre;">
<tspan x="2" y="18" dominant-baseline="ideographic">Ability to visualize word relationships</tspan>
</text>
</g>
</g>
</g>
<g id="g-root-ic_word_1heg9ns14kw26i-fill" data-item-order="0" transform="translate(506.0, 272.07000732421875)"></g>
<g id="g-root-tx_sequence_18n6l0o14kw2rs-fill" data-item-order="0" transform="translate(566.4920043945312, 386.0)">
<g id="tx_sequence_18n6l0o14kw2rs-fill-merged" stroke="none" fill="#4e88e7" fill-opacity="1.0">
<g>
<text transform="translate(10.0, 10.0)" style="font-weight:bold; font-size:20px; font-family:'Roboto', napkin-fallback, sans-serif; white-space:pre;">
<tspan x="2" y="24" dominant-baseline="ideographic">Sequence Model Diagram</tspan>
</text>
</g>
</g>
</g>
<g id="g-root-tx_understa_8zjs814kw3k4-fill" data-item-order="0" transform="translate(566.4920043945312, 422.0)">
<g id="tx_understa_8zjs814kw3k4-fill-merged" stroke="none" fill="#484848" fill-opacity="1.0">
<g>
<text transform="translate(10.0, 13.0)" style="font-size:15px; font-family:'Roboto', napkin-fallback, sans-serif; white-space:pre;">
<tspan x="2" y="18" dominant-baseline="ideographic">Understanding sequence model structures</tspan>
</text>
</g>
</g>
</g>
<g id="g-root-ic_mana_zrjkrs14kw3rc-fill" data-item-order="0" transform="translate(506.0, 392.07000732421875)"></g>
<g id="g-root-tx_transfor_1hckueg14kxg5h-fill" data-item-order="0" transform="translate(566.4920043945312, 506.0)">
<g id="tx_transfor_1hckueg14kxg5h-fill-merged" stroke="none" fill="#e0cb15" fill-opacity="1.0">
<g>
<text transform="translate(10.0, 22.0)" style="font-weight:bold; font-size:20px; font-family:'Roboto', napkin-fallback, sans-serif; white-space:pre;">
<tspan x="2" y="12" dominant-baseline="ideographic">Transformer Architecture </tspan>
<tspan x="2" y="36" dominant-baseline="ideographic">Components</tspan>
</text>
</g>
</g>
</g>
<g id="g-root-tx_knowledg_18gxu5k14kxgjq-fill" data-item-order="0" transform="translate(566.4920043945312, 566.0)">
<g id="tx_knowledg_18gxu5k14kxgjq-fill-merged" stroke="none" fill="#484848" fill-opacity="1.0">
<g>
<text transform="translate(10.0, 13.0)" style="font-size:15px; font-family:'Roboto', napkin-fallback, sans-serif; white-space:pre;">
<tspan x="2" y="18" dominant-baseline="ideographic">Knowledge of Transformer building blocks</tspan>
</text>
</g>
</g>
</g>
<g id="g-root-ic_2_de7bag14kxgy7-fill" data-item-order="0" transform="translate(506.0, 524.0700073242188)"></g>
<g id="g-root-cp_0d_g-0d_1ltnap414kuozr-stroke" data-item-order="-528758" transform="translate(30.000030517578125, 442.2559814453125)">
<g id="cp_0d_g-0d_1ltnap414kuozr-stroke" fill="none" stroke-linecap="round" stroke-linejoin="round" stroke-miterlimit="4" stroke="#484848" stroke-width="2" stroke-opacity="1.0">
<g>
<path d="M 19.312069 169.9731L 42.463869 169.9731C 43.597069 169.9731 44.633569 169.3345 45.143269 168.3223L 112.527569 34.5096C 106.811169 29.8033 101.340769 24.6548 96.164269 19.0975L 19.312069 169.9731ZM 11.933069 167.162L 19.312069 169.9731L 96.164269 19.0975C 93.443269 16.1764 90.803469 13.1423 88.251769 10L 10.327769 162.997C 9.518269 164.5865 10.266169 166.527 11.933069 167.162ZM 98.137769 206.9008L 105.312469 208.7141C 105.312469 208.7141 107.399969 209.1396 108.373769 209.2233L 142.927369 54.1986C 138.741969 52.1455 134.627769 49.8799 130.597869 47.4112L 95.944369 203.3415C 95.592169 204.9259 96.564169 206.5031 98.137769 206.9008ZM 108.373769 209.2233C 109.347569 209.3069 111.550769 209.0675 111.550769 209.0675L 132.500369 206.4488C 133.758369 206.2915 134.781769 205.3604 135.056769 204.1228L 144.646269 160.9731L 151.091169 131.9731L 166.368269 63.2307C 158.373169 60.9587 150.532869 57.9294 142.927369 54.1986L 108.373769 209.2233ZM 287.783969 142.2293L 280.140569 123.503C 279.647069 122.2939 278.428169 121.543 277.126369 121.646L 271.615069 122.0822L 151.091169 131.9731L 144.646269 160.9731L 281.792469 146.677L 285.286069 146.3499C 287.290269 146.1623 288.544669 144.093 287.783969 142.2293ZM 299.102469 183.1681L 309.925069 184.2707L 257.406469 57.3543L 246.097469 60.4166L 271.615069 122.0822L 277.126369 121.646C 278.428169 121.543 279.647069 122.2939 280.140569 123.503L 287.783969 142.2293C 288.544669 144.093 287.290269 146.1623 285.286069 146.3499L 281.792469 146.677L 295.812769 180.7556C 296.235969 181.7784 297.421569 182.9379 299.102469 183.1681ZM 309.925069 184.2707L 328.403269 181.9609C 330.369669 181.7151 331.561669 179.6642 330.801969 177.834L 278.161469 51.0183C 274.074269 52.6109 269.870869 53.9915 265.557269 55.1473L 265.552969 55.1485L 265.499469 55.1628L 257.406469 57.3543L 309.925069 184.2707ZM 265.499469 55.1628C 265.517269 55.158 265.535069 55.1532 265.552969 55.1485"></path>
</g>
</g>
</g>
<g id="g-root-cp_0c_g-0c_9098fc14kum8b-stroke" data-item-order="-528752" transform="translate(119.39495849609375, 182.76402282714844)">
<g id="cp_0c_g-0c_9098fc14kum8b-stroke" fill="none" stroke-linecap="round" stroke-linejoin="round" stroke-miterlimit="4" stroke="#484848" stroke-width="2" stroke-opacity="1.0">
<g>
<path d="M 229.212531 73.115269C 198.288731 25.646269 145.786331 0.174169 95.898931 13.541469C 31.082731 30.908869 -4.774769 107.262169 15.808831 184.081269C 36.392431 260.900369 105.622631 309.095569 170.438831 291.728069C 199.297431 283.995469 222.415431 264.569569 237.367031 238.615569L 218.863631 226.424069C 206.341431 246.969869 187.519831 262.304969 164.228231 268.545869C 110.081431 283.054469 52.281431 242.920869 35.128431 178.904969C 17.975431 114.888969 47.964831 51.232269 102.111631 36.723669C 143.045631 25.755469 186.067431 46.015769 212.037231 84.214669L 229.212531 73.115269ZM 215.297731 89.251469L 232.393531 78.203469C 240.151331 91.142369 246.345031 105.573969 250.528831 121.188269C 250.615531 121.511769 250.701231 121.835269 250.785831 122.158769L 231.077331 125.867869C 227.450931 112.523769 222.056531 100.224869 215.297731 89.251469ZM 194.042631 95.843569C 173.162331 66.724869 139.700431 51.497969 107.838431 60.035369C 64.627731 71.613669 40.722731 122.515769 54.445131 173.728569C 68.167531 224.941269 114.321031 257.071369 157.531731 245.493069C 175.335631 240.722569 189.862231 229.276169 199.829731 213.882869L 181.234731 201.630969C 173.922131 211.587969 163.873431 218.948269 151.803031 222.182469C 119.528331 230.830469 85.021331 206.703969 74.729531 168.294369C 64.437731 129.884869 82.258431 91.737169 114.533131 83.089169C 137.226931 77.008369 161.024431 87.131769 176.731231 107.030869L 194.042631 95.843569ZM 180.271131 111.887169L 197.400031 100.817669C 202.895031 109.475569 207.321931 119.199569 210.360431 129.766769L 190.592931 133.486969C 188.112331 125.567269 184.588831 118.309369 180.271131 111.887169ZM 159.072931 118.442469C 148.702231 107.704569 134.428431 102.604869 120.744831 106.271369C 99.139431 112.060569 87.186931 137.511669 94.048131 163.118069C 100.909331 188.724369 123.986131 204.789469 145.591431 199.000269C 152.053531 197.268769 157.652031 193.778369 162.141931 189.050969L 141.172331 175.234469C 140.590631 175.458769 139.992931 175.653869 139.379931 175.818069C 128.443831 178.748369 116.797431 170.744869 113.366831 157.941669C 109.936131 145.138469 116.020531 132.383969 126.956631 129.453669C 131.354231 128.275369 135.866731 128.865069 139.913731 130.823869L 159.072931 118.442469ZM 145.294031 134.490769L 163.010531 123.041569C 166.167431 127.202669 168.799431 131.972169 170.727831 137.225469L 150.440231 141.043569C 149.042831 138.520169 147.290631 136.310669 145.294031 134.490769ZM 152.794831 146.705769C 152.855331 146.912569 152.913631 147.120669 152.969731 147.330069C 153.916431 150.863369 154.138531 154.392869 153.734031 157.713269L 173.948531 162.126769C 174.576931 155.987269 174.146631 149.503569 172.507131 142.995969L 152.794831 146.705769ZM 192.192831 139.291169C 194.406631 148.560469 194.997231 157.780269 194.157031 166.538969L 214.324931 170.942269C 215.401231 159.564969 214.662731 147.611469 211.871931 135.587569L 192.192831 139.291169ZM 232.532631 131.699369C 235.925931 146.614869 236.790131 161.437069 235.416831 175.547269L 255.623231 179.958969C 257.211731 163.231469 256.184831 145.672269 252.206631 127.996669L 232.532631 131.699369ZM 254.938031 185.950769L 234.694731 181.530969C 232.631831 195.827669 228.244031 209.277269 221.848831 221.205569L 240.252031 233.331069C 247.639331 219.035469 252.657331 202.980769 254.938031 185.950769ZM 202.914831 208.730269C 208.179431 199.202869 211.822731 188.415669 213.584931 176.921969L 193.352431 172.504569C 191.819331 181.285969 188.814831 189.477569 184.549131 196.629369L 202.914831 208.730269ZM 165.948631 184.373869C 169.248431 179.637969 171.649831 174.084669 172.990831 168.058969L 152.304031 163.542369C 151.082131 166.752269 149.205831 169.574869 146.796731 171.754969L 165.948631 184.373869Z"></path>
</g>
</g>
</g>
<g id="g-root-cp_0b_g-0b_dg2qjs14kumtq-stroke" data-item-order="-528748" transform="translate(65.36700439453125, 159.00596618652344)">
<g id="cp_0b_g-0b_dg2qjs14kumtq-stroke" fill="none" stroke-linecap="round" stroke-linejoin="round" stroke-miterlimit="4" stroke="#484848" stroke-width="2" stroke-opacity="1.0">
<g>
<path d="M 197.4088 347.279594C 121.6566 367.577394 40.7799 311.378694 16.7657 221.756394C -7.2485 132.134094 34.6934 43.026294 110.4456 22.728594L 143.2273 13.851594C 136.5986 15.627794 130.2302 17.934594 124.1438 20.725994C 60.9206 49.721994 28.125 130.997894 50.0304 212.749994C 71.9354 294.500594 140.9729 348.489194 210.2224 341.991394C 216.8891 341.365794 223.5578 340.179694 230.1865 338.403794L 197.4088 347.279594ZM 230.1905 338.402694L 230.1865 338.403794"></path>
</g>
</g>
<g id="cp_0b_g-0b_dg2qjs14kumtq-stroke" fill="none" stroke-linecap="round" stroke-linejoin="round" stroke-miterlimit="4" stroke="#484848" stroke-width="2" stroke-opacity="1.0">
<g>
<path d="M 309.852369 274.535231C 292.503169 305.909931 265.101169 329.445131 230.678869 338.668531C 155.193369 358.894731 74.532969 302.638231 50.518769 213.015831C 26.504469 123.393531 68.230169 34.343731 143.715669 14.117431C 202.550569 -1.647369 264.529369 29.051031 300.379769 85.796731L 283.240269 96.872931C 252.316469 49.403831 199.814069 23.931631 149.926669 37.299031C 85.110469 54.666431 49.252969 131.019731 69.836569 207.838831C 90.420169 284.657931 159.650369 332.853031 224.466469 315.485631C 253.324969 307.753031 276.442869 288.327331 291.394469 262.373631L 309.852369 274.535231ZM 312.665969 269.203631C 321.047669 252.544531 326.698569 233.887531 329.199669 214.126431L 308.965669 209.708731C 306.684869 226.738731 301.666869 242.793431 294.279469 257.089131L 312.665969 269.203631ZM 288.722369 205.288931C 286.659469 219.585631 282.271669 233.035231 275.876369 244.963631L 256.942369 232.488231C 262.206969 222.960831 265.850369 212.173631 267.612569 200.679931L 288.722369 205.288931ZM 289.444469 199.305231L 268.352669 194.700231C 269.428969 183.322931 268.690569 171.369331 265.899769 159.345431L 286.560369 155.457131C 289.953769 170.372731 290.817869 185.195031 289.444469 199.305231ZM 309.650869 203.716931L 329.858569 208.128931C 331.662969 188.783931 330.473369 168.487531 325.909469 148.051731L 306.234469 151.754531C 310.212569 169.430131 311.239369 186.989331 309.650869 203.716931ZM 304.813669 145.916531L 324.513169 142.209231C 324.306069 141.396231 324.093569 140.583131 323.875769 139.770131C 319.134569 122.076031 312.185569 105.682531 303.504269 90.921331L 286.421269 101.961031C 294.179069 114.899931 300.372769 129.331531 304.556569 144.945831C 304.643269 145.269431 304.728969 145.593031 304.813669 145.916531ZM 285.105169 149.625631L 264.388269 153.524531C 261.349669 142.957231 256.922769 133.233231 251.427769 124.575331L 269.325469 113.009031C 276.084369 123.982531 281.478769 136.281431 285.105169 149.625631ZM 266.064969 107.972331C 240.095269 69.773331 197.073369 49.512931 156.139369 60.481231C 101.992569 74.989831 72.003169 138.646531 89.156169 202.662431C 106.309169 266.678431 164.109169 306.812031 218.255969 292.303431C 241.547369 286.062531 260.368869 270.727631 272.891069 250.182031L 253.857169 237.640831C 243.889669 253.033931 229.363269 264.480131 211.559469 269.250631C 168.348669 280.828931 122.195269 248.698831 108.472869 197.486131C 94.750469 146.273331 118.655469 95.371131 161.866169 83.792831C 193.728169 75.255531 227.190069 90.482431 248.070369 119.601131L 266.064969 107.972331ZM 230.758969 130.788431C 215.052169 110.889331 191.254669 100.765931 168.560769 106.846731C 136.286069 115.494731 118.465469 153.642331 128.757269 192.051931C 139.049069 230.461531 173.556069 254.588031 205.830769 245.940031C 217.900969 242.705831 227.949569 235.345631 235.262169 225.388931L 216.169269 212.808931C 211.679469 217.536131 206.081069 221.026431 199.619169 222.757831C 178.013869 228.546931 154.937069 212.481931 148.075869 186.875531C 141.214669 161.269231 153.167169 135.818131 174.772569 130.028931C 188.456169 126.362431 202.729969 131.462131 213.100669 142.200031L 230.758969 130.788431ZM 193.941469 154.581431L 183.092269 161.592631C 181.700569 162.491731 181.301269 164.348831 182.200369 165.740531C 183.099469 167.132131 184.956469 167.531531 186.348169 166.632431L 199.321769 158.248331C 201.318469 160.068331 203.070669 162.277831 204.468169 164.801331L 198.537669 165.917431C 196.909369 166.224031 195.837969 167.792431 196.144569 169.420731C 196.451069 171.048931 198.019569 172.120431 199.647869 171.813831L 206.822669 170.463531C 206.883069 170.670231 206.941369 170.878331 206.997469 171.087631C 207.944269 174.621031 208.166369 178.150731 207.761769 181.471231L 197.377769 179.204031C 195.758969 178.850731 194.160369 179.876631 193.807069 181.495331C 193.453769 183.114131 194.479669 184.712731 196.098369 185.066031L 206.331569 187.300331C 205.109669 190.510231 203.233269 193.332831 200.824069 195.512831L 183.687669 184.221931C 182.303969 183.310631 180.443469 183.693531 179.532069 185.077131C 178.620669 186.460831 179.003569 188.321331 180.387269 189.232731L 195.199469 198.992231C 194.617969 199.216431 194.020469 199.411431 193.407669 199.575631C 182.471569 202.505931 170.825069 194.502431 167.394469 181.699231C 163.963869 168.896031 170.048269 156.141531 180.984369 153.211231C 185.381969 152.032831 189.894569 152.622531 193.941469 154.581431ZM 219.976069 208.131831L 238.576569 220.387431C 242.842369 213.235631 245.846869 205.044031 247.380069 196.262531L 227.018469 191.816931C 225.677369 197.842631 223.275869 203.395931 219.976069 208.131831ZM 227.976169 185.884731L 248.184669 190.296831C 249.024969 181.538231 248.434369 172.318331 246.220569 163.048931L 226.534869 166.753731C 228.174369 173.261431 228.604669 179.745131 227.976169 185.884731ZM 224.755669 160.983231C 222.827269 155.729831 220.195169 150.960331 217.038269 146.799231L 234.298869 135.644731C 238.616569 142.067031 242.140169 149.325031 244.620769 157.244731L 224.755669 160.983231Z"></path>
</g>
</g>
</g>
<g id="g-root-cp_0a_g-0a_1qa39wo14kun0q-stroke" data-item-order="-528744" transform="translate(234.40603637695312, 180.1699981689453)">
<g id="cp_0a_g-0a_1qa39wo14kun0q-stroke" fill="none" stroke-linecap="round" stroke-linejoin="round" stroke-miterlimit="4" stroke="#484848" stroke-width="2" stroke-opacity="1.0">
<g>
<path d="M 10.494969 163.907185C 11.406269 162.523485 13.266769 162.140585 14.650469 163.051985L 218.454369 297.334985C 219.838069 298.246385 220.220869 300.106885 219.309569 301.490585C 218.398169 302.874285 216.537669 303.257185 215.153969 302.345785L 11.350169 168.062785C 9.966469 167.151385 9.583569 165.290885 10.494969 163.907185ZM 24.769869 160.325385C 25.123169 158.706685 26.721869 157.680785 28.340569 158.034085L 242.590269 204.811885C 244.209069 205.165085 245.234969 206.763785 244.881669 208.382485C 244.528369 210.001285 242.929669 211.027185 241.310969 210.673885L 27.061269 163.896085C 25.442469 163.542785 24.416669 161.944185 24.769869 160.325385ZM 219.276869 11.372385C 220.175969 12.764085 219.776669 14.621085 218.384969 15.520185L 17.311069 145.462385C 15.919369 146.361485 14.062369 145.962185 13.163269 144.570485C 12.264169 143.178885 12.663469 141.321785 14.055069 140.422685L 215.129069 10.480485C 216.520769 9.581385 218.377769 9.980685 219.276869 11.372385ZM 244.719069 107.296285C 245.025669 108.924585 243.954269 110.492985 242.325969 110.799585L 30.610669 150.643885C 28.982469 150.950385 27.413969 149.878985 27.107369 148.250785C 26.800869 146.622485 27.872269 145.053985 29.500469 144.747485L 241.215869 104.903185C 242.844069 104.596585 244.412569 105.668085 244.719069 107.296285Z"></path>
</g>
</g>
</g>
<g id="g-root-cp_3_g-3_1upws1414kun7v-stroke" data-item-order="-528740" transform="translate(428.49200439453125, 355.25604248046875)">
<g id="cp_3_g-3_1upws1414kun7v-stroke" fill="none" stroke-linecap="round" stroke-linejoin="round" stroke-miterlimit="4" stroke="#484848" stroke-width="2" stroke-opacity="1.0">
<g>
<path d="M 23.9579 11.3397L 11.2777 21.6221L 40.5884 28.0142L 52.2767 18.5365C 53.5793 17.4802 53.0817 15.3862 51.4432 15.0289L 29.0154 10.1378C 27.2345 9.7495 25.3737 10.1917 23.9579 11.3397ZM 17.2476 42.1112L 10 27.4829L 39.3107 33.875L 45.9915 47.3588C 46.7361 48.8615 45.4118 50.5581 43.7733 50.2008L 21.3455 45.3097C 19.5646 44.9213 18.0568 43.7445 17.2476 42.1112Z"></path>
</g>
</g>
</g>
<g id="g-root-cp_4_g-4_1qa39wo14kuner-stroke" data-item-order="-528736" transform="translate(408.2460021972656, 441.5059509277344)">
<g id="cp_4_g-4_1qa39wo14kuner-stroke" fill="none" stroke-linecap="round" stroke-linejoin="round" stroke-miterlimit="4" stroke="#484848" stroke-width="2" stroke-opacity="1.0">
<g>
<path d="M 28.8226 10.293631L 13.2961 15.337631L 38.3572 31.827431L 52.6692 27.178331C 54.2641 26.660131 54.5515 24.527131 53.1506 23.605331L 33.9744 10.987731C 32.4517 9.985831 30.5562 9.730431 28.8226 10.293631ZM 11.5121 36.605431L 10 20.350331L 35.0611 36.840131L 36.4552 51.823531C 36.6106 53.493331 34.7654 54.601331 33.3645 53.679531L 14.1883 41.061931C 12.6656 40.060031 11.6809 38.420331 11.5121 36.605431Z"></path>
</g>
</g>
</g>
<g id="g-root-cp_2_g-2_mcc7vs14kunep-stroke" data-item-order="-528732" transform="translate(428.96099853515625, 260.1939697265625)">
<g id="cp_2_g-2_mcc7vs14kunep-stroke" fill="none" stroke-linecap="round" stroke-linejoin="round" stroke-miterlimit="4" stroke="#484848" stroke-width="2" stroke-opacity="1.0">
<g>
<path d="M 17.6585 17.372615L 10 31.790115L 39.4797 26.229515L 46.5393 12.940115C 47.3261 11.459115 46.0503 9.725715 44.4024 10.036515L 21.8452 14.291315C 20.054 14.629215 18.5136 15.762915 17.6585 17.372615ZM 23.4985 48.323815L 11.1142 37.686915L 40.5939 32.126315L 52.0095 41.930915C 53.2817 43.023615 52.7251 45.102615 51.0772 45.413515L 28.52 49.668315C 26.7288 50.006115 24.8812 49.511415 23.4985 48.323815Z"></path>
</g>
</g>
</g>
<g id="g-root-cp_1_g-1_1hf2qqw14kunls-stroke" data-item-order="-528728" transform="translate(408.2229919433594, 167.427978515625)">
<g id="cp_1_g-1_1hf2qqw14kunls-stroke" fill="none" stroke-linecap="round" stroke-linejoin="round" stroke-miterlimit="4" stroke="#484848" stroke-width="2" stroke-opacity="1.0">
<g>
<path d="M 11.6379 27.229715L 10 43.472615L 35.1881 27.177415L 36.6981 12.205215C 36.8664 10.536615 35.0299 9.414315 33.6218 10.325315L 14.3485 22.794015C 12.8181 23.784115 11.8208 25.416215 11.6379 27.229715ZM 28.7452 53.674815L 13.2582 48.510815L 38.4463 32.215515L 52.7218 36.975315C 54.3127 37.505715 54.5836 39.640915 53.1755 40.551815L 33.9023 53.020615C 32.3719 54.010715 30.4744 54.251415 28.7452 53.674815Z"></path>
</g>
</g>
</g>
<g id="g-root-tx_neuralne_143m8dk14kuoec-stroke" data-item-order="0" transform="translate(242.0, 38.0)"></g>
<g id="g-root-tx_neuralne_58p9k14kup6p-stroke" data-item-order="0" transform="translate(566.4920043945312, 134.0)"></g>
<g id="g-root-tx_coreunde_mcyoyw14kum89-stroke" data-item-order="0" transform="translate(566.4920043945312, 170.0)"></g>
<g id="g-root-ic_chip_1ur5q7c14kumfc-stroke" data-item-order="0" transform="translate(506.00018310546875, 146.07000732421875)">
<g id="ic_chip_1ur5q7c14kumfc-stroke" fill="none" stroke-linecap="round" stroke-linejoin="round" stroke-miterlimit="4" stroke="#484848" stroke-width="2" stroke-opacity="1.0">
<g>
<path d="M 28.276094 18.771078C 30.212729 18.118074 31.345505 16.110052 30.902815 14.11481C 30.460125 12.119568 28.584398 10.779052 26.553316 11.006377C 24.522236 11.233703 22.989279 12.955729 22.998644 14.999471C 23.004065 15.360468 23.058558 15.719051 23.160627 16.065359C 22.93865 16.045362 22.724672 15.999367 22.498697 15.999367C 19.642244 15.985422 17.028399 17.603123 15.766623 20.165825C 14.504848 22.728527 14.816506 25.786634 16.569315 28.042112C 13.438449 28.256903 11.008505 30.859266 11.008505 33.99749C 11.008505 37.135715 13.438449 39.738075 16.569315 39.952869C 14.816506 42.208347 14.504848 45.266453 15.766623 47.829155C 17.028399 50.391857 19.642244 52.00956 22.498697 51.995613C 22.724672 51.995613 22.93865 51.949615 23.160627 51.929619C 22.566368 54.031845 23.76885 56.221977 25.861553 56.848934C 27.954256 57.475887 30.162868 56.30769 30.822369 54.225014C 31.481869 52.142338 30.348238 49.915787 28.276094 49.223904M 39.718903 18.771078C 37.782269 18.118074 36.64949 16.110052 37.092182 14.11481C 37.53487 12.119568 39.410599 10.779052 41.441681 11.006377C 43.472759 11.233703 45.005718 12.955729 44.996353 14.999471C 44.990932 15.360468 44.936436 15.719051 44.83437 16.065359C 45.056347 16.045362 45.270321 15.999367 45.4963 15.999367C 48.352753 15.985422 50.966599 17.603123 52.228374 20.165825C 53.490147 22.728527 53.17849 25.786634 51.425682 28.042112C 54.556545 28.256903 56.986492 30.859266 56.986492 33.99749C 56.986492 37.135715 54.556545 39.738075 51.425682 39.952869C 53.17849 42.208347 53.490147 45.266453 52.228374 47.829155C 50.966599 50.391857 48.352753 52.00956 45.4963 51.995613C 45.270321 51.995613 45.056347 51.949615 44.83437 51.929619C 45.428631 54.031845 44.226147 56.221977 42.133446 56.848934C 40.040741 57.475887 37.832127 56.30769 37.172626 54.225014C 36.513126 52.142338 37.646759 49.915787 39.718903 49.223904M 30.99781 14.799492C 32.854023 13.727807 35.140972 13.727807 36.997185 14.799492M 36.997185 53.195488C 35.140972 54.267174 32.854023 54.267174 30.99781 53.195488M 27.998123 25.998325L 39.996872 25.998325C 39.996872 25.998325 41.996666 25.998325 41.996666 27.998116L 41.996666 39.996864C 41.996666 39.996864 41.996666 41.996658 39.996872 41.996658L 27.998123 41.996658C 27.998123 41.996658 25.998333 41.996658 25.998333 39.996864L 25.998333 27.998116C 25.998333 27.998116 25.998333 25.998325 27.998123 25.998325M 29.997915 21.998741L 29.997915 25.998325M 37.997082 21.998741L 37.997082 25.998325M 21.998749 37.997074L 25.998333 37.997074M 21.998749 29.997908L 25.998333 29.997908M 37.997082 45.996239L 37.997082 41.996658M 29.997915 45.996239L 29.997915 41.996658M 45.996246 29.997908L 41.996666 29.997908M 45.996246 37.997074L 41.996666 37.997074"></path>
</g>
</g>
</g>
<g id="g-root-tx_wordembe_1ltnap414kw2yx-stroke" data-item-order="0" transform="translate(566.4920043945312, 266.0)"></g>
<g id="g-root-tx_abilityt_zmjs2w14kw3d7-stroke" data-item-order="0" transform="translate(566.4920043945312, 302.0)"></g>
<g id="g-root-ic_word_1heg9ns14kw26i-stroke" data-item-order="0" transform="translate(506.0, 272.07000732421875)">
<g id="ic_word_1heg9ns14kw26i-stroke" fill="none" stroke-linecap="round" stroke-linejoin="round" stroke-miterlimit="4" stroke="#484848" stroke-width="2" stroke-opacity="1.0">
<g>
<path d="M 22.998644 45.996246L 22.998644 51.995621C 22.998644 53.100075 23.893982 53.995415 24.998436 53.995415L 54.995308 53.995415C 56.099762 53.995415 56.995102 53.100075 56.995102 51.995621L 56.995102 15.999374C 56.995102 14.89492 56.099762 13.999583 54.995308 13.999583L 24.998436 13.999583C 23.893982 13.999583 22.998644 14.89492 22.998644 15.999374L 22.998644 21.998749M 34.997395 33.997498L 56.995102 33.997498M 34.997395 23.998541L 56.995102 23.998541M 34.997395 43.996456L 56.995102 43.996456M 12.999687 21.998749L 32.997601 21.998749C 32.997601 21.998749 34.997395 21.998749 34.997395 23.998541L 34.997395 43.996456C 34.997395 43.996456 34.997395 45.996246 32.997601 45.996246L 12.999687 45.996246C 12.999687 45.996246 10.999896 45.996246 10.999896 43.996456L 10.999896 23.998541C 10.999896 23.998541 10.999896 21.998749 12.999687 21.998749M 15.999374 27.998123L 18.999062 39.996872L 22.998644 27.998123L 26.998228 39.996872L 29.997915 27.998123"></path>
</g>
</g>
</g>
<g id="g-root-tx_sequence_18n6l0o14kw2rs-stroke" data-item-order="0" transform="translate(566.4920043945312, 386.0)"></g>
<g id="g-root-tx_understa_8zjs814kw3k4-stroke" data-item-order="0" transform="translate(566.4920043945312, 422.0)"></g>
<g id="g-root-ic_mana_zrjkrs14kw3rc-stroke" data-item-order="0" transform="translate(506.0, 392.07000732421875)">
<g id="ic_mana_zrjkrs14kw3rc-stroke" fill="none" stroke-linecap="round" stroke-linejoin="round" stroke-miterlimit="4" stroke="#484848" stroke-width="2" stroke-opacity="1.0">
<g>
<path d="M 11.999791 33.997498L 15.999374 33.997498M 23.998541 33.997498L 33.997498 33.997498M 41.996666 33.997498L 55.995205 33.997498M 51.949623 29.997915L 55.995205 33.997498L 51.949623 37.997082M 15.999374 33.997498C 15.999374 36.206406 17.790049 37.997082 19.998957 37.997082C 22.207867 37.997082 23.998541 36.206406 23.998541 33.997498C 23.998541 31.788589 22.207867 29.997915 19.998957 29.997915C 17.790049 29.997915 15.999374 31.788589 15.999374 33.997498M 33.997498 33.997498C 33.997498 36.206406 35.788174 37.997082 37.997082 37.997082C 40.20599 37.997082 41.996666 36.206406 41.996666 33.997498C 41.996666 31.788589 40.20599 29.997915 37.997082 29.997915C 35.788174 29.997915 33.997498 31.788589 33.997498 33.997498M 37.997082 29.997915L 37.997082 22.998644M 19.998957 44.996353L 19.998957 37.997082M 31.997707 10.999896L 43.996456 10.999896C 43.996456 10.999896 45.996246 10.999896 45.996246 12.999687L 45.996246 20.998854C 45.996246 20.998854 45.996246 22.998644 43.996456 22.998644L 31.997707 22.998644C 31.997707 22.998644 29.997915 22.998644 29.997915 20.998854L 29.997915 12.999687C 29.997915 12.999687 29.997915 10.999896 31.997707 10.999896M 13.999583 44.996353L 25.998333 44.996353C 25.998333 44.996353 27.998123 44.996353 27.998123 46.996143L 27.998123 54.995308C 27.998123 54.995308 27.998123 56.995102 25.998333 56.995102L 13.999583 56.995102C 13.999583 56.995102 11.999791 56.995102 11.999791 54.995308L 11.999791 46.996143C 11.999791 46.996143 11.999791 44.996353 13.999583 44.996353"></path>
</g>
</g>
</g>
<g id="g-root-tx_transfor_1hckueg14kxg5h-stroke" data-item-order="0" transform="translate(566.4920043945312, 506.0)"></g>
<g id="g-root-tx_knowledg_18gxu5k14kxgjq-stroke" data-item-order="0" transform="translate(566.4920043945312, 566.0)"></g>
<g id="g-root-ic_2_de7bag14kxgy7-stroke" data-item-order="0" transform="translate(506.0, 524.0700073242188)">
<g id="ic_2_de7bag14kxgy7-stroke" fill="none" stroke-linecap="round" stroke-linejoin="round" stroke-miterlimit="4" stroke="#484848" stroke-width="2" stroke-opacity="1.0">
<g>
<path d="M 17.999166 23.13063C 17.999166 20.226933 19.630997 17.625204 22.4727 17.025267C 25.026434 16.487324 28.782042 15.999374 33.997498 15.999374C 39.212955 15.999374 42.968563 16.487324 45.522297 17.025267C 48.362003 17.625204 49.995831 20.226933 49.995831 23.13063L 49.995831 42.864574C 49.995831 45.768269 48.363998 48.369999 45.522297 48.969936C 42.968563 49.507881 39.212955 49.995831 33.997498 49.995831C 28.782042 49.995831 25.026434 49.507881 22.4727 48.969936C 19.632996 48.369999 17.999166 45.768269 17.999166 42.864574L 17.999166 23.13063ZM 25.998333 23.998541L 25.998333 41.996666M 41.996666 23.998541L 41.996666 41.996666M 49.995831 25.998333L 55.995205 25.998333M 49.995831 39.996872L 55.995205 39.996872M 25.998333 25.998333L 41.996666 25.998333M 25.998333 39.996872L 41.996666 39.996872M 11.999791 25.998333L 17.999166 25.998333M 11.999791 39.996872L 17.999166 39.996872"></path>
</g>
</g>
</g>
</g>
</g>
<path id="w18f2ew814l1onf" d="M65.283 12.757a.35.35 0 0 0 .584.157l5.203-5.141-6.183 3.523.396 1.461zm-2.216-11.7a.35.35 0 0 0-.522.305v3.111l3.276-1.868-2.754-1.548zm3.728 2.105l-4.25 2.421v2.445l6.391-3.644-2.141-1.222zm4.708 3.303a.35.35 0 0 0 0-.609l-1.592-.9-7.365 4.199v1.782a.35.35 0 0 0 .523.305l8.435-4.777z M44.542 2.513c0-.433.355-.783.792-.783s.792.35.792.783-.355.783-.792.783-.792-.35-.792-.783zm59.171 0c0-.433.355-.783.792-.783s.792.35.792.783-.355.783-.792.783-.792-.35-.792-.783zm-85.951 7.636h-1.27v-.487c-.276.201-.864.609-1.881.609-1.202 0-2.274-.794-2.137-2.078.118-1.106 1.153-1.584 1.848-1.727l2.17-.345c0-.539-.29-.956-1.064-1.006s-1.21.305-1.571 1.017l-1.124-.605c1.218-2.631 5.029-1.764 5.029.414v4.207zm-1.27-2.86c.006.396-.062 1.112-.819 1.59-.587.37-1.841.299-1.903-.395-.049-.555.461-.791.906-.898l1.816-.297zm72.662 2.86h-1.27v-.487c-.276.201-.864.609-1.881.609-1.202 0-2.274-.794-2.137-2.078.118-1.106 1.153-1.584 1.848-1.727l2.17-.345c0-.539-.29-.956-1.064-1.006s-1.21.305-1.571 1.017l-1.124-.605c1.218-2.631 5.029-1.764 5.029.414v4.207zm-1.27-2.86c.006.396-.062 1.112-.82 1.59-.587.37-1.841.299-1.903-.395-.049-.555.461-.791.906-.898l1.816-.297zM99.096 10.149H97.85v-8.45h1.246v4.895l2.68-2.559h1.738l-2.633 2.535 2.715 3.578h-1.556l-2.077-2.707-.867.844v1.863zm6.053-6.114h-1.255v6.113h1.255V4.035zm-59.2 0h-1.255v6.113h1.255V4.035zm5.584 6.113V1.697h1.255v2.695c.361-.346 1-.485 1.47-.485 1.452 0 2.477 1.082 2.457 2.448v3.792h-1.27v-3.68c0-.408-.214-1.339-1.315-1.339-.968 0-1.342.756-1.342 1.339v3.681h-1.255zm-4.76-4.894V4.039h.621a.45.45 0 0 0 .45-.45v-.855h1.251v1.305h1.309v1.215h-1.309v3.109c0 .293.105.664.648.664.365 0 .531-.035.736-.07v1.137s-.361.113-.857.113c-1.398 0-1.777-1.051-1.777-1.788V5.254h-1.071zM36.528 4.039h-1.394l2.191 6.106h1.125l1.234-3.918 1.238 3.918h1.129l2.188-6.106h-1.383l-1.359 3.93-1.256-3.93h-1.124l-1.242 3.957-1.348-3.957zM26.212 7.141c-.02 1.566 1.187 3.129 3.223 3.129 1.566 0 2.383-.918 2.734-1.719L31.172 8c-.315.399-.801 1.094-1.738 1.094-1.145 0-1.825-.781-1.891-1.52h4.625c.074-.284.148-.995-.03-1.559-.336-1.064-1.221-2.102-2.839-2.102s-3.088 1.152-3.088 3.227zm1.363-.75h3.348c-.055-.43-.566-1.301-1.623-1.301a1.79 1.79 0 0 0-1.725 1.301zm-8.758.75c.038 1.758 1.277 3.133 3.145 3.133 1.074 0 1.723-.477 1.961-.672v.547h1.242V1.703h-1.258v2.888c-.414-.36-1.062-.68-1.93-.68-1.91 0-3.198 1.473-3.16 3.23zm1.309-.08c0 1.119.723 1.978 1.836 1.978a1.88 1.88 0 0 0 1.94-1.904c0-1.371-1.011-1.99-1.972-1.99s-1.805.798-1.805 1.916zm76.683-.028C96.771 5.275 95.532 3.9 93.664 3.9c-1.074 0-1.723.477-1.961.672v-.547h-1.242v8.22h1.258V9.583c.414.36 1.063.68 1.93.68 1.91 0 3.198-1.473 3.16-3.23zm-1.309.08c0-1.119-.723-1.978-1.836-1.978a1.88 1.88 0 0 0-1.94 1.904c0 1.371 1.011 1.99 1.972 1.99S95.5 8.231 95.5 7.113zM106.441 10.173V4.036h1.254v.382c.361-.346 1-.485 1.47-.485 1.452 0 2.477 1.082 2.457 2.448v3.792h-1.27V6.492c0-.408-.214-1.339-1.315-1.339-.969 0-1.342.756-1.342 1.339v3.681h-1.254zm-30.383-.021V1.824h1.084l4.215 5.777V1.824h1.32v8.328h-1.094l-4.207-5.796v5.796h-1.319zM5.24 10.149H4V2.377h1.014l2.664 3.597 2.654-3.592h1.03v7.766h-1.256V4.762L7.678 8.068 5.24 4.742v5.407z" transform="translate(776.0, 674.0)" fill="#80808088" stroke="none"></path>
</svg>