<?xml version="1.0" encoding="utf-8" standalone="yes"?>
<!DOCTYPE svg PUBLIC "-//W3C//DTD SVG 1.1//EN" "http://www.w3.org/Graphics/SVG/1.1/DTD/svg11.dtd">
<svg version="1.1" xmlns="http://www.w3.org/2000/svg" xmlns:xlink="http://www.w3.org/1999/xlink" width="912" height="781" viewBox="0 0 912 781" style="fill:none; stroke:none; fill-rule:evenodd; clip-rule:evenodd; stroke-linecap:round; stroke-linejoin:round; stroke-miterlimit:1.5;">
<style class="text-font-style fontImports" data-font-family="Roboto">
@import url(https://fonts.googleapis.com/css2?family=Roboto:wght@400;700&amp;display=block);
</style>
<style class="text-font-style">
@import url(https://app.napkin.ai/fonts/font-face.web.napkin-fallback.css);
@import url(https://app.napkin.ai/fonts/font-face.web.shantell-sans.css);
@import url(https://app.napkin.ai/fonts/font-face.web.roboto.css);
</style>
<g id="items" style="isolation:isolate;">
<g id="blend" style="mix-blend-mode:normal;">
<g id="g-root-cp_0d_g-0d_18efl1kcuepsd-fill" data-item-order="-590966" transform="translate(33.490020751953125, 499.1019592285156)">
<g id="cp_0d_g-0d_18efl1kcuepsd-fill-merged" stroke="none" fill="url(#gradient-cbcbcb-48637562)" fill-opacity="1.0">
<g>
<path d="M19.312 169.973 H42.464C43.597 169.973 44.634 169.335 45.143 168.322L112.528 34.51C106.811 29.803 101.341 24.655 96.164 19.098L19.312 169.973 M11.933 167.162L19.312 169.973L96.164 19.098C93.443 16.176 90.803 13.142 88.252 10L10.328 162.997C9.518 164.587 10.266 166.527 11.933 167.162 M98.138 206.901L105.312 208.714C105.312 208.714 107.4 209.14 108.374 209.223L142.927 54.199C138.742 52.146 134.628 49.88 130.598 47.411L95.944 203.342C95.592 204.926 96.564 206.503 98.138 206.901 M108.374 209.223C109.348 209.307 111.551 209.068 111.551 209.068L132.5 206.449C133.758 206.292 134.782 205.36 135.057 204.123L144.646 160.973L151.091 131.973L166.368 63.231C158.373 60.959 150.533 57.929 142.927 54.199L108.374 209.223 M287.784 142.229L280.141 123.503C279.647 122.294 278.428 121.543 277.126 121.646L271.615 122.082L151.091 131.973L144.646 160.973L281.792 146.677L285.286 146.35C287.29 146.162 288.545 144.093 287.784 142.229 M299.102 183.168L309.925 184.271L257.406 57.354L246.097 60.417L271.615 122.082L277.126 121.646C278.428 121.543 279.647 122.294 280.141 123.503L287.784 142.229C288.545 144.093 287.29 146.162 285.286 146.35L281.792 146.677L295.813 180.756C296.236 181.778 297.422 182.938 299.102 183.168 M309.925 184.271L328.403 181.961C330.37 181.715 331.562 179.664 330.802 177.834L278.161 51.018C274.074 52.611 269.871 53.992 265.557 55.147L257.406 57.354L309.925 184.271"></path>
</g>
</g>
</g>
<g id="g-root-cp_0c_g-0c_qn5kjscueq6c-fill" data-item-order="-590960" transform="translate(122.39596557617188, 239.33599853515625)">
<g id="cp_0c_g-0c_qn5kjscueq6c-fill-merged" stroke="none" fill="url(#gradient-cbcbcb-48637562)" fill-opacity="1.0">
<g>
<path d="M15.809 184.081C36.392 260.9 105.623 309.095 170.439 291.728C192.987 285.686 212.03 272.507 226.412 254.652L209.267 239.702C197.465 253.531 182.173 263.738 164.228 268.546C110.081 283.054 52.281 242.921 35.128 178.905C17.975 114.889 47.965 51.232 102.112 36.724C136.803 27.428 172.993 40.562 199.033 68.036L214.195 53.596C182.854 18.976 138.426 2.146 95.899 13.541C31.083 30.909 -4.775 107.262 15.809 184.081 M183.227 83.089L167.939 97.649C152.857 84.124 133.317 78.056 114.533 83.089C82.258 91.737 64.438 129.885 74.73 168.294C85.021 206.704 119.528 230.83 151.803 222.182C160.492 219.854 168.134 215.388 174.461 209.353L191.732 224.413C182.573 234.468 170.989 241.887 157.532 245.493C114.321 257.071 68.168 224.941 54.445 173.729C40.723 122.516 64.628 71.614 107.838 60.035C134.653 52.851 162.6 62.497 183.227 83.089 M136.59 176.331L156.642 193.816C153.336 196.147 149.633 197.917 145.591 199C123.986 204.789 100.909 188.724 94.048 163.118C87.187 137.512 99.139 112.061 120.745 106.271C131.629 103.355 142.886 105.985 152.255 112.586L134.859 129.154C132.267 128.676 129.591 128.748 126.957 129.454C116.021 132.384 109.936 145.138 113.367 157.942C116.507 169.66 126.529 177.358 136.59 176.331 M195.601 219.825L178.583 204.986C183.653 199.024 187.64 191.93 190.359 184.103L210.274 191.361C207.002 201.931 202.029 211.594 195.601 219.825 M230.066 249.878L213.026 235.019C220.948 224.526 227.022 212.263 230.935 198.89L250.836 206.142C246.386 222.281 239.34 237.123 230.066 249.878 M235.866 155.741 H256.086C256.939 171.149 255.605 186.168 252.32 200.297L232.484 193.069C235.326 181.244 236.52 168.659 235.866 155.741 M226.625 112.221C228.375 116.789 229.91 121.508 231.211 126.365C233.309 134.192 234.701 142.014 235.431 149.741 H255.645C254.779 140.306 253.091 130.751 250.529 121.188C249.033 115.605 247.28 110.173 245.29 104.906L226.625 112.221 M191.607 136.977C192.751 141.249 193.548 145.517 194.016 149.741 H214.23C213.626 143.807 212.534 137.806 210.925 131.8C209.828 127.707 208.525 123.736 207.032 119.9L188.359 127.217C189.616 130.352 190.704 133.61 191.607 136.977 M194.463 155.741C194.762 163.587 193.93 171.212 192.094 178.349L211.876 185.558C214.176 176.119 215.163 166.066 214.677 155.741 H194.463 M161.297 189.913L143.319 174.237C145.62 172.975 147.61 171.222 149.224 169.112L170.183 176.75C168.006 181.773 165.002 186.251 161.297 189.913 M153.899 155.741C153.768 158.591 153.183 161.321 152.2 163.811L172.212 171.103C173.611 166.279 174.31 161.094 174.216 155.741 H153.899 M152.97 147.33C153.185 148.135 153.363 148.939 153.505 149.741 H173.782C173.463 147.226 172.968 144.691 172.288 142.154C171.58 139.511 170.699 136.969 169.665 134.543L150.894 141.899C151.752 143.587 152.454 145.404 152.97 147.33 M141.134 131.464C143.484 132.794 145.648 134.595 147.504 136.784L167.007 129.141C164.253 124.241 160.838 119.943 156.965 116.386L141.134 131.464 M172.241 101.838C177.614 107.511 182.271 114.207 185.928 121.726L204.707 114.366C200.139 104.263 194.229 95.207 187.344 87.454L172.241 101.838 M203.057 72.49L218.137 58.128C228.134 70.087 236.627 83.948 243.071 99.332L224.36 106.665C218.82 93.868 211.564 82.369 203.057 72.49"></path>
</g>
</g>
</g>
<g id="g-root-cp_0b_g-0b_1q5pljccueqrs-fill" data-item-order="-590956" transform="translate(68.85699462890625, 215.46499633789062)">
<g id="cp_0b_g-0b_1q5pljccueqrs-fill-merged" stroke="none" fill="url(#gradient-cbcbcb-48637562)" fill-opacity="1.0">
<g>
<path d="M197.409 347.658C121.657 367.956 40.78 311.758 16.766 222.135C-7.248 132.513 34.693 43.405 110.446 23.107L143.227 14.23C136.599 16.007 130.23 18.313 124.144 21.105C60.921 50.101 28.125 131.377 50.03 213.129C71.935 294.879 140.973 348.868 210.222 342.37C216.889 341.745 223.558 340.559 230.186 338.783L197.409 347.658"></path>
</g>
</g>
<g id="cp_0b_g-0b_1q5pljccueqrs-fill-merged" stroke="none" fill="url(#gradient-cbcbcb-48637562)" fill-opacity="1.0">
<g>
<path d="M245.435 248.171C236.276 258.225 224.692 265.645 211.235 269.251C168.024 280.829 121.871 248.699 108.149 197.486C94.426 146.273 118.331 95.371 161.542 83.793C188.356 76.608 216.304 86.254 236.932 106.847L252.737 91.794C226.697 64.32 190.507 51.186 155.815 60.481C101.668 74.99 71.679 138.646 88.832 202.662C105.985 266.678 163.785 306.812 217.932 292.303C235.877 287.495 251.168 277.289 262.97 263.46L245.435 248.171 M245.435 248.171C245.435 248.171 248.068 245.167 249.304 243.583 M249.304 243.583L266.729 258.777C274.652 248.285 280.725 236.022 284.638 222.648L263.977 215.119C260.705 225.69 255.732 235.352 249.304 243.583 M283.021 62.953C246.411 21.17 193.75 0.624 143.391 14.117C67.906 34.344 26.18 123.394 50.195 213.016C74.209 302.638 154.869 358.895 230.355 338.668C257.502 331.394 280.283 315.219 297.21 293.316L280.115 278.41C265.733 296.264 246.69 309.444 224.142 315.486C159.326 332.853 90.096 284.658 69.512 207.839C48.929 131.02 84.786 54.666 149.602 37.299C192.13 25.904 236.559 42.734 267.899 77.355L283.021 62.953 M300.789 288.477C311.413 273.462 319.432 256.046 324.417 237.145L304.539 229.901C300.09 246.04 293.043 260.881 283.769 273.636L300.789 288.477 M325.855 231.283C329.586 214.85 331.06 197.397 330.009 179.5 H309.79C310.643 194.908 309.309 209.926 306.023 224.056L325.855 231.283 M329.563 173.5C328.561 162.357 326.579 151.068 323.552 139.77C321.861 133.46 319.889 127.315 317.658 121.351L298.994 128.665C300.984 133.931 302.736 139.363 304.232 144.946C306.795 154.509 308.482 164.064 309.349 173.5 H329.563 M315.471 115.763C308.123 97.796 298.392 81.576 286.905 67.54L271.841 81.886C281.838 93.846 290.331 107.707 296.775 123.09L315.471 115.763 M256.761 96.248C265.269 106.128 272.524 117.626 278.064 130.423L258.411 138.125C253.844 128.022 247.934 118.966 241.048 111.213L256.761 96.248 M286.187 216.827C289.029 205.002 290.223 192.418 289.57 179.5 H268.38C268.866 189.825 267.879 199.878 265.58 209.317L286.187 216.827 M289.135 173.5C288.405 165.772 287.012 157.95 284.915 150.122C283.614 145.266 282.079 140.548 280.329 135.98L260.736 143.658C262.228 147.494 263.532 151.465 264.629 155.557C266.238 161.564 267.33 167.565 267.934 173.5 H289.135 M225.946 125.596C231.318 131.27 235.975 137.966 239.632 145.484L220.711 152.9C217.957 148 214.542 143.701 210.669 140.145L225.946 125.596 M221.644 121.407C206.561 107.882 187.021 101.813 168.237 106.847C135.962 115.495 118.141 153.642 128.433 192.052C138.725 230.462 173.232 254.588 205.507 245.94C214.196 243.612 221.837 239.145 228.164 233.111L210.345 217.574C207.039 219.904 203.336 221.675 199.295 222.758C177.69 228.547 154.613 212.482 147.752 186.876C140.89 161.269 152.843 135.818 174.448 130.029C185.333 127.113 196.59 129.742 205.96 136.344L221.644 121.407 M232.286 228.744C237.356 222.782 241.343 215.688 244.062 207.861L223.886 200.508C221.709 205.532 218.705 210.009 215 213.671L232.286 228.744 M245.797 202.107C247.634 194.971 248.465 187.346 248.166 179.5 H227.92C228.013 184.853 227.315 190.038 225.915 194.862L245.797 202.107 M247.72 173.5C247.252 169.275 246.455 165.007 245.31 160.735C244.408 157.368 243.32 154.111 242.063 150.976L223.369 158.302C224.403 160.728 225.284 163.269 225.992 165.911C226.672 168.449 227.167 170.985 227.486 173.5 H247.72 M194.838 155.222C197.189 156.552 199.353 158.354 201.208 160.542L195.708 162.698C194.166 163.302 193.405 165.043 194.01 166.586C194.615 168.128 196.355 168.889 197.898 168.284L204.599 165.658C205.456 167.346 206.157 169.162 206.673 171.088C206.889 171.893 207.067 172.698 207.209 173.5 H188.799C187.142 173.5 185.799 174.843 185.799 176.5C185.799 178.157 187.142 179.5 188.799 179.5 H207.602C207.472 182.349 206.886 185.079 205.903 187.569L197.103 184.362C195.546 183.795 193.825 184.597 193.258 186.154C192.69 187.711 193.493 189.432 195.049 190L202.927 192.871C201.313 194.98 199.323 196.733 197.021 197.995L182.864 185.65C181.615 184.562 179.72 184.692 178.631 185.941C177.542 187.189 177.672 189.085 178.921 190.173L190.293 200.089C180.232 201.115 170.21 193.417 167.07 181.699C163.64 168.896 169.724 156.141 180.66 153.211C183.295 152.505 185.972 152.434 188.564 152.912L179.729 161.327C178.529 162.469 178.482 164.368 179.625 165.568C180.768 166.768 182.667 166.814 183.867 165.671L194.838 155.222"></path>
</g>
</g>
</g>
<g id="g-root-cp_0a_g-0a_1lpw3ewcuer5w-fill" data-item-order="-590952" transform="translate(236.58399963378906, 212.2659454345703)">
<g id="cp_0a_g-0a_1lpw3ewcuer5w-fill-merged" stroke="none" fill="url(#gradient-cbcbcb-48637562)" fill-opacity="1.0">
<g>
<path d="M10.739 189.099C11.827 187.85 13.722 187.72 14.971 188.809L198.926 349.21C200.175 350.299 200.305 352.194 199.216 353.443C198.127 354.692 196.232 354.822 194.983 353.733L11.029 193.332C9.78 192.243 9.65 190.348 10.739 189.099 M25.365 189.465C25.932 187.908 27.654 187.106 29.211 187.673L235.252 262.76C236.809 263.327 237.611 265.049 237.044 266.606C236.477 268.163 234.755 268.965 233.198 268.398L27.157 193.31C25.6 192.743 24.798 191.021 25.365 189.465 M177.577 10.931C178.72 12.131 178.674 14.03 177.474 15.172L15.974 168.982C14.774 170.125 12.875 170.078 11.733 168.879C10.59 167.679 10.636 165.78 11.836 164.637L173.336 10.828C174.536 9.685 176.435 9.731 177.577 10.931 M224.459 92.167C225.063 93.71 224.303 95.45 222.76 96.055L30.005 171.595C28.463 172.199 26.722 171.439 26.117 169.896C25.513 168.354 26.273 166.613 27.816 166.008L220.571 90.469C222.113 89.864 223.854 90.625 224.459 92.167 M240.905 182.811 H20.906C19.249 182.811 17.906 181.467 17.906 179.811C17.906 178.154 19.249 176.811 20.906 176.811 H240.905C242.562 176.811 243.905 178.154 243.905 179.811C243.905 181.467 242.562 182.811 240.905 182.811"></path>
</g>
</g>
</g>
<g id="g-root-cp_3_g-3_1q6c2mgcueo7d-fill" data-item-order="-590948" transform="translate(430.989990234375, 364.07000732421875)">
<g id="cp_3_g-3_1q6c2mgcueo7d-fill-merged" stroke="none" fill="url(#gradient-76aaff-336274919)" fill-opacity="1.0">
<g>
<path d="M20.198 12.252L10 25 H40L49.4 13.249C50.448 11.94 49.515 10 47.838 10 H24.883C23.061 10 21.337 10.829 20.198 12.252 M20.198 43.748L10 31 H40L49.4 42.751C50.448 44.06 49.515 46 47.838 46 H24.883C23.061 46 21.337 45.171 20.198 43.748"></path>
</g>
</g>
</g>
<g id="g-root-cp_4_g-4_1hap2dkcueoef-fill" data-item-order="-590944" transform="translate(423.98199462890625, 442.63299560546875)">
<g id="cp_4_g-4_1hap2dkcueoef-fill-merged" stroke="none" fill="url(#gradient-fcaa5f-284141256)" fill-opacity="1.0">
<g>
<path d="M25.997 10.875L12.052 19.364L40.241 29.629L53.094 21.804C54.527 20.932 54.315 18.791 52.739 18.217L31.17 10.362C29.457 9.738 27.553 9.927 25.997 10.875 M15.22 40.467L10 24.999L38.189 35.264L43.001 49.522C43.537 51.111 41.997 52.615 40.422 52.041L18.852 44.186C17.14 43.563 15.803 42.194 15.22 40.467"></path>
</g>
</g>
</g>
<g id="g-root-cp_5_g-5_13z8k08cueolj-fill" data-item-order="-590940" transform="translate(392.6229553222656, 523.7850341796875)">
<g id="cp_5_g-5_13z8k08cueolj-fill-merged" stroke="none" fill="url(#gradient-ffeb37-9997561)" fill-opacity="1.0">
<g>
<path d="M30.687 10.097L14.625 13.013L37.248 32.714L52.054 30.027C53.704 29.727 54.275 27.652 53.01 26.551L35.7 11.475C34.325 10.278 32.481 9.771 30.687 10.097 M10.005 33.849L10.687 17.537L33.31 37.239L32.682 52.274C32.612 53.95 30.635 54.8 29.371 53.699L12.06 38.624C10.685 37.427 9.929 35.67 10.005 33.849"></path>
</g>
</g>
</g>
<g id="g-root-cp_2_g-2_v3ljrccueosm-fill" data-item-order="-590936" transform="translate(411.8919982910156, 278.66802978515625)">
<g id="cp_2_g-2_v3ljrccueosm-fill-merged" stroke="none" fill="url(#gradient-64edab-300750244)" fill-opacity="1.0">
<g>
<path d="M14.838 22.333L10 37.925L37.928 26.969L42.387 12.597C42.884 10.995 41.308 9.53 39.747 10.142L18.377 18.525C16.681 19.191 15.378 20.592 14.838 22.333 M26.342 51.654L12.192 43.511L40.12 32.555L53.162 40.061C54.616 40.897 54.456 43.044 52.895 43.656L31.526 52.039C29.829 52.705 27.921 52.563 26.342 51.654"></path>
</g>
</g>
</g>
<g id="g-root-cp_1_g-1_v3ljrccueozr-fill" data-item-order="-590932" transform="translate(372.3020324707031, 200.5)">
<defs>
<linearGradient id="gradient-cbcbcb-48637562" x2="0" y2="1">
<stop offset="0" stop-color="#d9d9d9"></stop>
<stop offset="1" stop-color="#bcbcbc"></stop>
</linearGradient>
<linearGradient id="gradient-76aaff-336274919" x2="0" y2="1">
<stop offset="0" stop-color="#9cc2ff"></stop>
<stop offset="1" stop-color="#4f92ff"></stop>
</linearGradient>
<linearGradient id="gradient-fcaa5f-284141256" x2="0" y2="1">
<stop offset="0" stop-color="#ffbf84"></stop>
<stop offset="1" stop-color="#f99539"></stop>
</linearGradient>
<linearGradient id="gradient-ffeb37-9997561" x2="0" y2="1">
<stop offset="0" stop-color="#ffef63"></stop>
<stop offset="1" stop-color="#ffe60a"></stop>
</linearGradient>
<linearGradient id="gradient-64edab-300750244" x2="0" y2="1">
<stop offset="0" stop-color="#83fac1"></stop>
<stop offset="1" stop-color="#44e095"></stop>
</linearGradient>
<linearGradient id="gradient-bceb57-510249182" x2="0" y2="1">
<stop offset="0" stop-color="#cff976"></stop>
<stop offset="1" stop-color="#a8dd38"></stop>
</linearGradient>
</defs>
<g id="cp_1_g-1_v3ljrccueozr-fill-merged" stroke="none" fill="url(#gradient-bceb57-510249182)" fill-opacity="1.0">
<g>
<path d="M10.023 31.26L11.44 47.524L33.151 26.821L31.845 11.829C31.699 10.159 29.686 9.398 28.472 10.555L11.859 26.397C10.54 27.655 9.864 29.444 10.023 31.26 M31.758 54.055L15.58 51.867L37.291 31.164L52.203 33.181C53.865 33.405 54.529 35.453 53.316 36.61L36.703 52.451C35.384 53.709 33.565 54.299 31.758 54.055"></path>
</g>
</g>
</g>
<g id="g-root-tx_coreconc_hs51e0cueqkq-fill" data-item-order="0" transform="translate(566.4920043945312, 176.0)">
<g id="tx_coreconc_hs51e0cueqkq-fill-merged" stroke="none" fill="#484848" fill-opacity="1.0">
<g>
<text transform="translate(10.0, 13.0)" style="font-size:15px; font-family:'Roboto', napkin-fallback, sans-serif; white-space:pre;">
<tspan x="2" y="18" dominant-baseline="ideographic">Core concept of machine learning</tspan>
</text>
</g>
</g>
</g>
<g id="g-root-ic_1_18f224ocueqrz-fill" data-item-order="0" transform="translate(506.0, 146.07000732421875)"></g>
<g id="g-root-tx_textproc_ddkhfscug5qn-fill" data-item-order="0" transform="translate(566.4920043945312, 260.0)">
<g id="tx_textproc_ddkhfscug5qn-fill-merged" stroke="none" fill="#3cc583" fill-opacity="1.0">
<g>
<text transform="translate(10.0, 10.0)" style="font-weight:bold; font-size:20px; font-family:'Roboto', napkin-fallback, sans-serif; white-space:pre;">
<tspan x="2" y="24" dominant-baseline="ideographic">Text Processing</tspan>
</text>
</g>
</g>
</g>
<g id="g-root-tx_techniqu_1413z9kcug2ru-fill" data-item-order="0" transform="translate(566.4920043945312, 296.0)">
<g id="tx_techniqu_1413z9kcug2ru-fill-merged" stroke="none" fill="#484848" fill-opacity="1.0">
<g>
<text transform="translate(10.0, 13.0)" style="font-size:15px; font-family:'Roboto', napkin-fallback, sans-serif; white-space:pre;">
<tspan x="2" y="18" dominant-baseline="ideographic">Techniques for handling textual data</tspan>
</text>
</g>
</g>
</g>
<g id="g-root-tx_neuralne_v3ljrccueq6c-fill" data-item-order="0" transform="translate(566.4920043945312, 140.0)">
<g id="tx_neuralne_v3ljrccueq6c-fill-merged" stroke="none" fill="#92bd39" fill-opacity="1.0">
<g>
<text transform="translate(10.0, 10.0)" style="font-weight:bold; font-size:20px; font-family:'Roboto', napkin-fallback, sans-serif; white-space:pre;">
<tspan x="2" y="24" dominant-baseline="ideographic">Neural Networks</tspan>
</text>
</g>
</g>
</g>
<g id="g-root-tx_wordembe_zpnsqwcuhix6-fill" data-item-order="0" transform="translate(566.4920043945312, 380.0)">
<g id="tx_wordembe_zpnsqwcuhix6-fill-merged" stroke="none" fill="#4e88e7" fill-opacity="1.0">
<g>
<text transform="translate(10.0, 10.0)" style="font-weight:bold; font-size:20px; font-family:'Roboto', napkin-fallback, sans-serif; white-space:pre;">
<tspan x="2" y="24" dominant-baseline="ideographic">Word Embeddings</tspan>
</text>
</g>
</g>
</g>
<g id="g-root-tx_vectorre_1d1qs7ccuhhjc-fill" data-item-order="0" transform="translate(566.4920043945312, 416.0)">
<g id="tx_vectorre_1d1qs7ccuhhjc-fill-merged" stroke="none" fill="#484848" fill-opacity="1.0">
<g>
<text transform="translate(10.0, 13.0)" style="font-size:15px; font-family:'Roboto', napkin-fallback, sans-serif; white-space:pre;">
<tspan x="2" y="18" dominant-baseline="ideographic">Vector representations of words</tspan>
</text>
</g>
</g>
</g>
<g id="g-root-ic_coup_1d1qs7ccuhi4q-fill" data-item-order="0" transform="translate(506.0, 386.07000732421875)"></g>
<g id="g-root-tx_sequence_hyds94cukc1s-fill" data-item-order="0" transform="translate(566.4920043945312, 500.0)">
<g id="tx_sequence_hyds94cukc1s-fill-merged" stroke="none" fill="#de8431" fill-opacity="1.0">
<g>
<text transform="translate(10.0, 10.0)" style="font-weight:bold; font-size:20px; font-family:'Roboto', napkin-fallback, sans-serif; white-space:pre;">
<tspan x="2" y="24" dominant-baseline="ideographic">Sequence Models</tspan>
</text>
</g>
</g>
</g>
<g id="g-root-tx_modelsfo_1usebm0cukcgd-fill" data-item-order="0" transform="translate(566.4920043945312, 536.0)">
<g id="tx_modelsfo_1usebm0cukcgd-fill-merged" stroke="none" fill="#484848" fill-opacity="1.0">
<g>
<text transform="translate(10.0, 13.0)" style="font-size:15px; font-family:'Roboto', napkin-fallback, sans-serif; white-space:pre;">
<tspan x="2" y="18" dominant-baseline="ideographic">Models for sequential data analysis</tspan>
</text>
</g>
</g>
</g>
<g id="g-root-ic_hori_dika4ocukcul-fill" data-item-order="0" transform="translate(506.0, 506.07000732421875)"></g>
<g id="g-root-tx_transfor_8wi4awctz9qb-fill" data-item-order="0" transform="translate(566.4920043945312, 620.0)">
<g id="tx_transfor_8wi4awctz9qb-fill-merged" stroke="none" fill="#e0cb15" fill-opacity="1.0">
<g>
<text transform="translate(10.0, 10.0)" style="font-weight:bold; font-size:20px; font-family:'Roboto', napkin-fallback, sans-serif; white-space:pre;">
<tspan x="2" y="24" dominant-baseline="ideographic">Transformer Architecture</tspan>
</text>
</g>
</g>
</g>
<g id="g-root-tx_advanced_13z8n60ctz9xr-fill" data-item-order="0" transform="translate(566.4920043945312, 656.0)">
<g id="tx_advanced_13z8n60ctz9xr-fill-merged" stroke="none" fill="#484848" fill-opacity="1.0">
<g>
<text transform="translate(10.0, 13.0)" style="font-size:15px; font-family:'Roboto', napkin-fallback, sans-serif; white-space:pre;">
<tspan x="2" y="18" dominant-baseline="ideographic">Advanced model for complex tasks</tspan>
</text>
</g>
</g>
</g>
<g id="g-root-ic_2_1hap5jcctza4t-fill" data-item-order="0" transform="translate(506.0, 626.0700073242188)"></g>
<g id="g-root-tx_neuralne_1um5kqwcuepla-fill" data-item-order="0" transform="translate(242.0, 38.0)">
<g id="tx_neuralne_1um5kqwcuepla-fill-merged" stroke="none" fill="#484848" fill-opacity="1.0">
<g>
<text transform="translate(212.0, 13.0)" style="font-weight:bold; font-size:25px; font-family:'Roboto', napkin-fallback, sans-serif; white-space:pre;">
<tspan x="-198.3" y="30" dominant-baseline="ideographic">Neural Network Learning Outcomes</tspan>
</text>
</g>
</g>
</g>
<g id="g-root-ic_tenn_1q87hvscug2yx-fill" data-item-order="0" transform="translate(506.0, 266.07000732421875)"></g>
<g id="g-root-cp_0d_g-0d_18efl1kcuepsd-stroke" data-item-order="-590966" transform="translate(33.490020751953125, 499.1019592285156)">
<g id="cp_0d_g-0d_18efl1kcuepsd-stroke" fill="none" stroke-linecap="round" stroke-linejoin="round" stroke-miterlimit="4" stroke="#484848" stroke-width="2" stroke-opacity="1.0">
<g>
<path d="M 19.312069 169.973131L 42.463869 169.973131C 43.597069 169.973131 44.633569 169.334531 45.143269 168.322331L 112.527569 34.509631C 106.811169 29.803331 101.340769 24.654831 96.164269 19.097531L 19.312069 169.973131ZM 11.933069 167.162031L 19.312069 169.973131L 96.164269 19.097531C 93.443269 16.176431 90.803469 13.142331 88.251769 10.000031L 10.327769 162.997031C 9.518269 164.586531 10.266169 166.527031 11.933069 167.162031ZM 98.137769 206.900831L 105.312469 208.714131C 105.312469 208.714131 107.399969 209.139631 108.373769 209.223331L 142.927369 54.198631C 138.741969 52.145531 134.627769 49.879931 130.597869 47.411231L 95.944369 203.341531C 95.592169 204.925931 96.564169 206.503131 98.137769 206.900831ZM 108.373769 209.223331C 109.347569 209.306931 111.550769 209.067531 111.550769 209.067531L 132.500369 206.448831C 133.758369 206.291531 134.781769 205.360431 135.056769 204.122831L 144.646269 160.973131L 151.091169 131.973131L 166.368269 63.230731C 158.373169 60.958731 150.532869 57.929431 142.927369 54.198631L 108.373769 209.223331ZM 287.783969 142.229331L 280.140569 123.503031C 279.647069 122.293931 278.428169 121.543031 277.126369 121.646031L 271.615069 122.082231L 151.091169 131.973131L 144.646269 160.973131L 281.792469 146.677031L 285.286069 146.349931C 287.290269 146.162331 288.544669 144.093031 287.783969 142.229331ZM 299.102469 183.168131L 309.925069 184.270731L 257.406469 57.354331L 246.097469 60.416631L 271.615069 122.082231L 277.126369 121.646031C 278.428169 121.543031 279.647069 122.293931 280.140569 123.503031L 287.783969 142.229331C 288.544669 144.093031 287.290269 146.162331 285.286069 146.349931L 281.792469 146.677031L 295.812769 180.755631C 296.235969 181.778431 297.421569 182.937931 299.102469 183.168131ZM 309.925069 184.270731L 328.403269 181.960931C 330.369669 181.715131 331.561669 179.664231 330.801969 177.834031L 278.161469 51.018331C 274.074269 52.610931 269.870869 53.991531 265.557269 55.147331L 265.552969 55.148531L 265.499469 55.162831L 257.406469 57.354331L 309.925069 184.270731ZM 265.499469 55.162831C 265.517269 55.158031 265.535069 55.153231 265.552969 55.148531"></path>
</g>
</g>
</g>
<g id="g-root-cp_0c_g-0c_qn5kjscueq6c-stroke" data-item-order="-590960" transform="translate(122.39596557617188, 239.33599853515625)">
<g id="cp_0c_g-0c_qn5kjscueq6c-stroke" fill="none" stroke-linecap="round" stroke-linejoin="round" stroke-miterlimit="4" stroke="#484848" stroke-width="2" stroke-opacity="1.0">
<g>
<path d="M 15.808831 184.081285C 36.392431 260.900385 105.622631 309.095485 170.438831 291.728085C 192.986531 285.686485 212.029831 272.506585 226.411831 254.652085L 209.266631 239.702185C 197.464931 253.530985 182.173231 263.737585 164.228231 268.545885C 110.081431 283.054485 52.281431 242.920885 35.128431 178.904985C 17.975431 114.888985 47.964831 51.232285 102.111631 36.723685C 136.802631 27.428285 172.993131 40.562185 199.032931 68.035985L 214.194631 53.596285C 182.854231 18.975785 138.426431 2.146285 95.898931 13.541485C 31.082731 30.908885 -4.774769 107.262185 15.808831 184.081285ZM 183.227331 83.088985L 167.939331 97.648985C 152.857031 84.124485 133.316931 78.056085 114.533131 83.089185C 82.258431 91.737185 64.437731 129.884885 74.729531 168.294385C 85.021331 206.703985 119.528331 230.830485 151.803031 222.182485C 160.492331 219.854185 168.134031 215.387585 174.461331 209.353285L 191.731931 224.412585C 182.573131 234.467785 170.988631 241.887385 157.531731 245.493085C 114.321031 257.071385 68.167531 224.941285 54.445131 173.728585C 40.722731 122.515785 64.627731 71.613685 107.838431 60.035385C 134.652531 52.850585 162.599631 62.496585 183.227331 83.088985ZM 136.590331 176.331185L 156.642131 193.815685C 153.336331 196.146685 149.632731 197.917485 145.591431 199.000285C 123.986131 204.789485 100.909331 188.724385 94.048131 163.118085C 87.186931 137.511685 99.139431 112.060585 120.744831 106.271385C 131.628631 103.355085 142.885831 105.984685 152.255331 112.586185L 134.859331 129.153785C 132.267031 128.676385 129.591231 128.747785 126.956631 129.453685C 116.020531 132.383985 109.936131 145.138485 113.366831 157.941685C 116.506731 169.660085 126.529331 177.357685 136.590331 176.331185ZM 195.600831 219.825485L 178.582731 204.986385C 183.652631 199.024085 187.640031 191.929985 190.358631 184.102785L 210.274131 191.360585C 207.002131 201.931485 202.029331 211.593585 195.600831 219.825485ZM 230.065931 249.877785L 213.025831 235.019485C 220.948431 224.526285 227.021531 212.263485 230.934631 198.889885L 250.835531 206.142385C 246.386431 222.281485 239.339931 237.122585 230.065931 249.877785ZM 235.866231 155.741185L 256.086331 155.741185C 256.939331 171.148885 255.605431 186.167785 252.319831 200.297285L 232.484231 193.068585C 235.325831 181.243685 236.520031 168.659285 235.866231 155.741185ZM 226.625031 112.220985C 228.374831 116.789185 229.910131 121.508185 231.211431 126.364685C 233.308731 134.191985 234.701231 142.013885 235.431031 149.741185L 255.644931 149.741185C 254.778731 140.306085 253.091131 130.750785 250.528831 121.188285C 249.032831 115.604985 247.279731 110.172985 245.290131 104.906285L 226.625031 112.220985ZM 191.606631 136.977285C 192.751031 141.248585 193.547931 145.516585 194.015931 149.741185L 214.229931 149.741185C 213.626131 143.806985 212.534331 137.805585 210.925131 131.799885C 209.828431 127.707085 208.524631 123.736085 207.031731 119.899585L 188.359231 127.217185C 189.615931 130.352485 190.704331 133.609985 191.606631 136.977285ZM 194.462731 155.741185C 194.761731 163.587285 193.930431 171.212185 192.093531 178.348985L 211.876431 185.558485C 214.176131 176.118985 215.162731 166.066485 214.676531 155.741185L 194.462731 155.741185ZM 161.296531 189.913485L 143.318631 174.237385C 145.620031 172.975085 147.609931 171.222085 149.224431 169.112185L 170.182631 176.750085C 168.006331 181.773485 165.002231 186.250685 161.296531 189.913485ZM 153.898831 155.741185C 153.768331 158.590585 153.182731 161.320885 152.200031 163.810585L 172.211731 171.103485C 173.611431 166.279185 174.309731 161.094085 174.216131 155.741185L 153.898831 155.741185ZM 152.969731 147.330085C 153.185331 148.134785 153.363431 148.939285 153.505031 149.741185L 173.782431 149.741185C 173.463031 147.226185 172.967931 144.690685 172.288131 142.153685C 171.580031 139.510785 170.699131 136.969485 169.664931 134.543385L 150.894431 141.899485C 151.751831 143.587185 152.453731 145.404385 152.969731 147.330085ZM 141.133831 131.463785C 143.484131 132.793985 145.648431 134.595385 147.504031 136.783885L 167.006831 129.140785C 164.253131 124.241385 160.838031 119.942685 156.965031 116.386485L 141.133831 131.463785ZM 172.241231 101.837685C 177.613831 107.511285 182.271031 114.206985 185.927831 121.725785L 204.706831 114.366385C 200.139331 104.263285 194.229331 95.207385 187.343931 87.454185L 172.241231 101.837685ZM 203.056531 72.489785L 218.136631 58.127785C 228.134131 70.087185 236.626831 83.948085 243.070731 99.331785L 224.359531 106.664585C 218.819531 93.867785 211.564331 82.369185 203.056531 72.489785Z"></path>
</g>
</g>
</g>
<g id="g-root-cp_0b_g-0b_1q5pljccueqrs-stroke" data-item-order="-590956" transform="translate(68.85699462890625, 215.46499633789062)">
<g id="cp_0b_g-0b_1q5pljccueqrs-stroke" fill="none" stroke-linecap="round" stroke-linejoin="round" stroke-miterlimit="4" stroke="#484848" stroke-width="2" stroke-opacity="1.0">
<g>
<path d="M 197.4088 347.658469C 121.6566 367.956269 40.7799 311.757569 16.7657 222.135269C -7.2485 132.512969 34.6934 43.405169 110.4456 23.107469L 143.2273 14.230469C 136.5986 16.006669 130.2302 18.313469 124.1438 21.104869C 60.9206 50.100869 28.125 131.376769 50.0304 213.128869C 71.9354 294.879469 140.9729 348.868069 210.2224 342.370269C 216.8891 341.744669 223.5578 340.558569 230.1865 338.782669L 197.4088 347.658469ZM 230.1905 338.781569L 230.1865 338.782669"></path>
</g>
</g>
<g id="cp_0b_g-0b_1q5pljccueqrs-stroke" fill="none" stroke-linecap="round" stroke-linejoin="round" stroke-miterlimit="4" stroke="#484848" stroke-width="2" stroke-opacity="1.0">
<g>
<path d="M 245.43495 248.1706C 236.27635 258.2255 224.69195 265.6449 211.23525 269.2506C 168.02445 280.8289 121.87105 248.6988 108.14865 197.4861C 94.42625 146.2733 118.33125 95.3711 161.54195 83.7928C 188.35635 76.6079 216.30395 86.2543 236.93175 106.8474L 252.73735 91.7944C 226.69745 64.32 190.50655 51.1857 155.81515 60.4812C 101.66835 74.9898 71.67895 138.6465 88.83195 202.6624C 105.98495 266.6784 163.78495 306.812 217.93175 292.3034C 235.87655 287.4951 251.16805 277.2887 262.96965 263.4602L 245.43495 248.1706ZM 245.43495 248.1706C 245.43495 248.1706 248.06755 245.1667 249.30385 243.5835M 249.30385 243.5835L 266.72895 258.7775C 274.65155 248.2845 280.72465 236.0218 284.63785 222.6484L 263.97735 215.1191C 260.70525 225.6898 255.73245 235.3518 249.30385 243.5835ZM 283.02075 62.9531C 246.41135 21.1698 193.74985 0.6239 143.39145 14.1174C 67.90595 34.3437 26.18025 123.3935 50.19455 213.0158C 74.20875 302.6381 154.86915 358.8947 230.35465 338.6685C 257.50195 331.3944 280.28285 315.2187 297.20975 293.3162L 280.11485 278.4101C 265.73295 296.2643 246.68985 309.444 224.14225 315.4856C 159.32615 332.853 90.09595 284.6579 69.51235 207.8388C 48.92875 131.0197 84.78625 54.6664 149.60245 37.299C 192.13035 25.9036 236.55855 42.7336 267.89905 77.3547L 283.02075 62.9531ZM 300.78905 288.4766C 311.41315 273.4625 319.43245 256.0464 324.41735 237.1452L 304.53875 229.9009C 300.08955 246.0398 293.04305 260.8808 283.76905 273.6358L 300.78905 288.4766ZM 325.85505 231.2832C 329.58575 214.8498 331.06035 197.397 330.00925 179.5L 309.78995 179.5C 310.64275 194.9076 309.30885 209.9264 306.02315 224.0558L 325.85505 231.2832ZM 329.56325 173.5C 328.56135 162.3569 326.57875 151.068 323.55155 139.7701C 321.86065 133.4598 319.88905 127.315 317.65825 121.3507L 298.99415 128.665C 300.98355 133.9313 302.73645 139.3629 304.23235 144.9458C 306.79475 154.5087 308.48245 164.0644 309.34855 173.5L 329.56325 173.5ZM 315.47145 115.7634C 308.12285 97.7957 298.39215 81.5758 286.90475 67.5397L 271.84095 81.8862C 281.83845 93.8457 290.33095 107.7067 296.77475 123.0905L 315.47145 115.7634ZM 256.76085 96.2482C 265.26855 106.1277 272.52365 117.6264 278.06365 130.4233L 258.41085 138.1251C 253.84355 128.0219 247.93365 118.9659 241.04825 111.2126L 256.76085 96.2482ZM 286.18745 216.8271C 289.02925 205.0023 290.22345 192.418 289.56975 179.5L 268.38015 179.5C 268.86615 189.8252 267.87945 199.8777 265.57965 209.317L 286.18745 216.8271ZM 289.13465 173.5C 288.40485 165.7722 287.01235 157.9499 284.91495 150.1222C 283.61375 145.2661 282.07865 140.5475 280.32905 135.9798L 260.73575 143.6583C 262.22845 147.4944 263.53205 151.465 264.62865 155.5574C 266.23795 161.5635 267.32975 167.5654 267.93355 173.5L 289.13465 173.5ZM 225.94555 125.5961C 231.31815 131.2698 235.97525 137.9656 239.63195 145.4845L 220.71095 152.8995C 217.95745 147.9999 214.54245 143.7012 210.66945 140.1449L 225.94555 125.5961ZM 221.64375 121.4073C 206.56125 107.8822 187.02085 101.8134 168.23655 106.8467C 135.96185 115.4947 118.14125 153.6423 128.43305 192.0519C 138.72485 230.4615 173.23185 254.588 205.50655 245.94C 214.19565 243.6118 221.83705 239.1454 228.16435 233.1113L 210.34505 217.5735C 207.03935 219.9044 203.33605 221.675 199.29495 222.7578C 177.68965 228.547 154.61285 212.4819 147.75165 186.8755C 140.89045 161.2692 152.84295 135.8181 174.44835 130.0289C 185.33255 127.1125 196.59015 129.7424 205.95985 136.3444L 221.64375 121.4073ZM 232.28575 228.7444C 237.35565 222.7822 241.34305 215.6883 244.06185 207.8613L 223.88575 200.5085C 221.70935 205.5318 218.70525 210.0088 214.99955 213.6715L 232.28575 228.7444ZM 245.79675 202.1075C 247.63375 194.9709 248.46515 187.346 248.16625 179.5L 227.91965 179.5C 228.01315 184.8528 227.31465 190.0378 225.91495 194.862L 245.79675 202.1075ZM 247.71955 173.5C 247.25155 169.275 246.45465 165.0065 245.31005 160.7348C 244.40795 157.3679 243.31975 154.1109 242.06325 150.976L 223.36895 158.3022C 224.40295 160.7279 225.28365 163.2687 225.99165 165.9112C 226.67155 168.4487 227.16675 170.9846 227.48605 173.5L 247.71955 173.5ZM 194.83845 155.222C 197.18875 156.5523 199.35295 158.3539 201.20845 160.5425L 195.70845 162.6979C 194.16585 163.3024 193.40545 165.0431 194.01005 166.5857C 194.61455 168.1283 196.35525 168.8887 197.89785 168.2842L 204.59855 165.6582C 205.45565 167.3455 206.15735 169.1623 206.67325 171.0876C 206.88895 171.8927 207.06705 172.6977 207.20875 173.5L 188.79855 173.5C 187.14165 173.5 185.79855 174.8432 185.79855 176.5C 185.79855 178.1569 187.14165 179.5 188.79855 179.5L 207.60225 179.5C 207.47165 182.3493 206.88585 185.0795 205.90315 187.5691L 197.10325 184.3622C 195.54645 183.795 193.82475 184.5972 193.25755 186.154C 192.69035 187.7107 193.49255 189.4325 195.04935 189.9997L 202.92725 192.8706C 201.31265 194.9803 199.32285 196.7331 197.02145 197.9952L 182.86385 185.6504C 181.61495 184.5617 179.71985 184.6916 178.63115 185.9406C 177.54245 187.1895 177.67245 189.0846 178.92135 190.1733L 190.29285 200.0888C 180.23215 201.1147 170.21015 193.4172 167.07025 181.6992C 163.63965 168.896 169.72405 156.1415 180.66015 153.2112C 183.29525 152.5051 185.97155 152.4338 188.56435 152.9116L 179.72855 161.3266C 178.52875 162.4692 178.48245 164.3682 179.62515 165.568C 180.76775 166.7677 182.66675 166.8141 183.86655 165.6714L 194.83845 155.222Z"></path>
</g>
</g>
</g>
<g id="g-root-cp_0a_g-0a_1lpw3ewcuer5w-stroke" data-item-order="-590952" transform="translate(236.58399963378906, 212.2659454345703)">
<g id="cp_0a_g-0a_1lpw3ewcuer5w-stroke" fill="none" stroke-linecap="round" stroke-linejoin="round" stroke-miterlimit="4" stroke="#484848" stroke-width="2" stroke-opacity="1.0">
<g>
<path d="M 10.7386 189.098846C 11.8273 187.849846 13.7223 187.719946 14.9713 188.808646L 198.9259 349.210046C 200.1749 350.298746 200.3048 352.193746 199.2161 353.442746C 198.1274 354.691746 196.2324 354.821646 194.9834 353.732946L 11.0288 193.331546C 9.7798 192.242846 9.6499 190.347746 10.7386 189.098846ZM 25.365 189.464546C 25.9321 187.907846 27.6539 187.105646 29.2107 187.672746L 235.2518 262.760246C 236.8086 263.327446 237.6108 265.049246 237.0436 266.605946C 236.4765 268.162746 234.7547 268.964946 233.1979 268.397746L 27.1567 193.310246C 25.6 192.743146 24.7978 191.021346 25.365 189.464546ZM 177.5774 10.931046C 178.72 12.130846 178.6737 14.029846 177.4739 15.172446L 15.9739 168.981946C 14.7742 170.124646 12.8752 170.078346 11.7326 168.878546C 10.5899 167.678746 10.6362 165.779846 11.836 164.637146L 173.336 10.827646C 174.5358 9.684946 176.4347 9.731246 177.5774 10.931046ZM 224.4587 92.167246C 225.0633 93.709846 224.3029 95.450446 222.7603 96.055046L 30.0053 171.594746C 28.4626 172.199346 26.722 171.438946 26.1174 169.896346C 25.5129 168.353646 26.2733 166.613046 27.8159 166.008446L 220.5709 90.468746C 222.1135 89.864146 223.8542 90.624646 224.4587 92.167246ZM 240.905 182.810546L 20.9059 182.810646C 19.2491 182.810646 17.9059 181.467446 17.9059 179.810646C 17.9059 178.153746 19.2491 176.810646 20.9059 176.810646L 240.905 176.810546C 242.5618 176.810546 243.905 178.153746 243.905 179.810546C 243.905 181.467446 242.5618 182.810546 240.905 182.810546Z"></path>
</g>
</g>
</g>
<g id="g-root-cp_3_g-3_1q6c2mgcueo7d-stroke" data-item-order="-590948" transform="translate(430.989990234375, 364.07000732421875)">
<g id="cp_3_g-3_1q6c2mgcueo7d-stroke" fill="none" stroke-linecap="round" stroke-linejoin="round" stroke-miterlimit="4" stroke="#484848" stroke-width="2" stroke-opacity="1.0">
<g>
<path d="M 20.1981 12.2519L 10 25L 39.9996 25L 49.4001 13.2494C 50.4477 11.9399 49.5153 10 47.8383 10L 24.8834 10C 23.0606 10 21.3367 10.8286 20.1981 12.2519ZM 20.1981 43.7481L 10 31L 39.9996 31L 49.4001 42.7506C 50.4477 44.0601 49.5153 46 47.8383 46L 24.8834 46C 23.0606 46 21.3367 45.1714 20.1981 43.7481Z"></path>
</g>
</g>
</g>
<g id="g-root-cp_4_g-4_1hap2dkcueoef-stroke" data-item-order="-590944" transform="translate(423.98199462890625, 442.63299560546875)">
<g id="cp_4_g-4_1hap2dkcueoef-stroke" fill="none" stroke-linecap="round" stroke-linejoin="round" stroke-miterlimit="4" stroke="#484848" stroke-width="2" stroke-opacity="1.0">
<g>
<path d="M 25.9965 10.875L 12.0519 19.364L 40.2406 29.6291L 53.0944 21.8044C 54.5269 20.9324 54.3146 18.7906 52.7388 18.2168L 31.1695 10.3622C 29.4568 9.7385 27.5535 9.9272 25.9965 10.875ZM 15.2204 40.4673L 10 24.9992L 38.1887 35.2643L 43.0009 49.5222C 43.5372 51.1111 41.9974 52.6149 40.4216 52.041L 18.8523 44.1864C 17.1396 43.5627 15.8033 42.1943 15.2204 40.4673Z"></path>
</g>
</g>
</g>
<g id="g-root-cp_5_g-5_13z8k08cueolj-stroke" data-item-order="-590940" transform="translate(392.6229553222656, 523.7850341796875)">
<g id="cp_5_g-5_13z8k08cueolj-stroke" fill="none" stroke-linecap="round" stroke-linejoin="round" stroke-miterlimit="4" stroke="#484848" stroke-width="2" stroke-opacity="1.0">
<g>
<path d="M 30.687327 10.096569L 14.624627 13.012769L 37.247927 32.714469L 52.054127 30.026669C 53.704127 29.727069 54.275027 27.651869 53.010327 26.550569L 35.699527 11.475269C 34.324927 10.278269 32.480727 9.770969 30.687327 10.096569ZM 10.005227 33.848569L 10.686727 17.537469L 33.310127 37.239169L 32.682227 52.274169C 32.612227 53.949769 30.635127 54.800369 29.370527 53.698969L 12.059627 38.623769C 10.685027 37.426669 9.929227 35.669669 10.005227 33.848569Z"></path>
</g>
</g>
</g>
<g id="g-root-cp_2_g-2_v3ljrccueosm-stroke" data-item-order="-590936" transform="translate(411.8919982910156, 278.66802978515625)">
<g id="cp_2_g-2_v3ljrccueosm-stroke" fill="none" stroke-linecap="round" stroke-linejoin="round" stroke-miterlimit="4" stroke="#484848" stroke-width="2" stroke-opacity="1.0">
<g>
<path d="M 14.8381 22.332885L 10 37.924785L 37.9275 26.968985L 42.3873 12.596985C 42.8843 10.995285 41.308 9.529885 39.7468 10.142385L 18.3774 18.525485C 16.6805 19.191185 15.3783 20.592085 14.8381 22.332885ZM 26.3417 51.653885L 12.1924 43.510685L 40.1199 32.554785L 53.1624 40.060685C 54.6159 40.897185 54.4564 43.043585 52.8952 43.655985L 31.5258 52.039185C 29.829 52.704785 27.9215 52.563085 26.3417 51.653885Z"></path>
</g>
</g>
</g>
<g id="g-root-cp_1_g-1_v3ljrccueozr-stroke" data-item-order="-590932" transform="translate(372.3020324707031, 200.5)">
<g id="cp_1_g-1_v3ljrccueozr-stroke" fill="none" stroke-linecap="round" stroke-linejoin="round" stroke-miterlimit="4" stroke="#484848" stroke-width="2" stroke-opacity="1.0">
<g>
<path d="M 10.022669 31.2599L 11.439769 47.5236L 33.150669 26.8206L 31.844569 11.8292C 31.699069 10.1586 29.685569 9.3981 28.471969 10.5554L 11.859369 26.3968C 10.540169 27.6547 9.864469 29.444 10.022669 31.2599ZM 31.758269 54.0552L 15.580269 51.8671L 37.291069 31.1641L 52.203469 33.1807C 53.865369 33.4055 54.529369 35.4528 53.315669 36.6101L 36.703069 52.4515C 35.383969 53.7094 33.564569 54.2995 31.758269 54.0552Z"></path>
</g>
</g>
</g>
<g id="g-root-tx_coreconc_hs51e0cueqkq-stroke" data-item-order="0" transform="translate(566.4920043945312, 176.0)"></g>
<g id="g-root-ic_1_18f224ocueqrz-stroke" data-item-order="0" transform="translate(506.0, 146.07000732421875)">
<g id="ic_1_18f224ocueqrz-stroke" fill="none" stroke-linecap="round" stroke-linejoin="round" stroke-miterlimit="4" stroke="#484848" stroke-width="2" stroke-opacity="1.0">
<g>
<path d="M 16.347338 45.928246L 11.999791 56.995094M 17.999166 56.995094L 19.784981 46.996136M 51.647659 45.928246L 55.995205 56.995094M 49.995831 56.995094L 48.210018 46.996136M 38.661011 34.729416L 45.876259 40.500813M 22.118736 40.500813L 29.331984 34.729416M 18.621101 39.032967L 17.659201 28.936018M 30.193893 48.220005L 22.612686 44.682377M 45.38031 44.684376L 37.801102 48.220005M 50.329796 28.998013L 49.373894 39.022964M 37.695114 16.523312L 47.410103 20.522896M 20.582897 20.522896L 30.301884 16.521313M 14.999478 42.996552C 14.999478 45.205463 16.790154 46.996136 18.999062 46.996136C 21.20797 46.996136 22.998644 45.205463 22.998644 42.996552C 22.998644 40.787643 21.20797 38.996967 18.999062 38.996967C 16.790154 38.996967 14.999478 40.787643 14.999478 42.996552ZM 29.997915 14.999471C 29.997915 17.20838 31.788589 18.999054 33.997498 18.999054C 36.206406 18.999054 37.997082 17.20838 37.997082 14.999471C 37.997082 12.790563 36.206406 10.999888 33.997498 10.999888C 31.788589 10.999888 29.997915 12.790563 29.997915 14.999471ZM 11.999791 23.998533C 11.999791 26.759668 14.238134 28.998013 16.999269 28.998013C 19.760406 28.998013 21.998749 26.759668 21.998749 23.998533C 21.998749 21.237398 19.760406 18.999054 16.999269 18.999054C 14.238134 18.999054 11.999791 21.237398 11.999791 23.998533ZM 44.996353 42.996552C 44.996353 45.205463 46.787025 46.996136 48.995934 46.996136C 51.204845 46.996136 52.995518 45.205463 52.995518 42.996552C 52.995518 40.787643 51.204845 38.996967 48.995934 38.996967C 46.787025 38.996967 44.996353 40.787643 44.996353 42.996552ZM 45.996246 23.998533C 45.996246 26.759668 48.234589 28.998013 50.995728 28.998013C 53.756863 28.998013 55.995205 26.759668 55.995205 23.998533C 55.995205 21.237398 53.756863 18.999054 50.995728 18.999054C 48.234589 18.999054 45.996246 21.237398 45.996246 23.998533ZM 28.42808 28.770035L 18.999062 24.998428M 48.995934 24.998428L 39.56292 28.772036M 33.997498 18.999054L 33.997498 24.998428M 36.211269 36.573223L 38.996975 56.995094M 28.99802 56.995094L 31.783728 36.573223M 27.998123 30.997803C 27.998123 34.311169 30.684135 36.997177 33.997498 36.997177C 37.310863 36.997177 39.996872 34.311169 39.996872 30.997803C 39.996872 27.684441 37.310863 24.99843 33.997498 24.99843C 30.684135 24.99843 27.998123 27.684441 27.998123 30.997803Z"></path>
</g>
</g>
</g>
<g id="g-root-tx_textproc_ddkhfscug5qn-stroke" data-item-order="0" transform="translate(566.4920043945312, 260.0)"></g>
<g id="g-root-tx_techniqu_1413z9kcug2ru-stroke" data-item-order="0" transform="translate(566.4920043945312, 296.0)"></g>
<g id="g-root-tx_neuralne_v3ljrccueq6c-stroke" data-item-order="0" transform="translate(566.4920043945312, 140.0)"></g>
<g id="g-root-tx_wordembe_zpnsqwcuhix6-stroke" data-item-order="0" transform="translate(566.4920043945312, 380.0)"></g>
<g id="g-root-tx_vectorre_1d1qs7ccuhhjc-stroke" data-item-order="0" transform="translate(566.4920043945312, 416.0)"></g>
<g id="g-root-ic_coup_1d1qs7ccuhi4q-stroke" data-item-order="0" transform="translate(506.0, 386.07000732421875)">
<g id="ic_coup_1d1qs7ccuhi4q-stroke" fill="none" stroke-linecap="round" stroke-linejoin="round" stroke-miterlimit="4" stroke="#484848" stroke-width="2" stroke-opacity="1.0">
<g>
<path d="M 56.971104 33.997498C 56.971405 30.183586 54.56752 26.783688 50.971729 25.512383L 50.971729 21.998749C 50.971729 20.342068 49.628723 18.999062 47.972042 18.999062L 20.022955 18.999062C 18.366274 18.999062 17.023268 20.342068 17.023268 21.998749L 17.023268 25.512383C 13.426674 26.783003 11.02186 30.183058 11.02186 33.997498C 11.02186 37.811939 13.426674 41.211994 17.023268 42.482613L 17.023268 45.996246C 17.023268 47.652931 18.366274 48.995934 20.022955 48.995934L 47.972042 48.995934C 49.628723 48.995934 50.971729 47.652931 50.971729 45.996246L 50.971729 42.482613C 54.56752 41.211308 56.971405 37.811409 56.971104 33.997498ZM 41.972668 27.950129L 37.973083 40.948772L 33.973499 27.950129L 29.973917 40.948772L 25.974335 27.950129M 24.974438 31.96571L 42.972565 31.96571"></path>
</g>
</g>
</g>
<g id="g-root-tx_sequence_hyds94cukc1s-stroke" data-item-order="0" transform="translate(566.4920043945312, 500.0)"></g>
<g id="g-root-tx_modelsfo_1usebm0cukcgd-stroke" data-item-order="0" transform="translate(566.4920043945312, 536.0)"></g>
<g id="g-root-ic_hori_dika4ocukcul-stroke" data-item-order="0" transform="translate(506.0, 506.07000732421875)">
<g id="ic_hori_dika4ocukcul-stroke" fill="none" stroke-linecap="round" stroke-linejoin="round" stroke-miterlimit="4" stroke="#484848" stroke-width="2" stroke-opacity="1.0">
<g>
<path d="M 33.997498 24.990437L 33.997498 10.999896M 33.997498 56.995102L 33.997498 44.996353M 21.998749 36.997185L 45.996246 36.997185C 45.996246 36.997185 47.99604 36.997185 47.99604 38.996975L 47.99604 42.996559C 47.99604 42.996559 47.99604 44.996353 45.996246 44.996353L 21.998749 44.996353C 21.998749 44.996353 19.998957 44.996353 19.998957 42.996559L 19.998957 38.996975C 19.998957 38.996975 19.998957 36.997185 21.998749 36.997185M 25.998333 24.998436L 41.996666 24.998436C 41.996666 24.998436 43.996456 24.998436 43.996456 26.998228L 43.996456 30.99781C 43.996456 30.99781 43.996456 32.997601 41.996666 32.997601L 25.998333 32.997601C 25.998333 32.997601 23.998541 32.997601 23.998541 30.99781L 23.998541 26.998228C 23.998541 26.998228 23.998541 24.998436 25.998333 24.998436M 51.995621 14.999478L 39.996872 14.999478M 43.996456 18.999062L 39.996872 14.999478L 43.996456 10.999896M 15.999374 52.995518L 27.998123 52.995518M 23.998541 48.995934L 27.998123 52.995518L 23.998541 56.995102M 33.997498 32.997601L 33.997498 36.997185"></path>
</g>
</g>
</g>
<g id="g-root-tx_transfor_8wi4awctz9qb-stroke" data-item-order="0" transform="translate(566.4920043945312, 620.0)"></g>
<g id="g-root-tx_advanced_13z8n60ctz9xr-stroke" data-item-order="0" transform="translate(566.4920043945312, 656.0)"></g>
<g id="g-root-ic_2_1hap5jcctza4t-stroke" data-item-order="0" transform="translate(506.0, 626.0700073242188)">
<g id="ic_2_1hap5jcctza4t-stroke" fill="none" stroke-linecap="round" stroke-linejoin="round" stroke-miterlimit="4" stroke="#484848" stroke-width="2" stroke-opacity="1.0">
<g>
<path d="M 17.999166 23.13063C 17.999166 20.226933 19.630997 17.625204 22.4727 17.025267C 25.026434 16.487324 28.782042 15.999374 33.997498 15.999374C 39.212955 15.999374 42.968563 16.487324 45.522297 17.025267C 48.362003 17.625204 49.995831 20.226933 49.995831 23.13063L 49.995831 42.864574C 49.995831 45.768269 48.363998 48.369999 45.522297 48.969936C 42.968563 49.507881 39.212955 49.995831 33.997498 49.995831C 28.782042 49.995831 25.026434 49.507881 22.4727 48.969936C 19.632996 48.369999 17.999166 45.768269 17.999166 42.864574L 17.999166 23.13063ZM 25.998333 23.998541L 25.998333 41.996666M 41.996666 23.998541L 41.996666 41.996666M 49.995831 25.998333L 55.995205 25.998333M 49.995831 39.996872L 55.995205 39.996872M 25.998333 25.998333L 41.996666 25.998333M 25.998333 39.996872L 41.996666 39.996872M 11.999791 25.998333L 17.999166 25.998333M 11.999791 39.996872L 17.999166 39.996872"></path>
</g>
</g>
</g>
<g id="g-root-tx_neuralne_1um5kqwcuepla-stroke" data-item-order="0" transform="translate(242.0, 38.0)"></g>
<g id="g-root-ic_tenn_1q87hvscug2yx-stroke" data-item-order="0" transform="translate(506.0, 266.07000732421875)">
<g id="ic_tenn_1q87hvscug2yx-stroke" fill="none" stroke-linecap="round" stroke-linejoin="round" stroke-miterlimit="4" stroke="#484848" stroke-width="2" stroke-opacity="1.0">
<g>
<path d="M 12.999687 10.999896L 54.995308 10.999896C 54.995308 10.999896 56.995102 10.999896 56.995102 12.999687L 56.995102 54.995308C 56.995102 54.995308 56.995102 56.995102 54.995308 56.995102L 12.999687 56.995102C 12.999687 56.995102 10.999896 56.995102 10.999896 54.995308L 10.999896 12.999687C 10.999896 12.999687 10.999896 10.999896 12.999687 10.999896M 23.998541 47.99604L 43.996456 47.99604M 29.497967 25.000437L 29.497967 42.998558M 23.498592 25.000437L 35.497341 25.000437M 42.078655 34.663429C 41.620705 33.693527 40.198853 32.997601 38.747002 32.997601C 36.975189 32.997601 35.413349 34.075489 35.413349 35.403351C 35.413349 36.437244 36.353252 37.339149 37.691113 37.591122L 39.574917 37.943085C 41.046761 38.219059 42.078655 39.212955 42.078655 40.350834L 42.078655 40.496819C 42.078655 41.876675 40.586811 42.996559 38.747002 42.996559C 37.295155 42.996559 35.871304 42.300632 35.413349 41.330734"></path>
</g>
</g>
</g>
</g>
</g>
<path id="wvb3bygctzaj1" d="M65.283 12.757a.35.35 0 0 0 .584.157l5.203-5.141-6.183 3.523.396 1.461zm-2.216-11.7a.35.35 0 0 0-.522.305v3.111l3.276-1.868-2.754-1.548zm3.728 2.105l-4.25 2.421v2.445l6.391-3.644-2.141-1.222zm4.708 3.303a.35.35 0 0 0 0-.609l-1.592-.9-7.365 4.199v1.782a.35.35 0 0 0 .523.305l8.435-4.777z M44.542 2.513c0-.433.355-.783.792-.783s.792.35.792.783-.355.783-.792.783-.792-.35-.792-.783zm59.171 0c0-.433.355-.783.792-.783s.792.35.792.783-.355.783-.792.783-.792-.35-.792-.783zm-85.951 7.636h-1.27v-.487c-.276.201-.864.609-1.881.609-1.202 0-2.274-.794-2.137-2.078.118-1.106 1.153-1.584 1.848-1.727l2.17-.345c0-.539-.29-.956-1.064-1.006s-1.21.305-1.571 1.017l-1.124-.605c1.218-2.631 5.029-1.764 5.029.414v4.207zm-1.27-2.86c.006.396-.062 1.112-.819 1.59-.587.37-1.841.299-1.903-.395-.049-.555.461-.791.906-.898l1.816-.297zm72.662 2.86h-1.27v-.487c-.276.201-.864.609-1.881.609-1.202 0-2.274-.794-2.137-2.078.118-1.106 1.153-1.584 1.848-1.727l2.17-.345c0-.539-.29-.956-1.064-1.006s-1.21.305-1.571 1.017l-1.124-.605c1.218-2.631 5.029-1.764 5.029.414v4.207zm-1.27-2.86c.006.396-.062 1.112-.82 1.59-.587.37-1.841.299-1.903-.395-.049-.555.461-.791.906-.898l1.816-.297zM99.096 10.149H97.85v-8.45h1.246v4.895l2.68-2.559h1.738l-2.633 2.535 2.715 3.578h-1.556l-2.077-2.707-.867.844v1.863zm6.053-6.114h-1.255v6.113h1.255V4.035zm-59.2 0h-1.255v6.113h1.255V4.035zm5.584 6.113V1.697h1.255v2.695c.361-.346 1-.485 1.47-.485 1.452 0 2.477 1.082 2.457 2.448v3.792h-1.27v-3.68c0-.408-.214-1.339-1.315-1.339-.968 0-1.342.756-1.342 1.339v3.681h-1.255zm-4.76-4.894V4.039h.621a.45.45 0 0 0 .45-.45v-.855h1.251v1.305h1.309v1.215h-1.309v3.109c0 .293.105.664.648.664.365 0 .531-.035.736-.07v1.137s-.361.113-.857.113c-1.398 0-1.777-1.051-1.777-1.788V5.254h-1.071zM36.528 4.039h-1.394l2.191 6.106h1.125l1.234-3.918 1.238 3.918h1.129l2.188-6.106h-1.383l-1.359 3.93-1.256-3.93h-1.124l-1.242 3.957-1.348-3.957zM26.212 7.141c-.02 1.566 1.187 3.129 3.223 3.129 1.566 0 2.383-.918 2.734-1.719L31.172 8c-.315.399-.801 1.094-1.738 1.094-1.145 0-1.825-.781-1.891-1.52h4.625c.074-.284.148-.995-.03-1.559-.336-1.064-1.221-2.102-2.839-2.102s-3.088 1.152-3.088 3.227zm1.363-.75h3.348c-.055-.43-.566-1.301-1.623-1.301a1.79 1.79 0 0 0-1.725 1.301zm-8.758.75c.038 1.758 1.277 3.133 3.145 3.133 1.074 0 1.723-.477 1.961-.672v.547h1.242V1.703h-1.258v2.888c-.414-.36-1.062-.68-1.93-.68-1.91 0-3.198 1.473-3.16 3.23zm1.309-.08c0 1.119.723 1.978 1.836 1.978a1.88 1.88 0 0 0 1.94-1.904c0-1.371-1.011-1.99-1.972-1.99s-1.805.798-1.805 1.916zm76.683-.028C96.771 5.275 95.532 3.9 93.664 3.9c-1.074 0-1.723.477-1.961.672v-.547h-1.242v8.22h1.258V9.583c.414.36 1.063.68 1.93.68 1.91 0 3.198-1.473 3.16-3.23zm-1.309.08c0-1.119-.723-1.978-1.836-1.978a1.88 1.88 0 0 0-1.94 1.904c0 1.371 1.011 1.99 1.972 1.99S95.5 8.231 95.5 7.113zM106.441 10.173V4.036h1.254v.382c.361-.346 1-.485 1.47-.485 1.452 0 2.477 1.082 2.457 2.448v3.792h-1.27V6.492c0-.408-.214-1.339-1.315-1.339-.969 0-1.342.756-1.342 1.339v3.681h-1.254zm-30.383-.021V1.824h1.084l4.215 5.777V1.824h1.32v8.328h-1.094l-4.207-5.796v5.796h-1.319zM5.24 10.149H4V2.377h1.014l2.664 3.597 2.654-3.592h1.03v7.766h-1.256V4.762L7.678 8.068 5.24 4.742v5.407z" transform="translate(776.0, 746.0000610351562)" fill="#80808088" stroke="none"></path>
</svg>