<?xml version="1.0" encoding="utf-8" standalone="yes"?>
<!DOCTYPE svg PUBLIC "-//W3C//DTD SVG 1.1//EN" "http://www.w3.org/Graphics/SVG/1.1/DTD/svg11.dtd">
<svg version="1.1" xmlns="http://www.w3.org/2000/svg" xmlns:xlink="http://www.w3.org/1999/xlink" width="744" height="498" viewBox="0 0 744 498" style="fill:none; stroke:none; fill-rule:evenodd; clip-rule:evenodd; stroke-linecap:round; stroke-linejoin:round; stroke-miterlimit:1.5;">
<style class="text-font-style fontImports" data-font-family="Roboto">
@import url(https://fonts.googleapis.com/css2?family=Roboto:wght@400;700&amp;display=block);
</style>
<style class="text-font-style">
@import url(https://app.napkin.ai/fonts/font-face.web.napkin-fallback.css);
@import url(https://app.napkin.ai/fonts/font-face.web.shantell-sans.css);
@import url(https://app.napkin.ai/fonts/font-face.web.roboto.css);
</style>
<g id="items" style="isolation:isolate;">
<g id="blend" style="mix-blend-mode:normal;">
<g id="g-root-cp_0_g-0_13zvtjcckavil-fill" data-item-order="-279782" transform="translate(47.0, 98.0)">
<g id="cp_0_g-0_13zvtjcckavil-fill-merged" stroke="none" fill="url(#gradient-cbcbcb-48637562)" fill-opacity="1.0">
<g>
<path d="M48.5 83.5L10 124.5L27.5 156.5L37 151L23.5 125.5L48.5 99 V83.5"></path>
</g>
</g>
<g id="cp_0_g-0_13zvtjcckavil-fill-merged" stroke="none" fill="url(#gradient-cbcbcb-48637562)" fill-opacity="1.0">
<g>
<path d="M96.5 83.5L135 124.5L117.5 156.5L108 151L121.5 125.5L96.5 99 V83.5"></path>
</g>
</g>
<g id="cp_0_g-0_13zvtjcckavil-fill-merged" stroke="none" fill="url(#gradient-cbcbcb-48637562)" fill-opacity="1.0">
<g>
<path d="M59.5 106C59.5 113.18 65.32 119 72.5 119C79.68 119 85.5 113.18 85.5 106 H78.5C78.5 109.314 75.814 112 72.5 112C69.186 112 66.5 109.314 66.5 106 H59.5"></path>
</g>
</g>
<g id="cp_0_g-0_13zvtjcckavil-fill-merged" stroke="none" fill="url(#gradient-cbcbcb-48637562)" fill-opacity="1.0">
<g>
<path d="M216 83.5L177.5 124.5L195 156.5L204.5 151L191 125.5L216 99 V83.5"></path>
</g>
</g>
<g id="cp_0_g-0_13zvtjcckavil-fill-merged" stroke="none" fill="url(#gradient-cbcbcb-48637562)" fill-opacity="1.0">
<g>
<path d="M264 83.5L302.5 124.5L285 156.5L275.5 151L289 125.5L264 99 V83.5"></path>
</g>
</g>
<g id="cp_0_g-0_13zvtjcckavil-fill-merged" stroke="none" fill="url(#gradient-cbcbcb-48637562)" fill-opacity="1.0">
<g>
<path d="M227 106C227 113.18 232.82 119 240 119C247.18 119 253 113.18 253 106 H246C246 109.314 243.314 112 240 112C236.686 112 234 109.314 234 106 H227"></path>
</g>
</g>
<g id="cp_0_g-0_13zvtjcckavil-fill-merged" stroke="none" fill="url(#gradient-cbcbcb-48637562)" fill-opacity="1.0">
<g>
<path d="M383.5 83.5L345 124.5L362.5 156.5L372 151L358.5 125.5L383.5 99 V83.5"></path>
</g>
</g>
<g id="cp_0_g-0_13zvtjcckavil-fill-merged" stroke="none" fill="url(#gradient-cbcbcb-48637562)" fill-opacity="1.0">
<g>
<path d="M431.5 83.5L470 124.5L452.5 156.5L443 151L456.5 125.5L431.5 99 V83.5"></path>
</g>
</g>
<g id="cp_0_g-0_13zvtjcckavil-fill-merged" stroke="none" fill="url(#gradient-cbcbcb-48637562)" fill-opacity="1.0">
<g>
<path d="M394.5 106C394.5 113.18 400.32 119 407.5 119C414.68 119 420.5 113.18 420.5 106 H413.5C413.5 109.314 410.814 112 407.5 112C404.186 112 401.5 109.314 401.5 106 H394.5"></path>
</g>
</g>
<g id="cp_0_g-0_13zvtjcckavil-fill-merged" stroke="none" fill="url(#gradient-cbcbcb-48637562)" fill-opacity="1.0">
<g>
<path d="M551 83.5L512.5 124.5L530 156.5L539.5 151L526 125.5L551 99 V83.5"></path>
</g>
</g>
<g id="cp_0_g-0_13zvtjcckavil-fill-merged" stroke="none" fill="url(#gradient-cbcbcb-48637562)" fill-opacity="1.0">
<g>
<path d="M599 83.5L637.5 124.5L620 156.5L610.5 151L624 125.5L599 99 V83.5"></path>
</g>
</g>
<g id="cp_0_g-0_13zvtjcckavil-fill-merged" stroke="none" fill="url(#gradient-cbcbcb-48637562)" fill-opacity="1.0">
<g>
<path d="M562 106C562 113.18 567.82 119 575 119C582.18 119 588 113.18 588 106 H581C581 109.314 578.314 112 575 112C571.686 112 569 109.314 569 106 H562"></path>
</g>
</g>
</g>
<g id="g-root-cp_1_g-1_13zvtjcckaw3l-fill" data-item-order="-279748" transform="translate(73.5, 122.0)">
<g id="cp_1_g-1_13zvtjcckaw3l-fill-merged" stroke="none" fill="url(#gradient-ffeb37-9997561)" fill-opacity="1.0">
<g>
<path d="M22 10 H70 V82 H22 V10 M10 136C10 155.882 26.118 172 46 172C65.882 172 82 155.882 82 136C82 116.118 65.882 100 46 100C26.118 100 10 116.118 10 136"></path>
</g>
</g>
<g id="cp_1_g-1_13zvtjcckaw3l-fill-merged" stroke="none" fill="url(#gradient-ffeb37-9997561)" fill-opacity="1.0">
<g>
<path d="M40 82C40 85.314 42.686 88 46 88C49.314 88 52 85.314 52 82 H40"></path>
</g>
</g>
</g>
<g id="g-root-cp_2_g-2_1lr5u14ckawb1-fill" data-item-order="-279740" transform="translate(241.0, 122.0)">
<g id="cp_2_g-2_1lr5u14ckawb1-fill-merged" stroke="none" fill="url(#gradient-fcaa5f-284141256)" fill-opacity="1.0">
<g>
<path d="M22 10 H70 V82 H22 V10 M10 136C10 155.882 26.118 172 46 172C65.882 172 82 155.882 82 136C82 116.118 65.882 100 46 100C26.118 100 10 116.118 10 136"></path>
</g>
</g>
<g id="cp_2_g-2_1lr5u14ckawb1-fill-merged" stroke="none" fill="url(#gradient-fcaa5f-284141256)" fill-opacity="1.0">
<g>
<path d="M40 82C40 85.314 42.686 88 46 88C49.314 88 52 85.314 52 82 H40"></path>
</g>
</g>
</g>
<g id="g-root-cp_3_g-3_4hbsjsckawox-fill" data-item-order="-279732" transform="translate(408.5, 122.0)">
<g id="cp_3_g-3_4hbsjsckawox-fill-merged" stroke="none" fill="url(#gradient-fe8884-345532732)" fill-opacity="1.0">
<g>
<path d="M22 10 H70 V82 H22 V10 M10 136C10 155.882 26.118 172 46 172C65.882 172 82 155.882 82 136C82 116.118 65.882 100 46 100C26.118 100 10 116.118 10 136"></path>
</g>
</g>
<g id="cp_3_g-3_4hbsjsckawox-fill-merged" stroke="none" fill="url(#gradient-fe8884-345532732)" fill-opacity="1.0">
<g>
<path d="M40 82C40 85.314 42.686 88 46 88C49.314 88 52 85.314 52 82 H40"></path>
</g>
</g>
</g>
<g id="g-root-cp_4_g-4_m8lt1kckaww6-fill" data-item-order="-279724" transform="translate(576.0, 122.0)">
<defs>
<linearGradient id="gradient-cbcbcb-48637562" x2="0" y2="1">
<stop offset="0" stop-color="#d9d9d9"></stop>
<stop offset="1" stop-color="#bcbcbc"></stop>
</linearGradient>
<linearGradient id="gradient-ffeb37-9997561" x2="0" y2="1">
<stop offset="0" stop-color="#ffef63"></stop>
<stop offset="1" stop-color="#ffe60a"></stop>
</linearGradient>
<linearGradient id="gradient-fcaa5f-284141256" x2="0" y2="1">
<stop offset="0" stop-color="#ffbf84"></stop>
<stop offset="1" stop-color="#f99539"></stop>
</linearGradient>
<linearGradient id="gradient-fe8884-345532732" x2="0" y2="1">
<stop offset="0" stop-color="#ffa6a3"></stop>
<stop offset="1" stop-color="#fd6a65"></stop>
</linearGradient>
<linearGradient id="gradient-fb85cc-419033426" x2="0" y2="1">
<stop offset="0" stop-color="#ffa1da"></stop>
<stop offset="1" stop-color="#f669be"></stop>
</linearGradient>
</defs>
<g id="cp_4_g-4_m8lt1kckaww6-fill-merged" stroke="none" fill="url(#gradient-fb85cc-419033426)" fill-opacity="1.0">
<g>
<path d="M22 10 H70 V82 H22 V10 M10 136C10 155.882 26.118 172 46 172C65.882 172 82 155.882 82 136C82 116.118 65.882 100 46 100C26.118 100 10 116.118 10 136"></path>
</g>
</g>
<g id="cp_4_g-4_m8lt1kckaww6-fill-merged" stroke="none" fill="url(#gradient-fb85cc-419033426)" fill-opacity="1.0">
<g>
<path d="M40 82C40 85.314 42.686 88 46 88C49.314 88 52 85.314 52 82 H40"></path>
</g>
</g>
</g>
<g id="g-root-tx_careerou_18fpbnsckaxho-fill" data-item-order="0" transform="translate(272.0, 38.0)">
<g id="tx_careerou_18fpbnsckaxho-fill-merged" stroke="none" fill="#484848" fill-opacity="1.0">
<g>
<text transform="translate(98.0, 13.0)" style="font-weight:bold; font-size:25px; font-family:'Roboto', napkin-fallback, sans-serif; white-space:pre;">
<tspan x="-82.5" y="30" dominant-baseline="ideographic">Career Outlook</tspan>
</text>
</g>
</g>
</g>
<g id="g-root-ic_crim_1umsua0ckaxvo-fill" data-item-order="0" transform="translate(85.5, 224.0)"></g>
<g id="g-root-ic_view_mb3pe0ckcb2c-fill" data-item-order="0" transform="translate(253.5, 224.0)"></g>
<g id="g-root-ic_spee_dcyssockdon9-fill" data-item-order="0" transform="translate(421.5, 224.0)"></g>
<g id="g-root-ic_arro_18gbsqwckdqfc-fill" data-item-order="0" transform="translate(589.5, 224.0)"></g>
<g id="g-root-tx_nlpengin_qvx07cckgi6k-fill" data-item-order="0" transform="translate(44.0, 296.0)">
<g id="tx_nlpengin_qvx07cckgi6k-fill-merged" stroke="none" fill="#e0cb15" fill-opacity="1.0">
<g>
<text transform="translate(74.0, 10.0)" style="font-weight:bold; font-size:20px; font-family:'Roboto', napkin-fallback, sans-serif; white-space:pre;">
<tspan x="-59.07" y="24" dominant-baseline="ideographic">NLP Engineer</tspan>
</text>
</g>
</g>
</g>
<g id="g-root-tx_focuseso_qvx07cckgirx-fill" data-item-order="0" transform="translate(38.0, 332.0)">
<g id="tx_focuseso_qvx07cckgirx-fill-merged" stroke="none" fill="#484848" fill-opacity="1.0">
<g>
<text transform="translate(80.0, 31.0)" style="font-size:15px; font-family:'Roboto', napkin-fallback, sans-serif; white-space:pre;">
<tspan x="-63.22" y="0" dominant-baseline="ideographic">Focuses on natural </tspan>
<tspan x="-30.51" y="18" dominant-baseline="ideographic">language </tspan>
<tspan x="-56.68" y="36" dominant-baseline="ideographic">processing tasks.</tspan>
</text>
</g>
</g>
</g>
<g id="g-root-tx_datascie_1uuajbcckgiyr-fill" data-item-order="0" transform="translate(212.0, 296.0)">
<g id="tx_datascie_1uuajbcckgiyr-fill-merged" stroke="none" fill="#de8431" fill-opacity="1.0">
<g>
<text transform="translate(74.0, 10.0)" style="font-weight:bold; font-size:20px; font-family:'Roboto', napkin-fallback, sans-serif; white-space:pre;">
<tspan x="-60.67" y="24" dominant-baseline="ideographic">Data Scientist</tspan>
</text>
</g>
</g>
</g>
<g id="g-root-tx_analyzes_1hiu0y0ckgj60-fill" data-item-order="0" transform="translate(206.0, 332.0)">
<g id="tx_analyzes_1hiu0y0ckgj60-fill-merged" stroke="none" fill="#484848" fill-opacity="1.0">
<g>
<text transform="translate(80.0, 31.0)" style="font-size:15px; font-family:'Roboto', napkin-fallback, sans-serif; white-space:pre;">
<tspan x="-55.06" y="0" dominant-baseline="ideographic">Analyzes data to </tspan>
<tspan x="-62.21" y="18" dominant-baseline="ideographic">extract meaningful </tspan>
<tspan x="-26.29" y="36" dominant-baseline="ideographic">insights.</tspan>
</text>
</g>
</g>
</g>
<g id="g-root-tx_aicustom_18n70p4ckgjk0-fill" data-item-order="0" transform="translate(380.0, 296.0)">
<g id="tx_aicustom_18n70p4ckgjk0-fill-merged" stroke="none" fill="#e55753" fill-opacity="1.0">
<g>
<text transform="translate(74.0, 22.0)" style="font-weight:bold; font-size:20px; font-family:'Roboto', napkin-fallback, sans-serif; white-space:pre;">
<tspan x="-56.51" y="12" dominant-baseline="ideographic">AI Customer </tspan>
<tspan x="-31.62" y="36" dominant-baseline="ideographic">Service</tspan>
</text>
</g>
</g>
</g>
<g id="g-root-tx_usesaito_1hiu0y0ckgjri-fill" data-item-order="0" transform="translate(374.0, 356.0)">
<g id="tx_usesaito_1hiu0y0ckgjri-fill-merged" stroke="none" fill="#484848" fill-opacity="1.0">
<g>
<text transform="translate(80.0, 31.0)" style="font-size:15px; font-family:'Roboto', napkin-fallback, sans-serif; white-space:pre;">
<tspan x="-62.47" y="0" dominant-baseline="ideographic">Uses AI to improve </tspan>
<tspan x="-31.54" y="18" dominant-baseline="ideographic">customer </tspan>
<tspan x="-39.33" y="36" dominant-baseline="ideographic">interactions.</tspan>
</text>
</g>
</g>
</g>
<g id="g-root-tx_financia_1uuajbcckgk5d-fill" data-item-order="0" transform="translate(542.0, 296.0)">
<g id="tx_financia_1uuajbcckgk5d-fill-merged" stroke="none" fill="#de58a9" fill-opacity="1.0">
<g>
<text transform="translate(80.0, 22.0)" style="font-weight:bold; font-size:20px; font-family:'Roboto', napkin-fallback, sans-serif; white-space:pre;">
<tspan x="-62.88" y="12" dominant-baseline="ideographic">Financial Text </tspan>
<tspan x="-36.05" y="36" dominant-baseline="ideographic">Analysis</tspan>
</text>
</g>
</g>
</g>
<g id="g-root-tx_appliesa_dl2yx4ckghe1-fill" data-item-order="0" transform="translate(554.0, 356.0)">
<g id="tx_appliesa_dl2yx4ckghe1-fill-merged" stroke="none" fill="#484848" fill-opacity="1.0">
<g>
<text transform="translate(68.0, 31.0)" style="font-size:15px; font-family:'Roboto', napkin-fallback, sans-serif; white-space:pre;">
<tspan x="-41.97" y="0" dominant-baseline="ideographic">Applies AI to </tspan>
<tspan x="-55.19" y="18" dominant-baseline="ideographic">analyze financial </tspan>
<tspan x="-37.55" y="36" dominant-baseline="ideographic">documents.</tspan>
</text>
</g>
</g>
</g>
<g id="g-root-cp_0_g-0_13zvtjcckavil-stroke" data-item-order="-279782" transform="translate(47.0, 98.0)">
<g id="cp_0_g-0_13zvtjcckavil-stroke" fill="none" stroke-linecap="round" stroke-linejoin="round" stroke-miterlimit="4" stroke="#484848" stroke-width="2" stroke-opacity="1.0">
<g>
<path d="M 48.5 83.5L 10 124.5L 27.5 156.5L 37 151L 23.5 125.5L 48.5 99L 48.5 83.5Z"></path>
</g>
</g>
<g id="cp_0_g-0_13zvtjcckavil-stroke" fill="none" stroke-linecap="round" stroke-linejoin="round" stroke-miterlimit="4" stroke="#484848" stroke-width="2" stroke-opacity="1.0">
<g>
<path d="M 96.5 83.5L 135 124.5L 117.5 156.5L 108 151L 121.5 125.5L 96.5 99L 96.5 83.5Z"></path>
</g>
</g>
<g id="cp_0_g-0_13zvtjcckavil-stroke" fill="none" stroke-linecap="round" stroke-linejoin="round" stroke-miterlimit="4" stroke="#484848" stroke-width="2" stroke-opacity="1.0">
<g>
<path d="M 59.5 106C 59.5 113.1797 65.3203 119 72.5 119C 79.6797 119 85.5 113.1797 85.5 106L 78.5 106C 78.5 109.3137 75.8137 112 72.5 112C 69.1863 112 66.5 109.3137 66.5 106L 59.5 106ZM 72.5 34L 72.5 10"></path>
</g>
</g>
<g id="cp_0_g-0_13zvtjcckavil-stroke" fill="none" stroke-linecap="round" stroke-linejoin="round" stroke-miterlimit="4" stroke="#484848" stroke-width="2" stroke-opacity="1.0">
<g>
<path d="M 216 83.5L 177.5 124.5L 195 156.5L 204.5 151L 191 125.5L 216 99L 216 83.5Z"></path>
</g>
</g>
<g id="cp_0_g-0_13zvtjcckavil-stroke" fill="none" stroke-linecap="round" stroke-linejoin="round" stroke-miterlimit="4" stroke="#484848" stroke-width="2" stroke-opacity="1.0">
<g>
<path d="M 264 83.5L 302.5 124.5L 285 156.5L 275.5 151L 289 125.5L 264 99L 264 83.5Z"></path>
</g>
</g>
<g id="cp_0_g-0_13zvtjcckavil-stroke" fill="none" stroke-linecap="round" stroke-linejoin="round" stroke-miterlimit="4" stroke="#484848" stroke-width="2" stroke-opacity="1.0">
<g>
<path d="M 227 106C 227 113.1797 232.8203 119 240 119C 247.1797 119 253 113.1797 253 106L 246 106C 246 109.3137 243.3137 112 240 112C 236.6863 112 234 109.3137 234 106L 227 106ZM 240 34L 240 10"></path>
</g>
</g>
<g id="cp_0_g-0_13zvtjcckavil-stroke" fill="none" stroke-linecap="round" stroke-linejoin="round" stroke-miterlimit="4" stroke="#484848" stroke-width="2" stroke-opacity="1.0">
<g>
<path d="M 383.5 83.5L 345 124.5L 362.5 156.5L 372 151L 358.5 125.5L 383.5 99L 383.5 83.5Z"></path>
</g>
</g>
<g id="cp_0_g-0_13zvtjcckavil-stroke" fill="none" stroke-linecap="round" stroke-linejoin="round" stroke-miterlimit="4" stroke="#484848" stroke-width="2" stroke-opacity="1.0">
<g>
<path d="M 431.5 83.5L 470 124.5L 452.5 156.5L 443 151L 456.5 125.5L 431.5 99L 431.5 83.5Z"></path>
</g>
</g>
<g id="cp_0_g-0_13zvtjcckavil-stroke" fill="none" stroke-linecap="round" stroke-linejoin="round" stroke-miterlimit="4" stroke="#484848" stroke-width="2" stroke-opacity="1.0">
<g>
<path d="M 394.5 106C 394.5 113.1797 400.3203 119 407.5 119C 414.6797 119 420.5 113.1797 420.5 106L 413.5 106C 413.5 109.3137 410.8137 112 407.5 112C 404.1863 112 401.5 109.3137 401.5 106L 394.5 106Z"></path>
</g>
</g>
<g id="cp_0_g-0_13zvtjcckavil-stroke" fill="none" stroke-linecap="round" stroke-linejoin="round" stroke-miterlimit="4" stroke="#484848" stroke-width="2" stroke-opacity="1.0">
<g>
<path d="M 551 83.5L 512.5 124.5L 530 156.5L 539.5 151L 526 125.5L 551 99L 551 83.5Z"></path>
</g>
</g>
<g id="cp_0_g-0_13zvtjcckavil-stroke" fill="none" stroke-linecap="round" stroke-linejoin="round" stroke-miterlimit="4" stroke="#484848" stroke-width="2" stroke-opacity="1.0">
<g>
<path d="M 599 83.5L 637.5 124.5L 620 156.5L 610.5 151L 624 125.5L 599 99L 599 83.5Z"></path>
</g>
</g>
<g id="cp_0_g-0_13zvtjcckavil-stroke" fill="none" stroke-linecap="round" stroke-linejoin="round" stroke-miterlimit="4" stroke="#484848" stroke-width="2" stroke-opacity="1.0">
<g>
<path d="M 562 106C 562 113.1797 567.8203 119 575 119C 582.1797 119 588 113.1797 588 106L 581 106C 581 109.3137 578.3137 112 575 112C 571.6863 112 569 109.3137 569 106L 562 106ZM 407.5 34L 407.5 10M 575 34L 575 10"></path>
</g>
</g>
</g>
<g id="g-root-cp_1_g-1_13zvtjcckaw3l-stroke" data-item-order="-279748" transform="translate(73.5, 122.0)">
<g id="cp_1_g-1_13zvtjcckaw3l-stroke" fill="none" stroke-linecap="round" stroke-linejoin="round" stroke-miterlimit="4" stroke="#484848" stroke-width="2" stroke-opacity="1.0">
<g>
<path d="M 22 10L 70 10L 70 82L 22 82ZM 10 136C 10 155.882251 26.117749 172 46 172C 65.882251 172 82 155.882251 82 136C 82 116.117749 65.882251 100 46 100C 26.117749 100 10 116.117749 10 136"></path>
</g>
</g>
<g id="cp_1_g-1_13zvtjcckaw3l-stroke" fill="none" stroke-linecap="round" stroke-linejoin="round" stroke-miterlimit="4" stroke="#484848" stroke-width="2" stroke-opacity="1.0">
<g>
<path d="M 40 82C 40 85.3137 42.6863 88 46 88C 49.3137 88 52 85.3137 52 82L 40 82Z"></path>
</g>
</g>
</g>
<g id="g-root-cp_2_g-2_1lr5u14ckawb1-stroke" data-item-order="-279740" transform="translate(241.0, 122.0)">
<g id="cp_2_g-2_1lr5u14ckawb1-stroke" fill="none" stroke-linecap="round" stroke-linejoin="round" stroke-miterlimit="4" stroke="#484848" stroke-width="2" stroke-opacity="1.0">
<g>
<path d="M 22 10L 70 10L 70 82L 22 82ZM 10 136C 10 155.882251 26.117749 172 46 172C 65.882251 172 82 155.882251 82 136C 82 116.117749 65.882251 100 46 100C 26.117749 100 10 116.117749 10 136"></path>
</g>
</g>
<g id="cp_2_g-2_1lr5u14ckawb1-stroke" fill="none" stroke-linecap="round" stroke-linejoin="round" stroke-miterlimit="4" stroke="#484848" stroke-width="2" stroke-opacity="1.0">
<g>
<path d="M 40 82C 40 85.3137 42.6863 88 46 88C 49.3137 88 52 85.3137 52 82L 40 82Z"></path>
</g>
</g>
</g>
<g id="g-root-cp_3_g-3_4hbsjsckawox-stroke" data-item-order="-279732" transform="translate(408.5, 122.0)">
<g id="cp_3_g-3_4hbsjsckawox-stroke" fill="none" stroke-linecap="round" stroke-linejoin="round" stroke-miterlimit="4" stroke="#484848" stroke-width="2" stroke-opacity="1.0">
<g>
<path d="M 22 10L 70 10L 70 82L 22 82ZM 10 136C 10 155.882251 26.117749 172 46 172C 65.882251 172 82 155.882251 82 136C 82 116.117749 65.882251 100 46 100C 26.117749 100 10 116.117749 10 136"></path>
</g>
</g>
<g id="cp_3_g-3_4hbsjsckawox-stroke" fill="none" stroke-linecap="round" stroke-linejoin="round" stroke-miterlimit="4" stroke="#484848" stroke-width="2" stroke-opacity="1.0">
<g>
<path d="M 40 82C 40 85.3137 42.6863 88 46 88C 49.3137 88 52 85.3137 52 82L 40 82Z"></path>
</g>
</g>
</g>
<g id="g-root-cp_4_g-4_m8lt1kckaww6-stroke" data-item-order="-279724" transform="translate(576.0, 122.0)">
<g id="cp_4_g-4_m8lt1kckaww6-stroke" fill="none" stroke-linecap="round" stroke-linejoin="round" stroke-miterlimit="4" stroke="#484848" stroke-width="2" stroke-opacity="1.0">
<g>
<path d="M 22 10L 70 10L 70 82L 22 82ZM 10 136C 10 155.882251 26.117749 172 46 172C 65.882251 172 82 155.882251 82 136C 82 116.117749 65.882251 100 46 100C 26.117749 100 10 116.117749 10 136"></path>
</g>
</g>
<g id="cp_4_g-4_m8lt1kckaww6-stroke" fill="none" stroke-linecap="round" stroke-linejoin="round" stroke-miterlimit="4" stroke="#484848" stroke-width="2" stroke-opacity="1.0">
<g>
<path d="M 40 82C 40 85.3137 42.6863 88 46 88C 49.3137 88 52 85.3137 52 82L 40 82Z"></path>
</g>
</g>
</g>
<g id="g-root-tx_careerou_18fpbnsckaxho-stroke" data-item-order="0" transform="translate(272.0, 38.0)"></g>
<g id="g-root-ic_crim_1umsua0ckaxvo-stroke" data-item-order="0" transform="translate(85.5, 224.0)">
<g id="ic_crim_1umsua0ckaxvo-stroke" fill="none" stroke-linecap="round" stroke-linejoin="round" stroke-miterlimit="4" stroke="#484848" stroke-width="2" stroke-opacity="1.0">
<g>
<path d="M 57 51C 57.000004 43.268013 50.731987 37 43 37C 41.282158 36.984459 39.57972 37.324947 38 38M 38.225998 51L 50 51M 35 25C 35 29.418278 38.581722 33 43 33C 47.418278 33 51 29.418278 51 25C 51 20.581722 47.418278 17 43 17C 38.581722 17 35 20.581722 35 25M 32.681999 34.368C 32.409859 33.550915 31.645214 32.999794 30.784 33L 13 33C 12.357113 32.999847 11.753344 33.308743 11.377316 33.830189C 11.001287 34.351639 10.898848 35.022057 11.102 35.632L 16.226 51L 38.225998 51ZM 23.226 41.5C 22.949858 41.5 22.726 41.723858 22.726 42C 22.726 42.276142 22.949858 42.5 23.226 42.5C 23.502142 42.5 23.726 42.276142 23.726 42C 23.726 41.723858 23.502142 41.5 23.226 41.5M 49.93 29L 45 29C 43.895432 29 43 28.10457 43 27L 43 23L 50.748001 23M 43 23L 36.634003 20.17M 40.653999 42.689999C 44.326324 43.68013 48.224365 42.252102 50.387997 39.124001"></path>
</g>
</g>
</g>
<g id="g-root-ic_view_mb3pe0ckcb2c-stroke" data-item-order="0" transform="translate(253.5, 224.0)">
<g id="ic_view_mb3pe0ckcb2c-stroke" fill="none" stroke-linecap="round" stroke-linejoin="round" stroke-miterlimit="4" stroke="#484848" stroke-width="2" stroke-opacity="1.0">
<g>
<path d="M 28.52 45.063999L 16 45.063999C 13.790861 45.063999 12 43.27314 12 41.063999L 12 16.048C 12 13.838861 13.790861 12.048 16 12.048L 46.018002 12.048C 48.227139 12.048 50.018002 13.838861 50.018002 16.048L 50.018002 29.666M 12 19.860001L 50.02 19.860001M 12 36.468002L 28.736 36.468002M 12 28.177999L 34.021999 28.177999M 27.530001 19.860001L 27.530001 45.063999M 38.662003 19.860001L 38.662003 28.177999M 42.155998 51.632C 47.618256 51.518284 51.955372 47.000343 51.846001 41.538002C 51.955372 36.075653 47.618256 31.557716 42.155998 31.444C 36.693745 31.557716 32.356628 36.075653 32.466 41.538002C 32.356628 47.000343 36.693745 51.518284 42.155998 51.632ZM 56 55.953999L 49 48.672001"></path>
</g>
</g>
</g>
<g id="g-root-ic_spee_dcyssockdon9-stroke" data-item-order="0" transform="translate(421.5, 224.0)">
<g id="ic_spee_dcyssockdon9-stroke" fill="none" stroke-linecap="round" stroke-linejoin="round" stroke-miterlimit="4" stroke="#484848" stroke-width="2" stroke-opacity="1.0">
<g>
<path d="M 26.83 23L 26.83 13.308001C 26.83 12.033327 27.863327 11 29.138 11L 54.521999 11C 55.796673 11 56.830002 12.033327 56.830002 13.308001L 56.830002 30.691999C 56.830002 31.966673 55.796673 33 54.521999 33L 43.560001 33L 34.905998 39L 34.905998 33L 31.138 33M 32.905998 17L 50.751999 17M 32.905998 22L 50.751999 22M 32.905998 27L 44.138 27M 34.742001 54.858002C 34.740898 56.040539 33.782539 56.998898 32.599998 57L 13.314 57C 12.130682 57 11.171103 56.041317 11.17 54.858002L 11.17 49.5C 11.17 42.990772 16.446772 37.714001 22.956001 37.714001C 29.465229 37.714001 34.742001 42.990772 34.742001 49.5ZM 18.456001 45C 18.456001 45.276142 18.679857 45.5 18.956001 45.5C 19.232143 45.5 19.456001 45.276142 19.456001 45C 19.456001 44.723858 19.232143 44.5 18.956001 44.5C 18.679857 44.5 18.456001 44.723858 18.456001 45M 26.455999 44.987999C 26.455999 45.264141 26.679857 45.487999 26.955999 45.487999C 27.232141 45.487999 27.455999 45.264141 27.455999 44.987999C 27.455999 44.711857 27.232141 44.487999 26.955999 44.487999C 26.679857 44.487999 26.455999 44.711857 26.455999 44.987999M 22.956001 37.714001L 22.956001 33.428001M 19.742001 30.214001C 19.742001 31.989044 21.180958 33.428001 22.956001 33.428001C 24.731045 33.428001 26.17 31.989044 26.17 30.214001C 26.17 28.438957 24.731045 27 22.956001 27C 21.180958 27 19.742001 28.438957 19.742001 30.214001M 11.17 51.630001L 34.742001 51.630001"></path>
</g>
</g>
</g>
<g id="g-root-ic_arro_18gbsqwckdqfc-stroke" data-item-order="0" transform="translate(589.5, 224.0)">
<g id="ic_arro_18gbsqwckdqfc-stroke" fill="none" stroke-linecap="round" stroke-linejoin="round" stroke-miterlimit="4" stroke="#484848" stroke-width="2" stroke-opacity="1.0">
<g>
<path d="M 47.057999 11L 55.976002 11L 55.976002 19.917999M 55.976002 11L 45.754002 24.288L 37.577999 18.153999L 29.4 30.42L 29.4 30.42L 21.223999 24.288L 11.002 38.596001M 36.043999 29.4L 54.953999 29.4C 56.084759 29.4 57.001106 30.317245 57 31.448L 57 54.956001C 56.998898 56.085194 56.083195 57 54.954002 57L 26.334 57C 25.205587 56.998898 24.291103 56.084415 24.290001 54.956001L 24.290001 34M 24.290001 36.094002L 56.998001 36.094002M 24.290001 43.202L 56.998001 43.202M 24.290001 50.307999L 56.998001 50.307999M 40.643997 36.094002L 40.643997 57M 48.82 36.096001L 48.82 57"></path>
</g>
</g>
</g>
<g id="g-root-tx_nlpengin_qvx07cckgi6k-stroke" data-item-order="0" transform="translate(44.0, 296.0)"></g>
<g id="g-root-tx_focuseso_qvx07cckgirx-stroke" data-item-order="0" transform="translate(38.0, 332.0)"></g>
<g id="g-root-tx_datascie_1uuajbcckgiyr-stroke" data-item-order="0" transform="translate(212.0, 296.0)"></g>
<g id="g-root-tx_analyzes_1hiu0y0ckgj60-stroke" data-item-order="0" transform="translate(206.0, 332.0)"></g>
<g id="g-root-tx_aicustom_18n70p4ckgjk0-stroke" data-item-order="0" transform="translate(380.0, 296.0)"></g>
<g id="g-root-tx_usesaito_1hiu0y0ckgjri-stroke" data-item-order="0" transform="translate(374.0, 356.0)"></g>
<g id="g-root-tx_financia_1uuajbcckgk5d-stroke" data-item-order="0" transform="translate(542.0, 296.0)"></g>
<g id="g-root-tx_appliesa_dl2yx4ckghe1-stroke" data-item-order="0" transform="translate(554.0, 356.0)"></g>
</g>
</g>
<path id="wdgpnbcckhyx8" d="M65.283 12.757a.35.35 0 0 0 .584.157l5.203-5.141-6.183 3.523.396 1.461zm-2.216-11.7a.35.35 0 0 0-.522.305v3.111l3.276-1.868-2.754-1.548zm3.728 2.105l-4.25 2.421v2.445l6.391-3.644-2.141-1.222zm4.708 3.303a.35.35 0 0 0 0-.609l-1.592-.9-7.365 4.199v1.782a.35.35 0 0 0 .523.305l8.435-4.777z M44.542 2.513c0-.433.355-.783.792-.783s.792.35.792.783-.355.783-.792.783-.792-.35-.792-.783zm59.171 0c0-.433.355-.783.792-.783s.792.35.792.783-.355.783-.792.783-.792-.35-.792-.783zm-85.951 7.636h-1.27v-.487c-.276.201-.864.609-1.881.609-1.202 0-2.274-.794-2.137-2.078.118-1.106 1.153-1.584 1.848-1.727l2.17-.345c0-.539-.29-.956-1.064-1.006s-1.21.305-1.571 1.017l-1.124-.605c1.218-2.631 5.029-1.764 5.029.414v4.207zm-1.27-2.86c.006.396-.062 1.112-.819 1.59-.587.37-1.841.299-1.903-.395-.049-.555.461-.791.906-.898l1.816-.297zm72.662 2.86h-1.27v-.487c-.276.201-.864.609-1.881.609-1.202 0-2.274-.794-2.137-2.078.118-1.106 1.153-1.584 1.848-1.727l2.17-.345c0-.539-.29-.956-1.064-1.006s-1.21.305-1.571 1.017l-1.124-.605c1.218-2.631 5.029-1.764 5.029.414v4.207zm-1.27-2.86c.006.396-.062 1.112-.82 1.59-.587.37-1.841.299-1.903-.395-.049-.555.461-.791.906-.898l1.816-.297zM99.096 10.149H97.85v-8.45h1.246v4.895l2.68-2.559h1.738l-2.633 2.535 2.715 3.578h-1.556l-2.077-2.707-.867.844v1.863zm6.053-6.114h-1.255v6.113h1.255V4.035zm-59.2 0h-1.255v6.113h1.255V4.035zm5.584 6.113V1.697h1.255v2.695c.361-.346 1-.485 1.47-.485 1.452 0 2.477 1.082 2.457 2.448v3.792h-1.27v-3.68c0-.408-.214-1.339-1.315-1.339-.968 0-1.342.756-1.342 1.339v3.681h-1.255zm-4.76-4.894V4.039h.621a.45.45 0 0 0 .45-.45v-.855h1.251v1.305h1.309v1.215h-1.309v3.109c0 .293.105.664.648.664.365 0 .531-.035.736-.07v1.137s-.361.113-.857.113c-1.398 0-1.777-1.051-1.777-1.788V5.254h-1.071zM36.528 4.039h-1.394l2.191 6.106h1.125l1.234-3.918 1.238 3.918h1.129l2.188-6.106h-1.383l-1.359 3.93-1.256-3.93h-1.124l-1.242 3.957-1.348-3.957zM26.212 7.141c-.02 1.566 1.187 3.129 3.223 3.129 1.566 0 2.383-.918 2.734-1.719L31.172 8c-.315.399-.801 1.094-1.738 1.094-1.145 0-1.825-.781-1.891-1.52h4.625c.074-.284.148-.995-.03-1.559-.336-1.064-1.221-2.102-2.839-2.102s-3.088 1.152-3.088 3.227zm1.363-.75h3.348c-.055-.43-.566-1.301-1.623-1.301a1.79 1.79 0 0 0-1.725 1.301zm-8.758.75c.038 1.758 1.277 3.133 3.145 3.133 1.074 0 1.723-.477 1.961-.672v.547h1.242V1.703h-1.258v2.888c-.414-.36-1.062-.68-1.93-.68-1.91 0-3.198 1.473-3.16 3.23zm1.309-.08c0 1.119.723 1.978 1.836 1.978a1.88 1.88 0 0 0 1.94-1.904c0-1.371-1.011-1.99-1.972-1.99s-1.805.798-1.805 1.916zm76.683-.028C96.771 5.275 95.532 3.9 93.664 3.9c-1.074 0-1.723.477-1.961.672v-.547h-1.242v8.22h1.258V9.583c.414.36 1.063.68 1.93.68 1.91 0 3.198-1.473 3.16-3.23zm-1.309.08c0-1.119-.723-1.978-1.836-1.978a1.88 1.88 0 0 0-1.94 1.904c0 1.371 1.011 1.99 1.972 1.99S95.5 8.231 95.5 7.113zM106.441 10.173V4.036h1.254v.382c.361-.346 1-.485 1.47-.485 1.452 0 2.477 1.082 2.457 2.448v3.792h-1.27V6.492c0-.408-.214-1.339-1.315-1.339-.969 0-1.342.756-1.342 1.339v3.681h-1.254zm-30.383-.021V1.824h1.084l4.215 5.777V1.824h1.32v8.328h-1.094l-4.207-5.796v5.796h-1.319zM5.24 10.149H4V2.377h1.014l2.664 3.597 2.654-3.592h1.03v7.766h-1.256V4.762L7.678 8.068 5.24 4.742v5.407z" transform="translate(20.0, 464.0)" fill="#80808088" stroke="none"></path>
</svg>